M48
; DRILL file {KiCad (5.1.6-0)} date Friday, August 14, 2020 at 08:43:57 PM
; FORMAT={-:-/ absolute / inch / decimal}
; #@! TF.CreationDate,2020-08-14T20:43:57-05:00
; #@! TF.GenerationSoftware,Kicad,Pcbnew,(5.1.6-0)
FMAT,2
INCH
T1C0.0118
T2C0.0236
T3C0.0315
%
G90
G05
T1
X7.455Y-6.1325
X7.6313Y-6.1016
X7.6475Y-5.37
X7.94Y-5.7375
X8.0375Y-5.6925
X8.1225Y-5.8075
X8.1226Y-6.1467
X8.2075Y-5.705
X8.22Y-5.8475
X8.25Y-5.705
X8.3472Y-5.3669
X8.4025Y-5.8725
X8.4245Y-6.1007
X8.45Y-5.8825
X8.495Y-5.8975
X8.545Y-5.95
X8.6075Y-5.7175
X8.6205Y-4.8205
X8.6323Y-4.7614
X8.6854Y-5.1378
X8.7311Y-5.1413
X9.0245Y-5.7526
X9.1025Y-6.0375
X9.1475Y-4.975
X9.2375Y-6.175
X9.3307Y-5.026
X9.4127Y-5.6952
X9.4783Y-5.0551
X9.5252Y-5.2047
X9.6425Y-5.0405
T2
X9.855Y-6.2
T3
X8.8217Y-5.4768
X8.9217Y-5.4768
X9.0217Y-5.4768
X9.1217Y-5.4768
X9.2217Y-5.4768
X9.3217Y-5.4768
X9.4217Y-5.4768
X8.9898Y-4.7126
X9.0898Y-4.7126
X9.1898Y-4.7126
X9.2898Y-4.7126
X9.3898Y-4.7126
X9.4898Y-4.7126
X9.5898Y-4.7126
X7.45Y-4.84
X7.45Y-5.14
X7.55Y-4.84
X7.55Y-5.14
X7.65Y-4.84
X7.65Y-5.14
X7.75Y-4.84
X7.75Y-5.14
X7.85Y-4.84
X7.85Y-5.14
X7.95Y-4.84
X7.95Y-5.14
X8.05Y-4.84
X8.05Y-5.14
X8.15Y-4.84
X8.15Y-5.14
X8.25Y-4.84
X8.25Y-5.14
X8.35Y-4.84
X8.35Y-5.14
X7.25Y-5.445
X7.25Y-6.045
X7.35Y-5.445
X7.35Y-6.045
X7.45Y-5.445
X7.45Y-6.045
X7.55Y-5.445
X7.55Y-6.045
X7.65Y-5.445
X7.65Y-6.045
X7.75Y-5.445
X7.75Y-6.045
X7.85Y-5.445
X7.85Y-6.045
X7.95Y-5.445
X7.95Y-6.045
X8.05Y-5.445
X8.05Y-6.045
X8.15Y-5.445
X8.15Y-6.045
X8.25Y-5.445
X8.25Y-6.045
X8.35Y-5.445
X8.35Y-6.045
X8.45Y-5.445
X8.45Y-6.045
X8.55Y-5.445
X8.55Y-6.045
X9.0284Y-4.8358
X9.0284Y-5.1358
X9.1284Y-4.8358
X9.1284Y-5.1358
X9.2284Y-4.8358
X9.2284Y-5.1358
X9.3284Y-4.8358
X9.3284Y-5.1358
X9.4284Y-4.8358
X9.4284Y-5.1358
X9.5284Y-4.8358
X9.5284Y-5.1358
X8.928Y-5.3394
X9.028Y-5.3394
X9.128Y-5.3394
X9.228Y-5.3394
X9.328Y-5.3394
X9.428Y-5.3394
X9.528Y-5.3394
X8.88Y-5.59
X8.88Y-5.89
X8.98Y-5.59
X8.98Y-5.89
X9.08Y-5.59
X9.08Y-5.89
X9.18Y-5.59
X9.18Y-5.89
X9.28Y-5.59
X9.28Y-5.89
X9.38Y-5.59
X9.38Y-5.89
X7.25Y-4.6898
X7.25Y-5.2898
X7.35Y-4.6898
X7.35Y-5.2898
X7.45Y-4.6898
X7.45Y-5.2898
X7.55Y-4.6898
X7.55Y-5.2898
X7.65Y-4.6898
X7.65Y-5.2898
X7.75Y-4.6898
X7.75Y-5.2898
X7.85Y-4.6898
X7.85Y-5.2898
X7.95Y-4.6898
X7.95Y-5.2898
X8.05Y-4.6898
X8.05Y-5.2898
X8.15Y-4.6898
X8.15Y-5.2898
X8.25Y-4.6898
X8.25Y-5.2898
X8.35Y-4.6898
X8.35Y-5.2898
X8.45Y-4.6898
X8.45Y-5.2898
X8.55Y-4.6898
X8.55Y-5.2898
X8.65Y-4.6898
X8.65Y-5.2898
X8.75Y-4.6898
X8.75Y-5.2898
X9.557Y-5.6466
X9.557Y-5.745
X9.557Y-5.8434
X9.683Y-5.6466
X9.683Y-5.745
X9.683Y-5.8434
X8.655Y-5.8481
X8.655Y-6.045
X8.861Y-5.0008
X8.861Y-5.1976
X7.2031Y-6.195
X7.4Y-6.195
X7.45Y-5.595
X7.45Y-5.895
X7.55Y-5.595
X7.55Y-5.895
X7.65Y-5.595
X7.65Y-5.895
X7.75Y-5.595
X7.75Y-5.895
X7.85Y-5.595
X7.85Y-5.895
X7.95Y-5.595
X7.95Y-5.895
X8.05Y-5.595
X8.05Y-5.895
X8.15Y-5.595
X8.15Y-5.895
X8.25Y-5.595
X8.25Y-5.895
X8.35Y-5.595
X8.35Y-5.895
X9.855Y-5.495
X10.0519Y-5.495
T0
M30
