G04 #@! TF.GenerationSoftware,KiCad,Pcbnew,(5.1.6-0)*
G04 #@! TF.CreationDate,2020-08-14T20:43:53-05:00*
G04 #@! TF.ProjectId,DoubleROM-DOC,446f7562-6c65-4524-9f4d-2d444f432e6b,rev?*
G04 #@! TF.SameCoordinates,Original*
G04 #@! TF.FileFunction,Legend,Top*
G04 #@! TF.FilePolarity,Positive*
%FSLAX46Y46*%
G04 Gerber Fmt 4.6, Leading zero omitted, Abs format (unit mm)*
G04 Created by KiCad (PCBNEW (5.1.6-0)) date 2020-08-14 20:43:53*
%MOMM*%
%LPD*%
G01*
G04 APERTURE LIST*
%ADD10C,0.200000*%
%ADD11C,0.254000*%
%ADD12C,0.304800*%
%ADD13C,0.150000*%
%ADD14C,0.381000*%
%ADD15C,0.120000*%
%ADD16C,0.127000*%
%ADD17C,0.100000*%
G04 APERTURE END LIST*
D10*
X241136285Y-132167571D02*
X241422000Y-133667571D01*
X241650571Y-132596142D01*
X241879142Y-133667571D01*
X242164857Y-132167571D01*
X242622000Y-133667571D02*
X242622000Y-132667571D01*
X242622000Y-132953285D02*
X242679142Y-132810428D01*
X242736285Y-132739000D01*
X242850571Y-132667571D01*
X242964857Y-132667571D01*
X248666000Y-146685000D02*
X261620000Y-146685000D01*
X248666000Y-141097000D02*
X261620000Y-141097000D01*
D11*
X249174000Y-136271000D02*
X261112000Y-136271000D01*
X261112000Y-136271000D02*
X259588000Y-134747000D01*
X261112000Y-136271000D02*
X259588000Y-137795000D01*
X249174000Y-131572000D02*
X261112000Y-131572000D01*
X261112000Y-131572000D02*
X259588000Y-133096000D01*
X261112000Y-131572000D02*
X259588000Y-130048000D01*
X261112000Y-127127000D02*
X259588000Y-128651000D01*
X261112000Y-127127000D02*
X259588000Y-125603000D01*
X249174000Y-127127000D02*
X261112000Y-127127000D01*
D12*
X250137022Y-117986628D02*
X251007880Y-117986628D01*
X250572451Y-119510628D02*
X250572451Y-117986628D01*
X251515880Y-119510628D02*
X251515880Y-117986628D01*
X251515880Y-118712342D02*
X252386737Y-118712342D01*
X252386737Y-119510628D02*
X252386737Y-117986628D01*
X253112451Y-119510628D02*
X253112451Y-117986628D01*
X253765594Y-119438057D02*
X253983308Y-119510628D01*
X254346165Y-119510628D01*
X254491308Y-119438057D01*
X254563880Y-119365485D01*
X254636451Y-119220342D01*
X254636451Y-119075200D01*
X254563880Y-118930057D01*
X254491308Y-118857485D01*
X254346165Y-118784914D01*
X254055880Y-118712342D01*
X253910737Y-118639771D01*
X253838165Y-118567200D01*
X253765594Y-118422057D01*
X253765594Y-118276914D01*
X253838165Y-118131771D01*
X253910737Y-118059200D01*
X254055880Y-117986628D01*
X254418737Y-117986628D01*
X254636451Y-118059200D01*
X256378165Y-119438057D02*
X256595880Y-119510628D01*
X256958737Y-119510628D01*
X257103880Y-119438057D01*
X257176451Y-119365485D01*
X257249022Y-119220342D01*
X257249022Y-119075200D01*
X257176451Y-118930057D01*
X257103880Y-118857485D01*
X256958737Y-118784914D01*
X256668451Y-118712342D01*
X256523308Y-118639771D01*
X256450737Y-118567200D01*
X256378165Y-118422057D01*
X256378165Y-118276914D01*
X256450737Y-118131771D01*
X256523308Y-118059200D01*
X256668451Y-117986628D01*
X257031308Y-117986628D01*
X257249022Y-118059200D01*
X257902165Y-119510628D02*
X257902165Y-117986628D01*
X258627880Y-119510628D02*
X258627880Y-117986628D01*
X258990737Y-117986628D01*
X259208451Y-118059200D01*
X259353594Y-118204342D01*
X259426165Y-118349485D01*
X259498737Y-118639771D01*
X259498737Y-118857485D01*
X259426165Y-119147771D01*
X259353594Y-119292914D01*
X259208451Y-119438057D01*
X258990737Y-119510628D01*
X258627880Y-119510628D01*
X260151880Y-118712342D02*
X260659880Y-118712342D01*
X260877594Y-119510628D02*
X260151880Y-119510628D01*
X260151880Y-117986628D01*
X260877594Y-117986628D01*
X258555308Y-120577428D02*
X259426165Y-120577428D01*
X258990737Y-122101428D02*
X258990737Y-120577428D01*
X260224451Y-120577428D02*
X260514737Y-120577428D01*
X260659880Y-120650000D01*
X260805022Y-120795142D01*
X260877594Y-121085428D01*
X260877594Y-121593428D01*
X260805022Y-121883714D01*
X260659880Y-122028857D01*
X260514737Y-122101428D01*
X260224451Y-122101428D01*
X260079308Y-122028857D01*
X259934165Y-121883714D01*
X259861594Y-121593428D01*
X259861594Y-121085428D01*
X259934165Y-120795142D01*
X260079308Y-120650000D01*
X260224451Y-120577428D01*
X251588451Y-124692228D02*
X251588451Y-123168228D01*
X252169022Y-123168228D01*
X252314165Y-123240800D01*
X252386737Y-123313371D01*
X252459308Y-123458514D01*
X252459308Y-123676228D01*
X252386737Y-123821371D01*
X252314165Y-123893942D01*
X252169022Y-123966514D01*
X251588451Y-123966514D01*
X253983308Y-124547085D02*
X253910737Y-124619657D01*
X253693022Y-124692228D01*
X253547880Y-124692228D01*
X253330165Y-124619657D01*
X253185022Y-124474514D01*
X253112451Y-124329371D01*
X253039880Y-124039085D01*
X253039880Y-123821371D01*
X253112451Y-123531085D01*
X253185022Y-123385942D01*
X253330165Y-123240800D01*
X253547880Y-123168228D01*
X253693022Y-123168228D01*
X253910737Y-123240800D01*
X253983308Y-123313371D01*
X256668451Y-124692228D02*
X256160451Y-123966514D01*
X255797594Y-124692228D02*
X255797594Y-123168228D01*
X256378165Y-123168228D01*
X256523308Y-123240800D01*
X256595880Y-123313371D01*
X256668451Y-123458514D01*
X256668451Y-123676228D01*
X256595880Y-123821371D01*
X256523308Y-123893942D01*
X256378165Y-123966514D01*
X255797594Y-123966514D01*
X257321594Y-123893942D02*
X257829594Y-123893942D01*
X258047308Y-124692228D02*
X257321594Y-124692228D01*
X257321594Y-123168228D01*
X258047308Y-123168228D01*
X258627880Y-124256800D02*
X259353594Y-124256800D01*
X258482737Y-124692228D02*
X258990737Y-123168228D01*
X259498737Y-124692228D01*
X260877594Y-124692228D02*
X260369594Y-123966514D01*
X260006737Y-124692228D02*
X260006737Y-123168228D01*
X260587308Y-123168228D01*
X260732451Y-123240800D01*
X260805022Y-123313371D01*
X260877594Y-123458514D01*
X260877594Y-123676228D01*
X260805022Y-123821371D01*
X260732451Y-123893942D01*
X260587308Y-123966514D01*
X260006737Y-123966514D01*
D13*
X249375357Y-152850904D02*
X249451547Y-152850904D01*
X249527738Y-152889000D01*
X249565833Y-152927095D01*
X249603928Y-153003285D01*
X249642023Y-153155666D01*
X249642023Y-153346142D01*
X249603928Y-153498523D01*
X249565833Y-153574714D01*
X249527738Y-153612809D01*
X249451547Y-153650904D01*
X249375357Y-153650904D01*
X249299166Y-153612809D01*
X249261071Y-153574714D01*
X249222976Y-153498523D01*
X249184880Y-153346142D01*
X249184880Y-153155666D01*
X249222976Y-153003285D01*
X249261071Y-152927095D01*
X249299166Y-152889000D01*
X249375357Y-152850904D01*
X250137261Y-152850904D02*
X250213452Y-152850904D01*
X250289642Y-152889000D01*
X250327738Y-152927095D01*
X250365833Y-153003285D01*
X250403928Y-153155666D01*
X250403928Y-153346142D01*
X250365833Y-153498523D01*
X250327738Y-153574714D01*
X250289642Y-153612809D01*
X250213452Y-153650904D01*
X250137261Y-153650904D01*
X250061071Y-153612809D01*
X250022976Y-153574714D01*
X249984880Y-153498523D01*
X249946785Y-153346142D01*
X249946785Y-153155666D01*
X249984880Y-153003285D01*
X250022976Y-152927095D01*
X250061071Y-152889000D01*
X250137261Y-152850904D01*
X250899166Y-152850904D02*
X250975357Y-152850904D01*
X251051547Y-152889000D01*
X251089642Y-152927095D01*
X251127738Y-153003285D01*
X251165833Y-153155666D01*
X251165833Y-153346142D01*
X251127738Y-153498523D01*
X251089642Y-153574714D01*
X251051547Y-153612809D01*
X250975357Y-153650904D01*
X250899166Y-153650904D01*
X250822976Y-153612809D01*
X250784880Y-153574714D01*
X250746785Y-153498523D01*
X250708690Y-153346142D01*
X250708690Y-153155666D01*
X250746785Y-153003285D01*
X250784880Y-152927095D01*
X250822976Y-152889000D01*
X250899166Y-152850904D01*
X251661071Y-152850904D02*
X251737261Y-152850904D01*
X251813452Y-152889000D01*
X251851547Y-152927095D01*
X251889642Y-153003285D01*
X251927738Y-153155666D01*
X251927738Y-153346142D01*
X251889642Y-153498523D01*
X251851547Y-153574714D01*
X251813452Y-153612809D01*
X251737261Y-153650904D01*
X251661071Y-153650904D01*
X251584880Y-153612809D01*
X251546785Y-153574714D01*
X251508690Y-153498523D01*
X251470595Y-153346142D01*
X251470595Y-153155666D01*
X251508690Y-153003285D01*
X251546785Y-152927095D01*
X251584880Y-152889000D01*
X251661071Y-152850904D01*
X252422976Y-152850904D02*
X252499166Y-152850904D01*
X252575357Y-152889000D01*
X252613452Y-152927095D01*
X252651547Y-153003285D01*
X252689642Y-153155666D01*
X252689642Y-153346142D01*
X252651547Y-153498523D01*
X252613452Y-153574714D01*
X252575357Y-153612809D01*
X252499166Y-153650904D01*
X252422976Y-153650904D01*
X252346785Y-153612809D01*
X252308690Y-153574714D01*
X252270595Y-153498523D01*
X252232500Y-153346142D01*
X252232500Y-153155666D01*
X252270595Y-153003285D01*
X252308690Y-152927095D01*
X252346785Y-152889000D01*
X252422976Y-152850904D01*
X253184880Y-152850904D02*
X253261071Y-152850904D01*
X253337261Y-152889000D01*
X253375357Y-152927095D01*
X253413452Y-153003285D01*
X253451547Y-153155666D01*
X253451547Y-153346142D01*
X253413452Y-153498523D01*
X253375357Y-153574714D01*
X253337261Y-153612809D01*
X253261071Y-153650904D01*
X253184880Y-153650904D01*
X253108690Y-153612809D01*
X253070595Y-153574714D01*
X253032500Y-153498523D01*
X252994404Y-153346142D01*
X252994404Y-153155666D01*
X253032500Y-153003285D01*
X253070595Y-152927095D01*
X253108690Y-152889000D01*
X253184880Y-152850904D01*
X253946785Y-152850904D02*
X254022976Y-152850904D01*
X254099166Y-152889000D01*
X254137261Y-152927095D01*
X254175357Y-153003285D01*
X254213452Y-153155666D01*
X254213452Y-153346142D01*
X254175357Y-153498523D01*
X254137261Y-153574714D01*
X254099166Y-153612809D01*
X254022976Y-153650904D01*
X253946785Y-153650904D01*
X253870595Y-153612809D01*
X253832500Y-153574714D01*
X253794404Y-153498523D01*
X253756309Y-153346142D01*
X253756309Y-153155666D01*
X253794404Y-153003285D01*
X253832500Y-152927095D01*
X253870595Y-152889000D01*
X253946785Y-152850904D01*
X254708690Y-152850904D02*
X254784880Y-152850904D01*
X254861071Y-152889000D01*
X254899166Y-152927095D01*
X254937261Y-153003285D01*
X254975357Y-153155666D01*
X254975357Y-153346142D01*
X254937261Y-153498523D01*
X254899166Y-153574714D01*
X254861071Y-153612809D01*
X254784880Y-153650904D01*
X254708690Y-153650904D01*
X254632500Y-153612809D01*
X254594404Y-153574714D01*
X254556309Y-153498523D01*
X254518214Y-153346142D01*
X254518214Y-153155666D01*
X254556309Y-153003285D01*
X254594404Y-152927095D01*
X254632500Y-152889000D01*
X254708690Y-152850904D01*
X255470595Y-152850904D02*
X255546785Y-152850904D01*
X255622976Y-152889000D01*
X255661071Y-152927095D01*
X255699166Y-153003285D01*
X255737261Y-153155666D01*
X255737261Y-153346142D01*
X255699166Y-153498523D01*
X255661071Y-153574714D01*
X255622976Y-153612809D01*
X255546785Y-153650904D01*
X255470595Y-153650904D01*
X255394404Y-153612809D01*
X255356309Y-153574714D01*
X255318214Y-153498523D01*
X255280119Y-153346142D01*
X255280119Y-153155666D01*
X255318214Y-153003285D01*
X255356309Y-152927095D01*
X255394404Y-152889000D01*
X255470595Y-152850904D01*
X256232500Y-152850904D02*
X256308690Y-152850904D01*
X256384880Y-152889000D01*
X256422976Y-152927095D01*
X256461071Y-153003285D01*
X256499166Y-153155666D01*
X256499166Y-153346142D01*
X256461071Y-153498523D01*
X256422976Y-153574714D01*
X256384880Y-153612809D01*
X256308690Y-153650904D01*
X256232500Y-153650904D01*
X256156309Y-153612809D01*
X256118214Y-153574714D01*
X256080119Y-153498523D01*
X256042023Y-153346142D01*
X256042023Y-153155666D01*
X256080119Y-153003285D01*
X256118214Y-152927095D01*
X256156309Y-152889000D01*
X256232500Y-152850904D01*
X256994404Y-152850904D02*
X257070595Y-152850904D01*
X257146785Y-152889000D01*
X257184880Y-152927095D01*
X257222976Y-153003285D01*
X257261071Y-153155666D01*
X257261071Y-153346142D01*
X257222976Y-153498523D01*
X257184880Y-153574714D01*
X257146785Y-153612809D01*
X257070595Y-153650904D01*
X256994404Y-153650904D01*
X256918214Y-153612809D01*
X256880119Y-153574714D01*
X256842023Y-153498523D01*
X256803928Y-153346142D01*
X256803928Y-153155666D01*
X256842023Y-153003285D01*
X256880119Y-152927095D01*
X256918214Y-152889000D01*
X256994404Y-152850904D01*
X257756309Y-152850904D02*
X257832500Y-152850904D01*
X257908690Y-152889000D01*
X257946785Y-152927095D01*
X257984880Y-153003285D01*
X258022976Y-153155666D01*
X258022976Y-153346142D01*
X257984880Y-153498523D01*
X257946785Y-153574714D01*
X257908690Y-153612809D01*
X257832500Y-153650904D01*
X257756309Y-153650904D01*
X257680119Y-153612809D01*
X257642023Y-153574714D01*
X257603928Y-153498523D01*
X257565833Y-153346142D01*
X257565833Y-153155666D01*
X257603928Y-153003285D01*
X257642023Y-152927095D01*
X257680119Y-152889000D01*
X257756309Y-152850904D01*
X258518214Y-152850904D02*
X258594404Y-152850904D01*
X258670595Y-152889000D01*
X258708690Y-152927095D01*
X258746785Y-153003285D01*
X258784880Y-153155666D01*
X258784880Y-153346142D01*
X258746785Y-153498523D01*
X258708690Y-153574714D01*
X258670595Y-153612809D01*
X258594404Y-153650904D01*
X258518214Y-153650904D01*
X258442023Y-153612809D01*
X258403928Y-153574714D01*
X258365833Y-153498523D01*
X258327738Y-153346142D01*
X258327738Y-153155666D01*
X258365833Y-153003285D01*
X258403928Y-152927095D01*
X258442023Y-152889000D01*
X258518214Y-152850904D01*
X259280119Y-152850904D02*
X259356309Y-152850904D01*
X259432500Y-152889000D01*
X259470595Y-152927095D01*
X259508690Y-153003285D01*
X259546785Y-153155666D01*
X259546785Y-153346142D01*
X259508690Y-153498523D01*
X259470595Y-153574714D01*
X259432500Y-153612809D01*
X259356309Y-153650904D01*
X259280119Y-153650904D01*
X259203928Y-153612809D01*
X259165833Y-153574714D01*
X259127738Y-153498523D01*
X259089642Y-153346142D01*
X259089642Y-153155666D01*
X259127738Y-153003285D01*
X259165833Y-152927095D01*
X259203928Y-152889000D01*
X259280119Y-152850904D01*
X260042023Y-152850904D02*
X260118214Y-152850904D01*
X260194404Y-152889000D01*
X260232500Y-152927095D01*
X260270595Y-153003285D01*
X260308690Y-153155666D01*
X260308690Y-153346142D01*
X260270595Y-153498523D01*
X260232500Y-153574714D01*
X260194404Y-153612809D01*
X260118214Y-153650904D01*
X260042023Y-153650904D01*
X259965833Y-153612809D01*
X259927738Y-153574714D01*
X259889642Y-153498523D01*
X259851547Y-153346142D01*
X259851547Y-153155666D01*
X259889642Y-153003285D01*
X259927738Y-152927095D01*
X259965833Y-152889000D01*
X260042023Y-152850904D01*
X260803928Y-152850904D02*
X260880119Y-152850904D01*
X260956309Y-152889000D01*
X260994404Y-152927095D01*
X261032500Y-153003285D01*
X261070595Y-153155666D01*
X261070595Y-153346142D01*
X261032500Y-153498523D01*
X260994404Y-153574714D01*
X260956309Y-153612809D01*
X260880119Y-153650904D01*
X260803928Y-153650904D01*
X260727738Y-153612809D01*
X260689642Y-153574714D01*
X260651547Y-153498523D01*
X260613452Y-153346142D01*
X260613452Y-153155666D01*
X260651547Y-153003285D01*
X260689642Y-152927095D01*
X260727738Y-152889000D01*
X260803928Y-152850904D01*
D14*
X258635500Y-148717000D02*
G75*
G03*
X258635500Y-148717000I-127000J0D01*
G01*
D10*
X248666000Y-149225000D02*
X261366000Y-149225000D01*
X261366000Y-149225000D02*
X261366000Y-159709000D01*
X248666000Y-159639000D02*
X248666000Y-149225000D01*
D13*
X249921476Y-147523357D02*
X250531000Y-147523357D01*
X250531000Y-147751928D02*
X249921476Y-147751928D01*
X250835761Y-147142404D02*
X251331000Y-147142404D01*
X251064333Y-147447166D01*
X251178619Y-147447166D01*
X251254809Y-147485261D01*
X251292904Y-147523357D01*
X251331000Y-147599547D01*
X251331000Y-147790023D01*
X251292904Y-147866214D01*
X251254809Y-147904309D01*
X251178619Y-147942404D01*
X250950047Y-147942404D01*
X250873857Y-147904309D01*
X250835761Y-147866214D01*
X251635761Y-147218595D02*
X251673857Y-147180500D01*
X251750047Y-147142404D01*
X251940523Y-147142404D01*
X252016714Y-147180500D01*
X252054809Y-147218595D01*
X252092904Y-147294785D01*
X252092904Y-147370976D01*
X252054809Y-147485261D01*
X251597666Y-147942404D01*
X252092904Y-147942404D01*
X252435761Y-147942404D02*
X252435761Y-147142404D01*
X252892904Y-147942404D02*
X252550047Y-147485261D01*
X252892904Y-147142404D02*
X252435761Y-147599547D01*
X254302428Y-147942404D02*
X254035761Y-147561452D01*
X253845285Y-147942404D02*
X253845285Y-147142404D01*
X254150047Y-147142404D01*
X254226238Y-147180500D01*
X254264333Y-147218595D01*
X254302428Y-147294785D01*
X254302428Y-147409071D01*
X254264333Y-147485261D01*
X254226238Y-147523357D01*
X254150047Y-147561452D01*
X253845285Y-147561452D01*
X254797666Y-147142404D02*
X254950047Y-147142404D01*
X255026238Y-147180500D01*
X255102428Y-147256690D01*
X255140523Y-147409071D01*
X255140523Y-147675738D01*
X255102428Y-147828119D01*
X255026238Y-147904309D01*
X254950047Y-147942404D01*
X254797666Y-147942404D01*
X254721476Y-147904309D01*
X254645285Y-147828119D01*
X254607190Y-147675738D01*
X254607190Y-147409071D01*
X254645285Y-147256690D01*
X254721476Y-147180500D01*
X254797666Y-147142404D01*
X255483380Y-147942404D02*
X255483380Y-147142404D01*
X255750047Y-147713833D01*
X256016714Y-147142404D01*
X256016714Y-147942404D01*
X256969095Y-147904309D02*
X257083380Y-147942404D01*
X257273857Y-147942404D01*
X257350047Y-147904309D01*
X257388142Y-147866214D01*
X257426238Y-147790023D01*
X257426238Y-147713833D01*
X257388142Y-147637642D01*
X257350047Y-147599547D01*
X257273857Y-147561452D01*
X257121476Y-147523357D01*
X257045285Y-147485261D01*
X257007190Y-147447166D01*
X256969095Y-147370976D01*
X256969095Y-147294785D01*
X257007190Y-147218595D01*
X257045285Y-147180500D01*
X257121476Y-147142404D01*
X257311952Y-147142404D01*
X257426238Y-147180500D01*
X258111952Y-147409071D02*
X258111952Y-147942404D01*
X257769095Y-147409071D02*
X257769095Y-147828119D01*
X257807190Y-147904309D01*
X257883380Y-147942404D01*
X257997666Y-147942404D01*
X258073857Y-147904309D01*
X258111952Y-147866214D01*
X258492904Y-147409071D02*
X258492904Y-148209071D01*
X258492904Y-147447166D02*
X258569095Y-147409071D01*
X258721476Y-147409071D01*
X258797666Y-147447166D01*
X258835761Y-147485261D01*
X258873857Y-147561452D01*
X258873857Y-147790023D01*
X258835761Y-147866214D01*
X258797666Y-147904309D01*
X258721476Y-147942404D01*
X258569095Y-147942404D01*
X258492904Y-147904309D01*
X259216714Y-147409071D02*
X259216714Y-148209071D01*
X259216714Y-147447166D02*
X259292904Y-147409071D01*
X259445285Y-147409071D01*
X259521476Y-147447166D01*
X259559571Y-147485261D01*
X259597666Y-147561452D01*
X259597666Y-147790023D01*
X259559571Y-147866214D01*
X259521476Y-147904309D01*
X259445285Y-147942404D01*
X259292904Y-147942404D01*
X259216714Y-147904309D01*
X260054809Y-147942404D02*
X259978619Y-147904309D01*
X259940523Y-147866214D01*
X259902428Y-147790023D01*
X259902428Y-147561452D01*
X259940523Y-147485261D01*
X259978619Y-147447166D01*
X260054809Y-147409071D01*
X260169095Y-147409071D01*
X260245285Y-147447166D01*
X260283380Y-147485261D01*
X260321476Y-147561452D01*
X260321476Y-147790023D01*
X260283380Y-147866214D01*
X260245285Y-147904309D01*
X260169095Y-147942404D01*
X260054809Y-147942404D01*
X260664333Y-147942404D02*
X260664333Y-147409071D01*
X260664333Y-147561452D02*
X260702428Y-147485261D01*
X260740523Y-147447166D01*
X260816714Y-147409071D01*
X260892904Y-147409071D01*
X261045285Y-147409071D02*
X261350047Y-147409071D01*
X261159571Y-147142404D02*
X261159571Y-147828119D01*
X261197666Y-147904309D01*
X261273857Y-147942404D01*
X261350047Y-147942404D01*
X248245023Y-155251904D02*
X247787880Y-155251904D01*
X248016452Y-155251904D02*
X248016452Y-154451904D01*
X247940261Y-154566190D01*
X247864071Y-154642380D01*
X247787880Y-154680476D01*
X249349785Y-154451904D02*
X249425976Y-154451904D01*
X249502166Y-154490000D01*
X249540261Y-154528095D01*
X249578357Y-154604285D01*
X249616452Y-154756666D01*
X249616452Y-154947142D01*
X249578357Y-155099523D01*
X249540261Y-155175714D01*
X249502166Y-155213809D01*
X249425976Y-155251904D01*
X249349785Y-155251904D01*
X249273595Y-155213809D01*
X249235500Y-155175714D01*
X249197404Y-155099523D01*
X249159309Y-154947142D01*
X249159309Y-154756666D01*
X249197404Y-154604285D01*
X249235500Y-154528095D01*
X249273595Y-154490000D01*
X249349785Y-154451904D01*
X250111690Y-154451904D02*
X250187880Y-154451904D01*
X250264071Y-154490000D01*
X250302166Y-154528095D01*
X250340261Y-154604285D01*
X250378357Y-154756666D01*
X250378357Y-154947142D01*
X250340261Y-155099523D01*
X250302166Y-155175714D01*
X250264071Y-155213809D01*
X250187880Y-155251904D01*
X250111690Y-155251904D01*
X250035500Y-155213809D01*
X249997404Y-155175714D01*
X249959309Y-155099523D01*
X249921214Y-154947142D01*
X249921214Y-154756666D01*
X249959309Y-154604285D01*
X249997404Y-154528095D01*
X250035500Y-154490000D01*
X250111690Y-154451904D01*
X250873595Y-154451904D02*
X250949785Y-154451904D01*
X251025976Y-154490000D01*
X251064071Y-154528095D01*
X251102166Y-154604285D01*
X251140261Y-154756666D01*
X251140261Y-154947142D01*
X251102166Y-155099523D01*
X251064071Y-155175714D01*
X251025976Y-155213809D01*
X250949785Y-155251904D01*
X250873595Y-155251904D01*
X250797404Y-155213809D01*
X250759309Y-155175714D01*
X250721214Y-155099523D01*
X250683119Y-154947142D01*
X250683119Y-154756666D01*
X250721214Y-154604285D01*
X250759309Y-154528095D01*
X250797404Y-154490000D01*
X250873595Y-154451904D01*
X251635500Y-154451904D02*
X251711690Y-154451904D01*
X251787880Y-154490000D01*
X251825976Y-154528095D01*
X251864071Y-154604285D01*
X251902166Y-154756666D01*
X251902166Y-154947142D01*
X251864071Y-155099523D01*
X251825976Y-155175714D01*
X251787880Y-155213809D01*
X251711690Y-155251904D01*
X251635500Y-155251904D01*
X251559309Y-155213809D01*
X251521214Y-155175714D01*
X251483119Y-155099523D01*
X251445023Y-154947142D01*
X251445023Y-154756666D01*
X251483119Y-154604285D01*
X251521214Y-154528095D01*
X251559309Y-154490000D01*
X251635500Y-154451904D01*
X252397404Y-154451904D02*
X252473595Y-154451904D01*
X252549785Y-154490000D01*
X252587880Y-154528095D01*
X252625976Y-154604285D01*
X252664071Y-154756666D01*
X252664071Y-154947142D01*
X252625976Y-155099523D01*
X252587880Y-155175714D01*
X252549785Y-155213809D01*
X252473595Y-155251904D01*
X252397404Y-155251904D01*
X252321214Y-155213809D01*
X252283119Y-155175714D01*
X252245023Y-155099523D01*
X252206928Y-154947142D01*
X252206928Y-154756666D01*
X252245023Y-154604285D01*
X252283119Y-154528095D01*
X252321214Y-154490000D01*
X252397404Y-154451904D01*
X253159309Y-154451904D02*
X253235500Y-154451904D01*
X253311690Y-154490000D01*
X253349785Y-154528095D01*
X253387880Y-154604285D01*
X253425976Y-154756666D01*
X253425976Y-154947142D01*
X253387880Y-155099523D01*
X253349785Y-155175714D01*
X253311690Y-155213809D01*
X253235500Y-155251904D01*
X253159309Y-155251904D01*
X253083119Y-155213809D01*
X253045023Y-155175714D01*
X253006928Y-155099523D01*
X252968833Y-154947142D01*
X252968833Y-154756666D01*
X253006928Y-154604285D01*
X253045023Y-154528095D01*
X253083119Y-154490000D01*
X253159309Y-154451904D01*
X253921214Y-154451904D02*
X253997404Y-154451904D01*
X254073595Y-154490000D01*
X254111690Y-154528095D01*
X254149785Y-154604285D01*
X254187880Y-154756666D01*
X254187880Y-154947142D01*
X254149785Y-155099523D01*
X254111690Y-155175714D01*
X254073595Y-155213809D01*
X253997404Y-155251904D01*
X253921214Y-155251904D01*
X253845023Y-155213809D01*
X253806928Y-155175714D01*
X253768833Y-155099523D01*
X253730738Y-154947142D01*
X253730738Y-154756666D01*
X253768833Y-154604285D01*
X253806928Y-154528095D01*
X253845023Y-154490000D01*
X253921214Y-154451904D01*
X254683119Y-154451904D02*
X254759309Y-154451904D01*
X254835500Y-154490000D01*
X254873595Y-154528095D01*
X254911690Y-154604285D01*
X254949785Y-154756666D01*
X254949785Y-154947142D01*
X254911690Y-155099523D01*
X254873595Y-155175714D01*
X254835500Y-155213809D01*
X254759309Y-155251904D01*
X254683119Y-155251904D01*
X254606928Y-155213809D01*
X254568833Y-155175714D01*
X254530738Y-155099523D01*
X254492642Y-154947142D01*
X254492642Y-154756666D01*
X254530738Y-154604285D01*
X254568833Y-154528095D01*
X254606928Y-154490000D01*
X254683119Y-154451904D01*
X255711690Y-155251904D02*
X255254547Y-155251904D01*
X255483119Y-155251904D02*
X255483119Y-154451904D01*
X255406928Y-154566190D01*
X255330738Y-154642380D01*
X255254547Y-154680476D01*
X256473595Y-155251904D02*
X256016452Y-155251904D01*
X256245023Y-155251904D02*
X256245023Y-154451904D01*
X256168833Y-154566190D01*
X256092642Y-154642380D01*
X256016452Y-154680476D01*
X257235500Y-155251904D02*
X256778357Y-155251904D01*
X257006928Y-155251904D02*
X257006928Y-154451904D01*
X256930738Y-154566190D01*
X256854547Y-154642380D01*
X256778357Y-154680476D01*
X257997404Y-155251904D02*
X257540261Y-155251904D01*
X257768833Y-155251904D02*
X257768833Y-154451904D01*
X257692642Y-154566190D01*
X257616452Y-154642380D01*
X257540261Y-154680476D01*
X258759309Y-155251904D02*
X258302166Y-155251904D01*
X258530738Y-155251904D02*
X258530738Y-154451904D01*
X258454547Y-154566190D01*
X258378357Y-154642380D01*
X258302166Y-154680476D01*
X259521214Y-155251904D02*
X259064071Y-155251904D01*
X259292642Y-155251904D02*
X259292642Y-154451904D01*
X259216452Y-154566190D01*
X259140261Y-154642380D01*
X259064071Y-154680476D01*
X260283119Y-155251904D02*
X259825976Y-155251904D01*
X260054547Y-155251904D02*
X260054547Y-154451904D01*
X259978357Y-154566190D01*
X259902166Y-154642380D01*
X259825976Y-154680476D01*
X261045023Y-155251904D02*
X260587880Y-155251904D01*
X260816452Y-155251904D02*
X260816452Y-154451904D01*
X260740261Y-154566190D01*
X260664071Y-154642380D01*
X260587880Y-154680476D01*
X247787880Y-155878095D02*
X247825976Y-155840000D01*
X247902166Y-155801904D01*
X248092642Y-155801904D01*
X248168833Y-155840000D01*
X248206928Y-155878095D01*
X248245023Y-155954285D01*
X248245023Y-156030476D01*
X248206928Y-156144761D01*
X247749785Y-156601904D01*
X248245023Y-156601904D01*
X249349785Y-155801904D02*
X249425976Y-155801904D01*
X249502166Y-155840000D01*
X249540261Y-155878095D01*
X249578357Y-155954285D01*
X249616452Y-156106666D01*
X249616452Y-156297142D01*
X249578357Y-156449523D01*
X249540261Y-156525714D01*
X249502166Y-156563809D01*
X249425976Y-156601904D01*
X249349785Y-156601904D01*
X249273595Y-156563809D01*
X249235500Y-156525714D01*
X249197404Y-156449523D01*
X249159309Y-156297142D01*
X249159309Y-156106666D01*
X249197404Y-155954285D01*
X249235500Y-155878095D01*
X249273595Y-155840000D01*
X249349785Y-155801904D01*
X250111690Y-155801904D02*
X250187880Y-155801904D01*
X250264071Y-155840000D01*
X250302166Y-155878095D01*
X250340261Y-155954285D01*
X250378357Y-156106666D01*
X250378357Y-156297142D01*
X250340261Y-156449523D01*
X250302166Y-156525714D01*
X250264071Y-156563809D01*
X250187880Y-156601904D01*
X250111690Y-156601904D01*
X250035500Y-156563809D01*
X249997404Y-156525714D01*
X249959309Y-156449523D01*
X249921214Y-156297142D01*
X249921214Y-156106666D01*
X249959309Y-155954285D01*
X249997404Y-155878095D01*
X250035500Y-155840000D01*
X250111690Y-155801904D01*
X250873595Y-155801904D02*
X250949785Y-155801904D01*
X251025976Y-155840000D01*
X251064071Y-155878095D01*
X251102166Y-155954285D01*
X251140261Y-156106666D01*
X251140261Y-156297142D01*
X251102166Y-156449523D01*
X251064071Y-156525714D01*
X251025976Y-156563809D01*
X250949785Y-156601904D01*
X250873595Y-156601904D01*
X250797404Y-156563809D01*
X250759309Y-156525714D01*
X250721214Y-156449523D01*
X250683119Y-156297142D01*
X250683119Y-156106666D01*
X250721214Y-155954285D01*
X250759309Y-155878095D01*
X250797404Y-155840000D01*
X250873595Y-155801904D01*
X251635500Y-155801904D02*
X251711690Y-155801904D01*
X251787880Y-155840000D01*
X251825976Y-155878095D01*
X251864071Y-155954285D01*
X251902166Y-156106666D01*
X251902166Y-156297142D01*
X251864071Y-156449523D01*
X251825976Y-156525714D01*
X251787880Y-156563809D01*
X251711690Y-156601904D01*
X251635500Y-156601904D01*
X251559309Y-156563809D01*
X251521214Y-156525714D01*
X251483119Y-156449523D01*
X251445023Y-156297142D01*
X251445023Y-156106666D01*
X251483119Y-155954285D01*
X251521214Y-155878095D01*
X251559309Y-155840000D01*
X251635500Y-155801904D01*
X252664071Y-156601904D02*
X252206928Y-156601904D01*
X252435500Y-156601904D02*
X252435500Y-155801904D01*
X252359309Y-155916190D01*
X252283119Y-155992380D01*
X252206928Y-156030476D01*
X253425976Y-156601904D02*
X252968833Y-156601904D01*
X253197404Y-156601904D02*
X253197404Y-155801904D01*
X253121214Y-155916190D01*
X253045023Y-155992380D01*
X252968833Y-156030476D01*
X254187880Y-156601904D02*
X253730738Y-156601904D01*
X253959309Y-156601904D02*
X253959309Y-155801904D01*
X253883119Y-155916190D01*
X253806928Y-155992380D01*
X253730738Y-156030476D01*
X254949785Y-156601904D02*
X254492642Y-156601904D01*
X254721214Y-156601904D02*
X254721214Y-155801904D01*
X254645023Y-155916190D01*
X254568833Y-155992380D01*
X254492642Y-156030476D01*
X255445023Y-155801904D02*
X255521214Y-155801904D01*
X255597404Y-155840000D01*
X255635500Y-155878095D01*
X255673595Y-155954285D01*
X255711690Y-156106666D01*
X255711690Y-156297142D01*
X255673595Y-156449523D01*
X255635500Y-156525714D01*
X255597404Y-156563809D01*
X255521214Y-156601904D01*
X255445023Y-156601904D01*
X255368833Y-156563809D01*
X255330738Y-156525714D01*
X255292642Y-156449523D01*
X255254547Y-156297142D01*
X255254547Y-156106666D01*
X255292642Y-155954285D01*
X255330738Y-155878095D01*
X255368833Y-155840000D01*
X255445023Y-155801904D01*
X256206928Y-155801904D02*
X256283119Y-155801904D01*
X256359309Y-155840000D01*
X256397404Y-155878095D01*
X256435500Y-155954285D01*
X256473595Y-156106666D01*
X256473595Y-156297142D01*
X256435500Y-156449523D01*
X256397404Y-156525714D01*
X256359309Y-156563809D01*
X256283119Y-156601904D01*
X256206928Y-156601904D01*
X256130738Y-156563809D01*
X256092642Y-156525714D01*
X256054547Y-156449523D01*
X256016452Y-156297142D01*
X256016452Y-156106666D01*
X256054547Y-155954285D01*
X256092642Y-155878095D01*
X256130738Y-155840000D01*
X256206928Y-155801904D01*
X256968833Y-155801904D02*
X257045023Y-155801904D01*
X257121214Y-155840000D01*
X257159309Y-155878095D01*
X257197404Y-155954285D01*
X257235500Y-156106666D01*
X257235500Y-156297142D01*
X257197404Y-156449523D01*
X257159309Y-156525714D01*
X257121214Y-156563809D01*
X257045023Y-156601904D01*
X256968833Y-156601904D01*
X256892642Y-156563809D01*
X256854547Y-156525714D01*
X256816452Y-156449523D01*
X256778357Y-156297142D01*
X256778357Y-156106666D01*
X256816452Y-155954285D01*
X256854547Y-155878095D01*
X256892642Y-155840000D01*
X256968833Y-155801904D01*
X257730738Y-155801904D02*
X257806928Y-155801904D01*
X257883119Y-155840000D01*
X257921214Y-155878095D01*
X257959309Y-155954285D01*
X257997404Y-156106666D01*
X257997404Y-156297142D01*
X257959309Y-156449523D01*
X257921214Y-156525714D01*
X257883119Y-156563809D01*
X257806928Y-156601904D01*
X257730738Y-156601904D01*
X257654547Y-156563809D01*
X257616452Y-156525714D01*
X257578357Y-156449523D01*
X257540261Y-156297142D01*
X257540261Y-156106666D01*
X257578357Y-155954285D01*
X257616452Y-155878095D01*
X257654547Y-155840000D01*
X257730738Y-155801904D01*
X258759309Y-156601904D02*
X258302166Y-156601904D01*
X258530738Y-156601904D02*
X258530738Y-155801904D01*
X258454547Y-155916190D01*
X258378357Y-155992380D01*
X258302166Y-156030476D01*
X259521214Y-156601904D02*
X259064071Y-156601904D01*
X259292642Y-156601904D02*
X259292642Y-155801904D01*
X259216452Y-155916190D01*
X259140261Y-155992380D01*
X259064071Y-156030476D01*
X260283119Y-156601904D02*
X259825976Y-156601904D01*
X260054547Y-156601904D02*
X260054547Y-155801904D01*
X259978357Y-155916190D01*
X259902166Y-155992380D01*
X259825976Y-156030476D01*
X261045023Y-156601904D02*
X260587880Y-156601904D01*
X260816452Y-156601904D02*
X260816452Y-155801904D01*
X260740261Y-155916190D01*
X260664071Y-155992380D01*
X260587880Y-156030476D01*
X247749785Y-157151904D02*
X248245023Y-157151904D01*
X247978357Y-157456666D01*
X248092642Y-157456666D01*
X248168833Y-157494761D01*
X248206928Y-157532857D01*
X248245023Y-157609047D01*
X248245023Y-157799523D01*
X248206928Y-157875714D01*
X248168833Y-157913809D01*
X248092642Y-157951904D01*
X247864071Y-157951904D01*
X247787880Y-157913809D01*
X247749785Y-157875714D01*
X249349785Y-157151904D02*
X249425976Y-157151904D01*
X249502166Y-157190000D01*
X249540261Y-157228095D01*
X249578357Y-157304285D01*
X249616452Y-157456666D01*
X249616452Y-157647142D01*
X249578357Y-157799523D01*
X249540261Y-157875714D01*
X249502166Y-157913809D01*
X249425976Y-157951904D01*
X249349785Y-157951904D01*
X249273595Y-157913809D01*
X249235500Y-157875714D01*
X249197404Y-157799523D01*
X249159309Y-157647142D01*
X249159309Y-157456666D01*
X249197404Y-157304285D01*
X249235500Y-157228095D01*
X249273595Y-157190000D01*
X249349785Y-157151904D01*
X250111690Y-157151904D02*
X250187880Y-157151904D01*
X250264071Y-157190000D01*
X250302166Y-157228095D01*
X250340261Y-157304285D01*
X250378357Y-157456666D01*
X250378357Y-157647142D01*
X250340261Y-157799523D01*
X250302166Y-157875714D01*
X250264071Y-157913809D01*
X250187880Y-157951904D01*
X250111690Y-157951904D01*
X250035500Y-157913809D01*
X249997404Y-157875714D01*
X249959309Y-157799523D01*
X249921214Y-157647142D01*
X249921214Y-157456666D01*
X249959309Y-157304285D01*
X249997404Y-157228095D01*
X250035500Y-157190000D01*
X250111690Y-157151904D01*
X251140261Y-157951904D02*
X250683119Y-157951904D01*
X250911690Y-157951904D02*
X250911690Y-157151904D01*
X250835500Y-157266190D01*
X250759309Y-157342380D01*
X250683119Y-157380476D01*
X251902166Y-157951904D02*
X251445023Y-157951904D01*
X251673595Y-157951904D02*
X251673595Y-157151904D01*
X251597404Y-157266190D01*
X251521214Y-157342380D01*
X251445023Y-157380476D01*
X252397404Y-157151904D02*
X252473595Y-157151904D01*
X252549785Y-157190000D01*
X252587880Y-157228095D01*
X252625976Y-157304285D01*
X252664071Y-157456666D01*
X252664071Y-157647142D01*
X252625976Y-157799523D01*
X252587880Y-157875714D01*
X252549785Y-157913809D01*
X252473595Y-157951904D01*
X252397404Y-157951904D01*
X252321214Y-157913809D01*
X252283119Y-157875714D01*
X252245023Y-157799523D01*
X252206928Y-157647142D01*
X252206928Y-157456666D01*
X252245023Y-157304285D01*
X252283119Y-157228095D01*
X252321214Y-157190000D01*
X252397404Y-157151904D01*
X253159309Y-157151904D02*
X253235500Y-157151904D01*
X253311690Y-157190000D01*
X253349785Y-157228095D01*
X253387880Y-157304285D01*
X253425976Y-157456666D01*
X253425976Y-157647142D01*
X253387880Y-157799523D01*
X253349785Y-157875714D01*
X253311690Y-157913809D01*
X253235500Y-157951904D01*
X253159309Y-157951904D01*
X253083119Y-157913809D01*
X253045023Y-157875714D01*
X253006928Y-157799523D01*
X252968833Y-157647142D01*
X252968833Y-157456666D01*
X253006928Y-157304285D01*
X253045023Y-157228095D01*
X253083119Y-157190000D01*
X253159309Y-157151904D01*
X254187880Y-157951904D02*
X253730738Y-157951904D01*
X253959309Y-157951904D02*
X253959309Y-157151904D01*
X253883119Y-157266190D01*
X253806928Y-157342380D01*
X253730738Y-157380476D01*
X254949785Y-157951904D02*
X254492642Y-157951904D01*
X254721214Y-157951904D02*
X254721214Y-157151904D01*
X254645023Y-157266190D01*
X254568833Y-157342380D01*
X254492642Y-157380476D01*
X255445023Y-157151904D02*
X255521214Y-157151904D01*
X255597404Y-157190000D01*
X255635500Y-157228095D01*
X255673595Y-157304285D01*
X255711690Y-157456666D01*
X255711690Y-157647142D01*
X255673595Y-157799523D01*
X255635500Y-157875714D01*
X255597404Y-157913809D01*
X255521214Y-157951904D01*
X255445023Y-157951904D01*
X255368833Y-157913809D01*
X255330738Y-157875714D01*
X255292642Y-157799523D01*
X255254547Y-157647142D01*
X255254547Y-157456666D01*
X255292642Y-157304285D01*
X255330738Y-157228095D01*
X255368833Y-157190000D01*
X255445023Y-157151904D01*
X256206928Y-157151904D02*
X256283119Y-157151904D01*
X256359309Y-157190000D01*
X256397404Y-157228095D01*
X256435500Y-157304285D01*
X256473595Y-157456666D01*
X256473595Y-157647142D01*
X256435500Y-157799523D01*
X256397404Y-157875714D01*
X256359309Y-157913809D01*
X256283119Y-157951904D01*
X256206928Y-157951904D01*
X256130738Y-157913809D01*
X256092642Y-157875714D01*
X256054547Y-157799523D01*
X256016452Y-157647142D01*
X256016452Y-157456666D01*
X256054547Y-157304285D01*
X256092642Y-157228095D01*
X256130738Y-157190000D01*
X256206928Y-157151904D01*
X257235500Y-157951904D02*
X256778357Y-157951904D01*
X257006928Y-157951904D02*
X257006928Y-157151904D01*
X256930738Y-157266190D01*
X256854547Y-157342380D01*
X256778357Y-157380476D01*
X257997404Y-157951904D02*
X257540261Y-157951904D01*
X257768833Y-157951904D02*
X257768833Y-157151904D01*
X257692642Y-157266190D01*
X257616452Y-157342380D01*
X257540261Y-157380476D01*
X258492642Y-157151904D02*
X258568833Y-157151904D01*
X258645023Y-157190000D01*
X258683119Y-157228095D01*
X258721214Y-157304285D01*
X258759309Y-157456666D01*
X258759309Y-157647142D01*
X258721214Y-157799523D01*
X258683119Y-157875714D01*
X258645023Y-157913809D01*
X258568833Y-157951904D01*
X258492642Y-157951904D01*
X258416452Y-157913809D01*
X258378357Y-157875714D01*
X258340261Y-157799523D01*
X258302166Y-157647142D01*
X258302166Y-157456666D01*
X258340261Y-157304285D01*
X258378357Y-157228095D01*
X258416452Y-157190000D01*
X258492642Y-157151904D01*
X259254547Y-157151904D02*
X259330738Y-157151904D01*
X259406928Y-157190000D01*
X259445023Y-157228095D01*
X259483119Y-157304285D01*
X259521214Y-157456666D01*
X259521214Y-157647142D01*
X259483119Y-157799523D01*
X259445023Y-157875714D01*
X259406928Y-157913809D01*
X259330738Y-157951904D01*
X259254547Y-157951904D01*
X259178357Y-157913809D01*
X259140261Y-157875714D01*
X259102166Y-157799523D01*
X259064071Y-157647142D01*
X259064071Y-157456666D01*
X259102166Y-157304285D01*
X259140261Y-157228095D01*
X259178357Y-157190000D01*
X259254547Y-157151904D01*
X260283119Y-157951904D02*
X259825976Y-157951904D01*
X260054547Y-157951904D02*
X260054547Y-157151904D01*
X259978357Y-157266190D01*
X259902166Y-157342380D01*
X259825976Y-157380476D01*
X261045023Y-157951904D02*
X260587880Y-157951904D01*
X260816452Y-157951904D02*
X260816452Y-157151904D01*
X260740261Y-157266190D01*
X260664071Y-157342380D01*
X260587880Y-157380476D01*
X248168833Y-158768571D02*
X248168833Y-159301904D01*
X247978357Y-158463809D02*
X247787880Y-159035238D01*
X248283119Y-159035238D01*
X249349785Y-158501904D02*
X249425976Y-158501904D01*
X249502166Y-158540000D01*
X249540261Y-158578095D01*
X249578357Y-158654285D01*
X249616452Y-158806666D01*
X249616452Y-158997142D01*
X249578357Y-159149523D01*
X249540261Y-159225714D01*
X249502166Y-159263809D01*
X249425976Y-159301904D01*
X249349785Y-159301904D01*
X249273595Y-159263809D01*
X249235500Y-159225714D01*
X249197404Y-159149523D01*
X249159309Y-158997142D01*
X249159309Y-158806666D01*
X249197404Y-158654285D01*
X249235500Y-158578095D01*
X249273595Y-158540000D01*
X249349785Y-158501904D01*
X250378357Y-159301904D02*
X249921214Y-159301904D01*
X250149785Y-159301904D02*
X250149785Y-158501904D01*
X250073595Y-158616190D01*
X249997404Y-158692380D01*
X249921214Y-158730476D01*
X250873595Y-158501904D02*
X250949785Y-158501904D01*
X251025976Y-158540000D01*
X251064071Y-158578095D01*
X251102166Y-158654285D01*
X251140261Y-158806666D01*
X251140261Y-158997142D01*
X251102166Y-159149523D01*
X251064071Y-159225714D01*
X251025976Y-159263809D01*
X250949785Y-159301904D01*
X250873595Y-159301904D01*
X250797404Y-159263809D01*
X250759309Y-159225714D01*
X250721214Y-159149523D01*
X250683119Y-158997142D01*
X250683119Y-158806666D01*
X250721214Y-158654285D01*
X250759309Y-158578095D01*
X250797404Y-158540000D01*
X250873595Y-158501904D01*
X251902166Y-159301904D02*
X251445023Y-159301904D01*
X251673595Y-159301904D02*
X251673595Y-158501904D01*
X251597404Y-158616190D01*
X251521214Y-158692380D01*
X251445023Y-158730476D01*
X252397404Y-158501904D02*
X252473595Y-158501904D01*
X252549785Y-158540000D01*
X252587880Y-158578095D01*
X252625976Y-158654285D01*
X252664071Y-158806666D01*
X252664071Y-158997142D01*
X252625976Y-159149523D01*
X252587880Y-159225714D01*
X252549785Y-159263809D01*
X252473595Y-159301904D01*
X252397404Y-159301904D01*
X252321214Y-159263809D01*
X252283119Y-159225714D01*
X252245023Y-159149523D01*
X252206928Y-158997142D01*
X252206928Y-158806666D01*
X252245023Y-158654285D01*
X252283119Y-158578095D01*
X252321214Y-158540000D01*
X252397404Y-158501904D01*
X253425976Y-159301904D02*
X252968833Y-159301904D01*
X253197404Y-159301904D02*
X253197404Y-158501904D01*
X253121214Y-158616190D01*
X253045023Y-158692380D01*
X252968833Y-158730476D01*
X253921214Y-158501904D02*
X253997404Y-158501904D01*
X254073595Y-158540000D01*
X254111690Y-158578095D01*
X254149785Y-158654285D01*
X254187880Y-158806666D01*
X254187880Y-158997142D01*
X254149785Y-159149523D01*
X254111690Y-159225714D01*
X254073595Y-159263809D01*
X253997404Y-159301904D01*
X253921214Y-159301904D01*
X253845023Y-159263809D01*
X253806928Y-159225714D01*
X253768833Y-159149523D01*
X253730738Y-158997142D01*
X253730738Y-158806666D01*
X253768833Y-158654285D01*
X253806928Y-158578095D01*
X253845023Y-158540000D01*
X253921214Y-158501904D01*
X254949785Y-159301904D02*
X254492642Y-159301904D01*
X254721214Y-159301904D02*
X254721214Y-158501904D01*
X254645023Y-158616190D01*
X254568833Y-158692380D01*
X254492642Y-158730476D01*
X255445023Y-158501904D02*
X255521214Y-158501904D01*
X255597404Y-158540000D01*
X255635500Y-158578095D01*
X255673595Y-158654285D01*
X255711690Y-158806666D01*
X255711690Y-158997142D01*
X255673595Y-159149523D01*
X255635500Y-159225714D01*
X255597404Y-159263809D01*
X255521214Y-159301904D01*
X255445023Y-159301904D01*
X255368833Y-159263809D01*
X255330738Y-159225714D01*
X255292642Y-159149523D01*
X255254547Y-158997142D01*
X255254547Y-158806666D01*
X255292642Y-158654285D01*
X255330738Y-158578095D01*
X255368833Y-158540000D01*
X255445023Y-158501904D01*
X256473595Y-159301904D02*
X256016452Y-159301904D01*
X256245023Y-159301904D02*
X256245023Y-158501904D01*
X256168833Y-158616190D01*
X256092642Y-158692380D01*
X256016452Y-158730476D01*
X256968833Y-158501904D02*
X257045023Y-158501904D01*
X257121214Y-158540000D01*
X257159309Y-158578095D01*
X257197404Y-158654285D01*
X257235500Y-158806666D01*
X257235500Y-158997142D01*
X257197404Y-159149523D01*
X257159309Y-159225714D01*
X257121214Y-159263809D01*
X257045023Y-159301904D01*
X256968833Y-159301904D01*
X256892642Y-159263809D01*
X256854547Y-159225714D01*
X256816452Y-159149523D01*
X256778357Y-158997142D01*
X256778357Y-158806666D01*
X256816452Y-158654285D01*
X256854547Y-158578095D01*
X256892642Y-158540000D01*
X256968833Y-158501904D01*
X257997404Y-159301904D02*
X257540261Y-159301904D01*
X257768833Y-159301904D02*
X257768833Y-158501904D01*
X257692642Y-158616190D01*
X257616452Y-158692380D01*
X257540261Y-158730476D01*
X258492642Y-158501904D02*
X258568833Y-158501904D01*
X258645023Y-158540000D01*
X258683119Y-158578095D01*
X258721214Y-158654285D01*
X258759309Y-158806666D01*
X258759309Y-158997142D01*
X258721214Y-159149523D01*
X258683119Y-159225714D01*
X258645023Y-159263809D01*
X258568833Y-159301904D01*
X258492642Y-159301904D01*
X258416452Y-159263809D01*
X258378357Y-159225714D01*
X258340261Y-159149523D01*
X258302166Y-158997142D01*
X258302166Y-158806666D01*
X258340261Y-158654285D01*
X258378357Y-158578095D01*
X258416452Y-158540000D01*
X258492642Y-158501904D01*
X259521214Y-159301904D02*
X259064071Y-159301904D01*
X259292642Y-159301904D02*
X259292642Y-158501904D01*
X259216452Y-158616190D01*
X259140261Y-158692380D01*
X259064071Y-158730476D01*
X260016452Y-158501904D02*
X260092642Y-158501904D01*
X260168833Y-158540000D01*
X260206928Y-158578095D01*
X260245023Y-158654285D01*
X260283119Y-158806666D01*
X260283119Y-158997142D01*
X260245023Y-159149523D01*
X260206928Y-159225714D01*
X260168833Y-159263809D01*
X260092642Y-159301904D01*
X260016452Y-159301904D01*
X259940261Y-159263809D01*
X259902166Y-159225714D01*
X259864071Y-159149523D01*
X259825976Y-158997142D01*
X259825976Y-158806666D01*
X259864071Y-158654285D01*
X259902166Y-158578095D01*
X259940261Y-158540000D01*
X260016452Y-158501904D01*
X261045023Y-159301904D02*
X260587880Y-159301904D01*
X260816452Y-159301904D02*
X260816452Y-158501904D01*
X260740261Y-158616190D01*
X260664071Y-158692380D01*
X260587880Y-158730476D01*
X249375357Y-151777904D02*
X249451547Y-151777904D01*
X249527738Y-151816000D01*
X249565833Y-151854095D01*
X249603928Y-151930285D01*
X249642023Y-152082666D01*
X249642023Y-152273142D01*
X249603928Y-152425523D01*
X249565833Y-152501714D01*
X249527738Y-152539809D01*
X249451547Y-152577904D01*
X249375357Y-152577904D01*
X249299166Y-152539809D01*
X249261071Y-152501714D01*
X249222976Y-152425523D01*
X249184880Y-152273142D01*
X249184880Y-152082666D01*
X249222976Y-151930285D01*
X249261071Y-151854095D01*
X249299166Y-151816000D01*
X249375357Y-151777904D01*
X250137261Y-151777904D02*
X250213452Y-151777904D01*
X250289642Y-151816000D01*
X250327738Y-151854095D01*
X250365833Y-151930285D01*
X250403928Y-152082666D01*
X250403928Y-152273142D01*
X250365833Y-152425523D01*
X250327738Y-152501714D01*
X250289642Y-152539809D01*
X250213452Y-152577904D01*
X250137261Y-152577904D01*
X250061071Y-152539809D01*
X250022976Y-152501714D01*
X249984880Y-152425523D01*
X249946785Y-152273142D01*
X249946785Y-152082666D01*
X249984880Y-151930285D01*
X250022976Y-151854095D01*
X250061071Y-151816000D01*
X250137261Y-151777904D01*
X250899166Y-151777904D02*
X250975357Y-151777904D01*
X251051547Y-151816000D01*
X251089642Y-151854095D01*
X251127738Y-151930285D01*
X251165833Y-152082666D01*
X251165833Y-152273142D01*
X251127738Y-152425523D01*
X251089642Y-152501714D01*
X251051547Y-152539809D01*
X250975357Y-152577904D01*
X250899166Y-152577904D01*
X250822976Y-152539809D01*
X250784880Y-152501714D01*
X250746785Y-152425523D01*
X250708690Y-152273142D01*
X250708690Y-152082666D01*
X250746785Y-151930285D01*
X250784880Y-151854095D01*
X250822976Y-151816000D01*
X250899166Y-151777904D01*
X251661071Y-151777904D02*
X251737261Y-151777904D01*
X251813452Y-151816000D01*
X251851547Y-151854095D01*
X251889642Y-151930285D01*
X251927738Y-152082666D01*
X251927738Y-152273142D01*
X251889642Y-152425523D01*
X251851547Y-152501714D01*
X251813452Y-152539809D01*
X251737261Y-152577904D01*
X251661071Y-152577904D01*
X251584880Y-152539809D01*
X251546785Y-152501714D01*
X251508690Y-152425523D01*
X251470595Y-152273142D01*
X251470595Y-152082666D01*
X251508690Y-151930285D01*
X251546785Y-151854095D01*
X251584880Y-151816000D01*
X251661071Y-151777904D01*
X252422976Y-151777904D02*
X252499166Y-151777904D01*
X252575357Y-151816000D01*
X252613452Y-151854095D01*
X252651547Y-151930285D01*
X252689642Y-152082666D01*
X252689642Y-152273142D01*
X252651547Y-152425523D01*
X252613452Y-152501714D01*
X252575357Y-152539809D01*
X252499166Y-152577904D01*
X252422976Y-152577904D01*
X252346785Y-152539809D01*
X252308690Y-152501714D01*
X252270595Y-152425523D01*
X252232500Y-152273142D01*
X252232500Y-152082666D01*
X252270595Y-151930285D01*
X252308690Y-151854095D01*
X252346785Y-151816000D01*
X252422976Y-151777904D01*
X253184880Y-151777904D02*
X253261071Y-151777904D01*
X253337261Y-151816000D01*
X253375357Y-151854095D01*
X253413452Y-151930285D01*
X253451547Y-152082666D01*
X253451547Y-152273142D01*
X253413452Y-152425523D01*
X253375357Y-152501714D01*
X253337261Y-152539809D01*
X253261071Y-152577904D01*
X253184880Y-152577904D01*
X253108690Y-152539809D01*
X253070595Y-152501714D01*
X253032500Y-152425523D01*
X252994404Y-152273142D01*
X252994404Y-152082666D01*
X253032500Y-151930285D01*
X253070595Y-151854095D01*
X253108690Y-151816000D01*
X253184880Y-151777904D01*
X253946785Y-151777904D02*
X254022976Y-151777904D01*
X254099166Y-151816000D01*
X254137261Y-151854095D01*
X254175357Y-151930285D01*
X254213452Y-152082666D01*
X254213452Y-152273142D01*
X254175357Y-152425523D01*
X254137261Y-152501714D01*
X254099166Y-152539809D01*
X254022976Y-152577904D01*
X253946785Y-152577904D01*
X253870595Y-152539809D01*
X253832500Y-152501714D01*
X253794404Y-152425523D01*
X253756309Y-152273142D01*
X253756309Y-152082666D01*
X253794404Y-151930285D01*
X253832500Y-151854095D01*
X253870595Y-151816000D01*
X253946785Y-151777904D01*
X254708690Y-151777904D02*
X254784880Y-151777904D01*
X254861071Y-151816000D01*
X254899166Y-151854095D01*
X254937261Y-151930285D01*
X254975357Y-152082666D01*
X254975357Y-152273142D01*
X254937261Y-152425523D01*
X254899166Y-152501714D01*
X254861071Y-152539809D01*
X254784880Y-152577904D01*
X254708690Y-152577904D01*
X254632500Y-152539809D01*
X254594404Y-152501714D01*
X254556309Y-152425523D01*
X254518214Y-152273142D01*
X254518214Y-152082666D01*
X254556309Y-151930285D01*
X254594404Y-151854095D01*
X254632500Y-151816000D01*
X254708690Y-151777904D01*
X255470595Y-151777904D02*
X255546785Y-151777904D01*
X255622976Y-151816000D01*
X255661071Y-151854095D01*
X255699166Y-151930285D01*
X255737261Y-152082666D01*
X255737261Y-152273142D01*
X255699166Y-152425523D01*
X255661071Y-152501714D01*
X255622976Y-152539809D01*
X255546785Y-152577904D01*
X255470595Y-152577904D01*
X255394404Y-152539809D01*
X255356309Y-152501714D01*
X255318214Y-152425523D01*
X255280119Y-152273142D01*
X255280119Y-152082666D01*
X255318214Y-151930285D01*
X255356309Y-151854095D01*
X255394404Y-151816000D01*
X255470595Y-151777904D01*
X256232500Y-151777904D02*
X256308690Y-151777904D01*
X256384880Y-151816000D01*
X256422976Y-151854095D01*
X256461071Y-151930285D01*
X256499166Y-152082666D01*
X256499166Y-152273142D01*
X256461071Y-152425523D01*
X256422976Y-152501714D01*
X256384880Y-152539809D01*
X256308690Y-152577904D01*
X256232500Y-152577904D01*
X256156309Y-152539809D01*
X256118214Y-152501714D01*
X256080119Y-152425523D01*
X256042023Y-152273142D01*
X256042023Y-152082666D01*
X256080119Y-151930285D01*
X256118214Y-151854095D01*
X256156309Y-151816000D01*
X256232500Y-151777904D01*
X256994404Y-151777904D02*
X257070595Y-151777904D01*
X257146785Y-151816000D01*
X257184880Y-151854095D01*
X257222976Y-151930285D01*
X257261071Y-152082666D01*
X257261071Y-152273142D01*
X257222976Y-152425523D01*
X257184880Y-152501714D01*
X257146785Y-152539809D01*
X257070595Y-152577904D01*
X256994404Y-152577904D01*
X256918214Y-152539809D01*
X256880119Y-152501714D01*
X256842023Y-152425523D01*
X256803928Y-152273142D01*
X256803928Y-152082666D01*
X256842023Y-151930285D01*
X256880119Y-151854095D01*
X256918214Y-151816000D01*
X256994404Y-151777904D01*
X257756309Y-151777904D02*
X257832500Y-151777904D01*
X257908690Y-151816000D01*
X257946785Y-151854095D01*
X257984880Y-151930285D01*
X258022976Y-152082666D01*
X258022976Y-152273142D01*
X257984880Y-152425523D01*
X257946785Y-152501714D01*
X257908690Y-152539809D01*
X257832500Y-152577904D01*
X257756309Y-152577904D01*
X257680119Y-152539809D01*
X257642023Y-152501714D01*
X257603928Y-152425523D01*
X257565833Y-152273142D01*
X257565833Y-152082666D01*
X257603928Y-151930285D01*
X257642023Y-151854095D01*
X257680119Y-151816000D01*
X257756309Y-151777904D01*
X258518214Y-151777904D02*
X258594404Y-151777904D01*
X258670595Y-151816000D01*
X258708690Y-151854095D01*
X258746785Y-151930285D01*
X258784880Y-152082666D01*
X258784880Y-152273142D01*
X258746785Y-152425523D01*
X258708690Y-152501714D01*
X258670595Y-152539809D01*
X258594404Y-152577904D01*
X258518214Y-152577904D01*
X258442023Y-152539809D01*
X258403928Y-152501714D01*
X258365833Y-152425523D01*
X258327738Y-152273142D01*
X258327738Y-152082666D01*
X258365833Y-151930285D01*
X258403928Y-151854095D01*
X258442023Y-151816000D01*
X258518214Y-151777904D01*
X259280119Y-151777904D02*
X259356309Y-151777904D01*
X259432500Y-151816000D01*
X259470595Y-151854095D01*
X259508690Y-151930285D01*
X259546785Y-152082666D01*
X259546785Y-152273142D01*
X259508690Y-152425523D01*
X259470595Y-152501714D01*
X259432500Y-152539809D01*
X259356309Y-152577904D01*
X259280119Y-152577904D01*
X259203928Y-152539809D01*
X259165833Y-152501714D01*
X259127738Y-152425523D01*
X259089642Y-152273142D01*
X259089642Y-152082666D01*
X259127738Y-151930285D01*
X259165833Y-151854095D01*
X259203928Y-151816000D01*
X259280119Y-151777904D01*
X260042023Y-151777904D02*
X260118214Y-151777904D01*
X260194404Y-151816000D01*
X260232500Y-151854095D01*
X260270595Y-151930285D01*
X260308690Y-152082666D01*
X260308690Y-152273142D01*
X260270595Y-152425523D01*
X260232500Y-152501714D01*
X260194404Y-152539809D01*
X260118214Y-152577904D01*
X260042023Y-152577904D01*
X259965833Y-152539809D01*
X259927738Y-152501714D01*
X259889642Y-152425523D01*
X259851547Y-152273142D01*
X259851547Y-152082666D01*
X259889642Y-151930285D01*
X259927738Y-151854095D01*
X259965833Y-151816000D01*
X260042023Y-151777904D01*
X260803928Y-151777904D02*
X260880119Y-151777904D01*
X260956309Y-151816000D01*
X260994404Y-151854095D01*
X261032500Y-151930285D01*
X261070595Y-152082666D01*
X261070595Y-152273142D01*
X261032500Y-152425523D01*
X260994404Y-152501714D01*
X260956309Y-152539809D01*
X260880119Y-152577904D01*
X260803928Y-152577904D01*
X260727738Y-152539809D01*
X260689642Y-152501714D01*
X260651547Y-152425523D01*
X260613452Y-152273142D01*
X260613452Y-152082666D01*
X260651547Y-151930285D01*
X260689642Y-151854095D01*
X260727738Y-151816000D01*
X260803928Y-151777904D01*
X249377500Y-150634904D02*
X249454166Y-150634904D01*
X249530833Y-150673000D01*
X249569166Y-150711095D01*
X249607500Y-150787285D01*
X249645833Y-150939666D01*
X249645833Y-151130142D01*
X249607500Y-151282523D01*
X249569166Y-151358714D01*
X249530833Y-151396809D01*
X249454166Y-151434904D01*
X249377500Y-151434904D01*
X249300833Y-151396809D01*
X249262500Y-151358714D01*
X249224166Y-151282523D01*
X249185833Y-151130142D01*
X249185833Y-150939666D01*
X249224166Y-150787285D01*
X249262500Y-150711095D01*
X249300833Y-150673000D01*
X249377500Y-150634904D01*
X249952500Y-150711095D02*
X249990833Y-150673000D01*
X250067500Y-150634904D01*
X250259166Y-150634904D01*
X250335833Y-150673000D01*
X250374166Y-150711095D01*
X250412500Y-150787285D01*
X250412500Y-150863476D01*
X250374166Y-150977761D01*
X249914166Y-151434904D01*
X250412500Y-151434904D01*
X251102500Y-150901571D02*
X251102500Y-151434904D01*
X250910833Y-150596809D02*
X250719166Y-151168238D01*
X251217500Y-151168238D01*
X251869166Y-150634904D02*
X251715833Y-150634904D01*
X251639166Y-150673000D01*
X251600833Y-150711095D01*
X251524166Y-150825380D01*
X251485833Y-150977761D01*
X251485833Y-151282523D01*
X251524166Y-151358714D01*
X251562500Y-151396809D01*
X251639166Y-151434904D01*
X251792500Y-151434904D01*
X251869166Y-151396809D01*
X251907500Y-151358714D01*
X251945833Y-151282523D01*
X251945833Y-151092047D01*
X251907500Y-151015857D01*
X251869166Y-150977761D01*
X251792500Y-150939666D01*
X251639166Y-150939666D01*
X251562500Y-150977761D01*
X251524166Y-151015857D01*
X251485833Y-151092047D01*
X252405833Y-150977761D02*
X252329166Y-150939666D01*
X252290833Y-150901571D01*
X252252500Y-150825380D01*
X252252500Y-150787285D01*
X252290833Y-150711095D01*
X252329166Y-150673000D01*
X252405833Y-150634904D01*
X252559166Y-150634904D01*
X252635833Y-150673000D01*
X252674166Y-150711095D01*
X252712500Y-150787285D01*
X252712500Y-150825380D01*
X252674166Y-150901571D01*
X252635833Y-150939666D01*
X252559166Y-150977761D01*
X252405833Y-150977761D01*
X252329166Y-151015857D01*
X252290833Y-151053952D01*
X252252500Y-151130142D01*
X252252500Y-151282523D01*
X252290833Y-151358714D01*
X252329166Y-151396809D01*
X252405833Y-151434904D01*
X252559166Y-151434904D01*
X252635833Y-151396809D01*
X252674166Y-151358714D01*
X252712500Y-151282523D01*
X252712500Y-151130142D01*
X252674166Y-151053952D01*
X252635833Y-151015857D01*
X252559166Y-150977761D01*
X253019166Y-151206333D02*
X253402500Y-151206333D01*
X252942500Y-151434904D02*
X253210833Y-150634904D01*
X253479166Y-151434904D01*
X254207500Y-151358714D02*
X254169166Y-151396809D01*
X254054166Y-151434904D01*
X253977500Y-151434904D01*
X253862500Y-151396809D01*
X253785833Y-151320619D01*
X253747500Y-151244428D01*
X253709166Y-151092047D01*
X253709166Y-150977761D01*
X253747500Y-150825380D01*
X253785833Y-150749190D01*
X253862500Y-150673000D01*
X253977500Y-150634904D01*
X254054166Y-150634904D01*
X254169166Y-150673000D01*
X254207500Y-150711095D01*
X254552500Y-151015857D02*
X254820833Y-151015857D01*
X254935833Y-151434904D02*
X254552500Y-151434904D01*
X254552500Y-150634904D01*
X254935833Y-150634904D01*
X255434166Y-150634904D02*
X255510833Y-150634904D01*
X255587500Y-150673000D01*
X255625833Y-150711095D01*
X255664166Y-150787285D01*
X255702500Y-150939666D01*
X255702500Y-151130142D01*
X255664166Y-151282523D01*
X255625833Y-151358714D01*
X255587500Y-151396809D01*
X255510833Y-151434904D01*
X255434166Y-151434904D01*
X255357500Y-151396809D01*
X255319166Y-151358714D01*
X255280833Y-151282523D01*
X255242500Y-151130142D01*
X255242500Y-150939666D01*
X255280833Y-150787285D01*
X255319166Y-150711095D01*
X255357500Y-150673000D01*
X255434166Y-150634904D01*
X256009166Y-150711095D02*
X256047500Y-150673000D01*
X256124166Y-150634904D01*
X256315833Y-150634904D01*
X256392500Y-150673000D01*
X256430833Y-150711095D01*
X256469166Y-150787285D01*
X256469166Y-150863476D01*
X256430833Y-150977761D01*
X255970833Y-151434904D01*
X256469166Y-151434904D01*
X257159166Y-150901571D02*
X257159166Y-151434904D01*
X256967500Y-150596809D02*
X256775833Y-151168238D01*
X257274166Y-151168238D01*
X257925833Y-150634904D02*
X257772500Y-150634904D01*
X257695833Y-150673000D01*
X257657500Y-150711095D01*
X257580833Y-150825380D01*
X257542500Y-150977761D01*
X257542500Y-151282523D01*
X257580833Y-151358714D01*
X257619166Y-151396809D01*
X257695833Y-151434904D01*
X257849166Y-151434904D01*
X257925833Y-151396809D01*
X257964166Y-151358714D01*
X258002500Y-151282523D01*
X258002500Y-151092047D01*
X257964166Y-151015857D01*
X257925833Y-150977761D01*
X257849166Y-150939666D01*
X257695833Y-150939666D01*
X257619166Y-150977761D01*
X257580833Y-151015857D01*
X257542500Y-151092047D01*
X258462500Y-150977761D02*
X258385833Y-150939666D01*
X258347500Y-150901571D01*
X258309166Y-150825380D01*
X258309166Y-150787285D01*
X258347500Y-150711095D01*
X258385833Y-150673000D01*
X258462500Y-150634904D01*
X258615833Y-150634904D01*
X258692500Y-150673000D01*
X258730833Y-150711095D01*
X258769166Y-150787285D01*
X258769166Y-150825380D01*
X258730833Y-150901571D01*
X258692500Y-150939666D01*
X258615833Y-150977761D01*
X258462500Y-150977761D01*
X258385833Y-151015857D01*
X258347500Y-151053952D01*
X258309166Y-151130142D01*
X258309166Y-151282523D01*
X258347500Y-151358714D01*
X258385833Y-151396809D01*
X258462500Y-151434904D01*
X258615833Y-151434904D01*
X258692500Y-151396809D01*
X258730833Y-151358714D01*
X258769166Y-151282523D01*
X258769166Y-151130142D01*
X258730833Y-151053952D01*
X258692500Y-151015857D01*
X258615833Y-150977761D01*
X259075833Y-151206333D02*
X259459166Y-151206333D01*
X258999166Y-151434904D02*
X259267500Y-150634904D01*
X259535833Y-151434904D01*
X260264166Y-151358714D02*
X260225833Y-151396809D01*
X260110833Y-151434904D01*
X260034166Y-151434904D01*
X259919166Y-151396809D01*
X259842500Y-151320619D01*
X259804166Y-151244428D01*
X259765833Y-151092047D01*
X259765833Y-150977761D01*
X259804166Y-150825380D01*
X259842500Y-150749190D01*
X259919166Y-150673000D01*
X260034166Y-150634904D01*
X260110833Y-150634904D01*
X260225833Y-150673000D01*
X260264166Y-150711095D01*
X260609166Y-151015857D02*
X260877500Y-151015857D01*
X260992500Y-151434904D02*
X260609166Y-151434904D01*
X260609166Y-150634904D01*
X260992500Y-150634904D01*
X249647738Y-150215714D02*
X249611547Y-150253809D01*
X249502976Y-150291904D01*
X249430595Y-150291904D01*
X249322023Y-150253809D01*
X249249642Y-150177619D01*
X249213452Y-150101428D01*
X249177261Y-149949047D01*
X249177261Y-149834761D01*
X249213452Y-149682380D01*
X249249642Y-149606190D01*
X249322023Y-149530000D01*
X249430595Y-149491904D01*
X249502976Y-149491904D01*
X249611547Y-149530000D01*
X249647738Y-149568095D01*
X250407738Y-150215714D02*
X250371547Y-150253809D01*
X250262976Y-150291904D01*
X250190595Y-150291904D01*
X250082023Y-150253809D01*
X250009642Y-150177619D01*
X249973452Y-150101428D01*
X249937261Y-149949047D01*
X249937261Y-149834761D01*
X249973452Y-149682380D01*
X250009642Y-149606190D01*
X250082023Y-149530000D01*
X250190595Y-149491904D01*
X250262976Y-149491904D01*
X250371547Y-149530000D01*
X250407738Y-149568095D01*
X251167738Y-150215714D02*
X251131547Y-150253809D01*
X251022976Y-150291904D01*
X250950595Y-150291904D01*
X250842023Y-150253809D01*
X250769642Y-150177619D01*
X250733452Y-150101428D01*
X250697261Y-149949047D01*
X250697261Y-149834761D01*
X250733452Y-149682380D01*
X250769642Y-149606190D01*
X250842023Y-149530000D01*
X250950595Y-149491904D01*
X251022976Y-149491904D01*
X251131547Y-149530000D01*
X251167738Y-149568095D01*
X251927738Y-150215714D02*
X251891547Y-150253809D01*
X251782976Y-150291904D01*
X251710595Y-150291904D01*
X251602023Y-150253809D01*
X251529642Y-150177619D01*
X251493452Y-150101428D01*
X251457261Y-149949047D01*
X251457261Y-149834761D01*
X251493452Y-149682380D01*
X251529642Y-149606190D01*
X251602023Y-149530000D01*
X251710595Y-149491904D01*
X251782976Y-149491904D01*
X251891547Y-149530000D01*
X251927738Y-149568095D01*
X252687738Y-150215714D02*
X252651547Y-150253809D01*
X252542976Y-150291904D01*
X252470595Y-150291904D01*
X252362023Y-150253809D01*
X252289642Y-150177619D01*
X252253452Y-150101428D01*
X252217261Y-149949047D01*
X252217261Y-149834761D01*
X252253452Y-149682380D01*
X252289642Y-149606190D01*
X252362023Y-149530000D01*
X252470595Y-149491904D01*
X252542976Y-149491904D01*
X252651547Y-149530000D01*
X252687738Y-149568095D01*
X253447738Y-150215714D02*
X253411547Y-150253809D01*
X253302976Y-150291904D01*
X253230595Y-150291904D01*
X253122023Y-150253809D01*
X253049642Y-150177619D01*
X253013452Y-150101428D01*
X252977261Y-149949047D01*
X252977261Y-149834761D01*
X253013452Y-149682380D01*
X253049642Y-149606190D01*
X253122023Y-149530000D01*
X253230595Y-149491904D01*
X253302976Y-149491904D01*
X253411547Y-149530000D01*
X253447738Y-149568095D01*
X254207738Y-150215714D02*
X254171547Y-150253809D01*
X254062976Y-150291904D01*
X253990595Y-150291904D01*
X253882023Y-150253809D01*
X253809642Y-150177619D01*
X253773452Y-150101428D01*
X253737261Y-149949047D01*
X253737261Y-149834761D01*
X253773452Y-149682380D01*
X253809642Y-149606190D01*
X253882023Y-149530000D01*
X253990595Y-149491904D01*
X254062976Y-149491904D01*
X254171547Y-149530000D01*
X254207738Y-149568095D01*
X254967738Y-150215714D02*
X254931547Y-150253809D01*
X254822976Y-150291904D01*
X254750595Y-150291904D01*
X254642023Y-150253809D01*
X254569642Y-150177619D01*
X254533452Y-150101428D01*
X254497261Y-149949047D01*
X254497261Y-149834761D01*
X254533452Y-149682380D01*
X254569642Y-149606190D01*
X254642023Y-149530000D01*
X254750595Y-149491904D01*
X254822976Y-149491904D01*
X254931547Y-149530000D01*
X254967738Y-149568095D01*
X255293452Y-150291904D02*
X255293452Y-149491904D01*
X255474404Y-149491904D01*
X255582976Y-149530000D01*
X255655357Y-149606190D01*
X255691547Y-149682380D01*
X255727738Y-149834761D01*
X255727738Y-149949047D01*
X255691547Y-150101428D01*
X255655357Y-150177619D01*
X255582976Y-150253809D01*
X255474404Y-150291904D01*
X255293452Y-150291904D01*
X256053452Y-150291904D02*
X256053452Y-149491904D01*
X256234404Y-149491904D01*
X256342976Y-149530000D01*
X256415357Y-149606190D01*
X256451547Y-149682380D01*
X256487738Y-149834761D01*
X256487738Y-149949047D01*
X256451547Y-150101428D01*
X256415357Y-150177619D01*
X256342976Y-150253809D01*
X256234404Y-150291904D01*
X256053452Y-150291904D01*
X256813452Y-150291904D02*
X256813452Y-149491904D01*
X256994404Y-149491904D01*
X257102976Y-149530000D01*
X257175357Y-149606190D01*
X257211547Y-149682380D01*
X257247738Y-149834761D01*
X257247738Y-149949047D01*
X257211547Y-150101428D01*
X257175357Y-150177619D01*
X257102976Y-150253809D01*
X256994404Y-150291904D01*
X256813452Y-150291904D01*
X257573452Y-150291904D02*
X257573452Y-149491904D01*
X257754404Y-149491904D01*
X257862976Y-149530000D01*
X257935357Y-149606190D01*
X257971547Y-149682380D01*
X258007738Y-149834761D01*
X258007738Y-149949047D01*
X257971547Y-150101428D01*
X257935357Y-150177619D01*
X257862976Y-150253809D01*
X257754404Y-150291904D01*
X257573452Y-150291904D01*
X258333452Y-150291904D02*
X258333452Y-149491904D01*
X258514404Y-149491904D01*
X258622976Y-149530000D01*
X258695357Y-149606190D01*
X258731547Y-149682380D01*
X258767738Y-149834761D01*
X258767738Y-149949047D01*
X258731547Y-150101428D01*
X258695357Y-150177619D01*
X258622976Y-150253809D01*
X258514404Y-150291904D01*
X258333452Y-150291904D01*
X259093452Y-150291904D02*
X259093452Y-149491904D01*
X259274404Y-149491904D01*
X259382976Y-149530000D01*
X259455357Y-149606190D01*
X259491547Y-149682380D01*
X259527738Y-149834761D01*
X259527738Y-149949047D01*
X259491547Y-150101428D01*
X259455357Y-150177619D01*
X259382976Y-150253809D01*
X259274404Y-150291904D01*
X259093452Y-150291904D01*
X259853452Y-150291904D02*
X259853452Y-149491904D01*
X260034404Y-149491904D01*
X260142976Y-149530000D01*
X260215357Y-149606190D01*
X260251547Y-149682380D01*
X260287738Y-149834761D01*
X260287738Y-149949047D01*
X260251547Y-150101428D01*
X260215357Y-150177619D01*
X260142976Y-150253809D01*
X260034404Y-150291904D01*
X259853452Y-150291904D01*
X260613452Y-150291904D02*
X260613452Y-149491904D01*
X260794404Y-149491904D01*
X260902976Y-149530000D01*
X260975357Y-149606190D01*
X261011547Y-149682380D01*
X261047738Y-149834761D01*
X261047738Y-149949047D01*
X261011547Y-150101428D01*
X260975357Y-150177619D01*
X260902976Y-150253809D01*
X260794404Y-150291904D01*
X260613452Y-150291904D01*
D10*
X261366000Y-159709000D02*
X247284000Y-159709000D01*
X247284000Y-159709000D02*
X247284000Y-153994000D01*
D14*
X252603000Y-148723500D02*
G75*
G03*
X252603000Y-148723500I-127000J0D01*
G01*
D10*
X247284000Y-153994000D02*
X261366000Y-153994000D01*
D14*
X249516900Y-148723500D02*
G75*
G03*
X249516900Y-148723500I-127000J0D01*
G01*
X255587500Y-148717000D02*
G75*
G03*
X255587500Y-148717000I-127000J0D01*
G01*
X249506500Y-147580500D02*
G75*
G03*
X249506500Y-147580500I-127000J0D01*
G01*
D10*
X248666000Y-114427000D02*
X248666000Y-149225000D01*
D15*
X182062380Y-137148714D02*
X182110000Y-137188238D01*
X182157619Y-137267285D01*
X182157619Y-137464904D01*
X182110000Y-137543952D01*
X182062380Y-137583476D01*
X181967142Y-137623000D01*
X181871904Y-137623000D01*
X181729047Y-137583476D01*
X181157619Y-137109190D01*
X181157619Y-137623000D01*
X182157619Y-137899666D02*
X182157619Y-138453000D01*
X181157619Y-138097285D01*
X181252857Y-139243476D02*
X181205238Y-139203952D01*
X181157619Y-139085380D01*
X181157619Y-139006333D01*
X181205238Y-138887761D01*
X181300476Y-138808714D01*
X181395714Y-138769190D01*
X181586190Y-138729666D01*
X181729047Y-138729666D01*
X181919523Y-138769190D01*
X182014761Y-138808714D01*
X182110000Y-138887761D01*
X182157619Y-139006333D01*
X182157619Y-139085380D01*
X182110000Y-139203952D01*
X182062380Y-139243476D01*
X182157619Y-139954904D02*
X182157619Y-139796809D01*
X182110000Y-139717761D01*
X182062380Y-139678238D01*
X181919523Y-139599190D01*
X181729047Y-139559666D01*
X181348095Y-139559666D01*
X181252857Y-139599190D01*
X181205238Y-139638714D01*
X181157619Y-139717761D01*
X181157619Y-139875857D01*
X181205238Y-139954904D01*
X181252857Y-139994428D01*
X181348095Y-140033952D01*
X181586190Y-140033952D01*
X181681428Y-139994428D01*
X181729047Y-139954904D01*
X181776666Y-139875857D01*
X181776666Y-139717761D01*
X181729047Y-139638714D01*
X181681428Y-139599190D01*
X181586190Y-139559666D01*
X181824285Y-140745380D02*
X181157619Y-140745380D01*
X182205238Y-140547761D02*
X181490952Y-140350142D01*
X181490952Y-140863952D01*
X182205238Y-142405380D02*
X180919523Y-141693952D01*
X182062380Y-143274904D02*
X182110000Y-143314428D01*
X182157619Y-143393476D01*
X182157619Y-143591095D01*
X182110000Y-143670142D01*
X182062380Y-143709666D01*
X181967142Y-143749190D01*
X181871904Y-143749190D01*
X181729047Y-143709666D01*
X181157619Y-143235380D01*
X181157619Y-143749190D01*
X181729047Y-144223476D02*
X181776666Y-144144428D01*
X181824285Y-144104904D01*
X181919523Y-144065380D01*
X181967142Y-144065380D01*
X182062380Y-144104904D01*
X182110000Y-144144428D01*
X182157619Y-144223476D01*
X182157619Y-144381571D01*
X182110000Y-144460619D01*
X182062380Y-144500142D01*
X181967142Y-144539666D01*
X181919523Y-144539666D01*
X181824285Y-144500142D01*
X181776666Y-144460619D01*
X181729047Y-144381571D01*
X181729047Y-144223476D01*
X181681428Y-144144428D01*
X181633809Y-144104904D01*
X181538571Y-144065380D01*
X181348095Y-144065380D01*
X181252857Y-144104904D01*
X181205238Y-144144428D01*
X181157619Y-144223476D01*
X181157619Y-144381571D01*
X181205238Y-144460619D01*
X181252857Y-144500142D01*
X181348095Y-144539666D01*
X181538571Y-144539666D01*
X181633809Y-144500142D01*
X181681428Y-144460619D01*
X181729047Y-144381571D01*
X181252857Y-145369666D02*
X181205238Y-145330142D01*
X181157619Y-145211571D01*
X181157619Y-145132523D01*
X181205238Y-145013952D01*
X181300476Y-144934904D01*
X181395714Y-144895380D01*
X181586190Y-144855857D01*
X181729047Y-144855857D01*
X181919523Y-144895380D01*
X182014761Y-144934904D01*
X182110000Y-145013952D01*
X182157619Y-145132523D01*
X182157619Y-145211571D01*
X182110000Y-145330142D01*
X182062380Y-145369666D01*
X182157619Y-146081095D02*
X182157619Y-145923000D01*
X182110000Y-145843952D01*
X182062380Y-145804428D01*
X181919523Y-145725380D01*
X181729047Y-145685857D01*
X181348095Y-145685857D01*
X181252857Y-145725380D01*
X181205238Y-145764904D01*
X181157619Y-145843952D01*
X181157619Y-146002047D01*
X181205238Y-146081095D01*
X181252857Y-146120619D01*
X181348095Y-146160142D01*
X181586190Y-146160142D01*
X181681428Y-146120619D01*
X181729047Y-146081095D01*
X181776666Y-146002047D01*
X181776666Y-145843952D01*
X181729047Y-145764904D01*
X181681428Y-145725380D01*
X181586190Y-145685857D01*
X181824285Y-146871571D02*
X181157619Y-146871571D01*
X182205238Y-146673952D02*
X181490952Y-146476333D01*
X181490952Y-146990142D01*
X181681428Y-147583000D02*
X181633809Y-147701571D01*
X181586190Y-147741095D01*
X181490952Y-147780619D01*
X181348095Y-147780619D01*
X181252857Y-147741095D01*
X181205238Y-147701571D01*
X181157619Y-147622523D01*
X181157619Y-147306333D01*
X182157619Y-147306333D01*
X182157619Y-147583000D01*
X182110000Y-147662047D01*
X182062380Y-147701571D01*
X181967142Y-147741095D01*
X181871904Y-147741095D01*
X181776666Y-147701571D01*
X181729047Y-147662047D01*
X181681428Y-147583000D01*
X181681428Y-147306333D01*
X182205238Y-149361571D02*
X180919523Y-148650142D01*
X182062380Y-150231095D02*
X182110000Y-150270619D01*
X182157619Y-150349666D01*
X182157619Y-150547285D01*
X182110000Y-150626333D01*
X182062380Y-150665857D01*
X181967142Y-150705380D01*
X181871904Y-150705380D01*
X181729047Y-150665857D01*
X181157619Y-150191571D01*
X181157619Y-150705380D01*
X181729047Y-151179666D02*
X181776666Y-151100619D01*
X181824285Y-151061095D01*
X181919523Y-151021571D01*
X181967142Y-151021571D01*
X182062380Y-151061095D01*
X182110000Y-151100619D01*
X182157619Y-151179666D01*
X182157619Y-151337761D01*
X182110000Y-151416809D01*
X182062380Y-151456333D01*
X181967142Y-151495857D01*
X181919523Y-151495857D01*
X181824285Y-151456333D01*
X181776666Y-151416809D01*
X181729047Y-151337761D01*
X181729047Y-151179666D01*
X181681428Y-151100619D01*
X181633809Y-151061095D01*
X181538571Y-151021571D01*
X181348095Y-151021571D01*
X181252857Y-151061095D01*
X181205238Y-151100619D01*
X181157619Y-151179666D01*
X181157619Y-151337761D01*
X181205238Y-151416809D01*
X181252857Y-151456333D01*
X181348095Y-151495857D01*
X181538571Y-151495857D01*
X181633809Y-151456333D01*
X181681428Y-151416809D01*
X181729047Y-151337761D01*
X181252857Y-152325857D02*
X181205238Y-152286333D01*
X181157619Y-152167761D01*
X181157619Y-152088714D01*
X181205238Y-151970142D01*
X181300476Y-151891095D01*
X181395714Y-151851571D01*
X181586190Y-151812047D01*
X181729047Y-151812047D01*
X181919523Y-151851571D01*
X182014761Y-151891095D01*
X182110000Y-151970142D01*
X182157619Y-152088714D01*
X182157619Y-152167761D01*
X182110000Y-152286333D01*
X182062380Y-152325857D01*
X182062380Y-152642047D02*
X182110000Y-152681571D01*
X182157619Y-152760619D01*
X182157619Y-152958238D01*
X182110000Y-153037285D01*
X182062380Y-153076809D01*
X181967142Y-153116333D01*
X181871904Y-153116333D01*
X181729047Y-153076809D01*
X181157619Y-152602523D01*
X181157619Y-153116333D01*
X182157619Y-153867285D02*
X182157619Y-153472047D01*
X181681428Y-153432523D01*
X181729047Y-153472047D01*
X181776666Y-153551095D01*
X181776666Y-153748714D01*
X181729047Y-153827761D01*
X181681428Y-153867285D01*
X181586190Y-153906809D01*
X181348095Y-153906809D01*
X181252857Y-153867285D01*
X181205238Y-153827761D01*
X181157619Y-153748714D01*
X181157619Y-153551095D01*
X181205238Y-153472047D01*
X181252857Y-153432523D01*
X182157619Y-154618238D02*
X182157619Y-154460142D01*
X182110000Y-154381095D01*
X182062380Y-154341571D01*
X181919523Y-154262523D01*
X181729047Y-154223000D01*
X181348095Y-154223000D01*
X181252857Y-154262523D01*
X181205238Y-154302047D01*
X181157619Y-154381095D01*
X181157619Y-154539190D01*
X181205238Y-154618238D01*
X181252857Y-154657761D01*
X181348095Y-154697285D01*
X181586190Y-154697285D01*
X181681428Y-154657761D01*
X181729047Y-154618238D01*
X181776666Y-154539190D01*
X181776666Y-154381095D01*
X181729047Y-154302047D01*
X181681428Y-154262523D01*
X181586190Y-154223000D01*
X181157619Y-123485285D02*
X182157619Y-123485285D01*
X182157619Y-123682904D01*
X182110000Y-123801476D01*
X182014761Y-123880523D01*
X181919523Y-123920047D01*
X181729047Y-123959571D01*
X181586190Y-123959571D01*
X181395714Y-123920047D01*
X181300476Y-123880523D01*
X181205238Y-123801476D01*
X181157619Y-123682904D01*
X181157619Y-123485285D01*
X181157619Y-124315285D02*
X181824285Y-124315285D01*
X182157619Y-124315285D02*
X182110000Y-124275761D01*
X182062380Y-124315285D01*
X182110000Y-124354809D01*
X182157619Y-124315285D01*
X182062380Y-124315285D01*
X181205238Y-124671000D02*
X181157619Y-124750047D01*
X181157619Y-124908142D01*
X181205238Y-124987190D01*
X181300476Y-125026714D01*
X181348095Y-125026714D01*
X181443333Y-124987190D01*
X181490952Y-124908142D01*
X181490952Y-124789571D01*
X181538571Y-124710523D01*
X181633809Y-124671000D01*
X181681428Y-124671000D01*
X181776666Y-124710523D01*
X181824285Y-124789571D01*
X181824285Y-124908142D01*
X181776666Y-124987190D01*
X181157619Y-125382428D02*
X182157619Y-125382428D01*
X181538571Y-125461476D02*
X181157619Y-125698619D01*
X181824285Y-125698619D02*
X181443333Y-125382428D01*
X182157619Y-126212428D02*
X182157619Y-126370523D01*
X182110000Y-126449571D01*
X182014761Y-126528619D01*
X181824285Y-126568142D01*
X181490952Y-126568142D01*
X181300476Y-126528619D01*
X181205238Y-126449571D01*
X181157619Y-126370523D01*
X181157619Y-126212428D01*
X181205238Y-126133380D01*
X181300476Y-126054333D01*
X181490952Y-126014809D01*
X181824285Y-126014809D01*
X182014761Y-126054333D01*
X182110000Y-126133380D01*
X182157619Y-126212428D01*
X181824285Y-126923857D02*
X181157619Y-126923857D01*
X181729047Y-126923857D02*
X181776666Y-126963380D01*
X181824285Y-127042428D01*
X181824285Y-127161000D01*
X181776666Y-127240047D01*
X181681428Y-127279571D01*
X181157619Y-127279571D01*
X181252857Y-128149095D02*
X181205238Y-128109571D01*
X181157619Y-127991000D01*
X181157619Y-127911952D01*
X181205238Y-127793380D01*
X181300476Y-127714333D01*
X181395714Y-127674809D01*
X181586190Y-127635285D01*
X181729047Y-127635285D01*
X181919523Y-127674809D01*
X182014761Y-127714333D01*
X182110000Y-127793380D01*
X182157619Y-127911952D01*
X182157619Y-127991000D01*
X182110000Y-128109571D01*
X182062380Y-128149095D01*
X181157619Y-128504809D02*
X182157619Y-128504809D01*
X181157619Y-128860523D02*
X181681428Y-128860523D01*
X181776666Y-128821000D01*
X181824285Y-128741952D01*
X181824285Y-128623380D01*
X181776666Y-128544333D01*
X181729047Y-128504809D01*
X181157619Y-129255761D02*
X181824285Y-129255761D01*
X182157619Y-129255761D02*
X182110000Y-129216238D01*
X182062380Y-129255761D01*
X182110000Y-129295285D01*
X182157619Y-129255761D01*
X182062380Y-129255761D01*
X181824285Y-129651000D02*
X180824285Y-129651000D01*
X181776666Y-129651000D02*
X181824285Y-129730047D01*
X181824285Y-129888142D01*
X181776666Y-129967190D01*
X181729047Y-130006714D01*
X181633809Y-130046238D01*
X181348095Y-130046238D01*
X181252857Y-130006714D01*
X181205238Y-129967190D01*
X181157619Y-129888142D01*
X181157619Y-129730047D01*
X181205238Y-129651000D01*
D13*
X235169142Y-151702071D02*
X235740571Y-151402071D01*
X235169142Y-151187785D02*
X236369142Y-151187785D01*
X236369142Y-151530642D01*
X236312000Y-151616357D01*
X236254857Y-151659214D01*
X236140571Y-151702071D01*
X235969142Y-151702071D01*
X235854857Y-151659214D01*
X235797714Y-151616357D01*
X235740571Y-151530642D01*
X235740571Y-151187785D01*
X236369142Y-152259214D02*
X236369142Y-152430642D01*
X236312000Y-152516357D01*
X236197714Y-152602071D01*
X235969142Y-152644928D01*
X235569142Y-152644928D01*
X235340571Y-152602071D01*
X235226285Y-152516357D01*
X235169142Y-152430642D01*
X235169142Y-152259214D01*
X235226285Y-152173500D01*
X235340571Y-152087785D01*
X235569142Y-152044928D01*
X235969142Y-152044928D01*
X236197714Y-152087785D01*
X236312000Y-152173500D01*
X236369142Y-152259214D01*
X235169142Y-153030642D02*
X236369142Y-153030642D01*
X235512000Y-153330642D01*
X236369142Y-153630642D01*
X235169142Y-153630642D01*
X235626285Y-154059214D02*
X235626285Y-154744928D01*
X235226285Y-155516357D02*
X235169142Y-155430642D01*
X235169142Y-155259214D01*
X235226285Y-155173500D01*
X235340571Y-155130642D01*
X235797714Y-155130642D01*
X235912000Y-155173500D01*
X235969142Y-155259214D01*
X235969142Y-155430642D01*
X235912000Y-155516357D01*
X235797714Y-155559214D01*
X235683428Y-155559214D01*
X235569142Y-155130642D01*
X235969142Y-155944928D02*
X235169142Y-155944928D01*
X235854857Y-155944928D02*
X235912000Y-155987785D01*
X235969142Y-156073500D01*
X235969142Y-156202071D01*
X235912000Y-156287785D01*
X235797714Y-156330642D01*
X235169142Y-156330642D01*
X235169142Y-157144928D02*
X235797714Y-157144928D01*
X235912000Y-157102071D01*
X235969142Y-157016357D01*
X235969142Y-156844928D01*
X235912000Y-156759214D01*
X235226285Y-157144928D02*
X235169142Y-157059214D01*
X235169142Y-156844928D01*
X235226285Y-156759214D01*
X235340571Y-156716357D01*
X235454857Y-156716357D01*
X235569142Y-156759214D01*
X235626285Y-156844928D01*
X235626285Y-157059214D01*
X235683428Y-157144928D01*
X235169142Y-157573500D02*
X236369142Y-157573500D01*
X235912000Y-157573500D02*
X235969142Y-157659214D01*
X235969142Y-157830642D01*
X235912000Y-157916357D01*
X235854857Y-157959214D01*
X235740571Y-158002071D01*
X235397714Y-158002071D01*
X235283428Y-157959214D01*
X235226285Y-157916357D01*
X235169142Y-157830642D01*
X235169142Y-157659214D01*
X235226285Y-157573500D01*
X235169142Y-158516357D02*
X235226285Y-158430642D01*
X235340571Y-158387785D01*
X236369142Y-158387785D01*
X235226285Y-159202071D02*
X235169142Y-159116357D01*
X235169142Y-158944928D01*
X235226285Y-158859214D01*
X235340571Y-158816357D01*
X235797714Y-158816357D01*
X235912000Y-158859214D01*
X235969142Y-158944928D01*
X235969142Y-159116357D01*
X235912000Y-159202071D01*
X235797714Y-159244928D01*
X235683428Y-159244928D01*
X235569142Y-158816357D01*
X238909142Y-151102071D02*
X237709142Y-151316357D01*
X238566285Y-151487785D01*
X237709142Y-151659214D01*
X238909142Y-151873500D01*
X237709142Y-152216357D02*
X238509142Y-152216357D01*
X238280571Y-152216357D02*
X238394857Y-152259214D01*
X238452000Y-152302071D01*
X238509142Y-152387785D01*
X238509142Y-152473500D01*
X237709142Y-152773500D02*
X238509142Y-152773500D01*
X238909142Y-152773500D02*
X238852000Y-152730642D01*
X238794857Y-152773500D01*
X238852000Y-152816357D01*
X238909142Y-152773500D01*
X238794857Y-152773500D01*
X238509142Y-153073500D02*
X238509142Y-153416357D01*
X238909142Y-153202071D02*
X237880571Y-153202071D01*
X237766285Y-153244928D01*
X237709142Y-153330642D01*
X237709142Y-153416357D01*
X237766285Y-154059214D02*
X237709142Y-153973500D01*
X237709142Y-153802071D01*
X237766285Y-153716357D01*
X237880571Y-153673500D01*
X238337714Y-153673500D01*
X238452000Y-153716357D01*
X238509142Y-153802071D01*
X238509142Y-153973500D01*
X238452000Y-154059214D01*
X238337714Y-154102071D01*
X238223428Y-154102071D01*
X238109142Y-153673500D01*
X238166285Y-154487785D02*
X238166285Y-155173500D01*
X237766285Y-155944928D02*
X237709142Y-155859214D01*
X237709142Y-155687785D01*
X237766285Y-155602071D01*
X237880571Y-155559214D01*
X238337714Y-155559214D01*
X238452000Y-155602071D01*
X238509142Y-155687785D01*
X238509142Y-155859214D01*
X238452000Y-155944928D01*
X238337714Y-155987785D01*
X238223428Y-155987785D01*
X238109142Y-155559214D01*
X238509142Y-156373500D02*
X237709142Y-156373500D01*
X238394857Y-156373500D02*
X238452000Y-156416357D01*
X238509142Y-156502071D01*
X238509142Y-156630642D01*
X238452000Y-156716357D01*
X238337714Y-156759214D01*
X237709142Y-156759214D01*
X237709142Y-157573500D02*
X238337714Y-157573500D01*
X238452000Y-157530642D01*
X238509142Y-157444928D01*
X238509142Y-157273500D01*
X238452000Y-157187785D01*
X237766285Y-157573500D02*
X237709142Y-157487785D01*
X237709142Y-157273500D01*
X237766285Y-157187785D01*
X237880571Y-157144928D01*
X237994857Y-157144928D01*
X238109142Y-157187785D01*
X238166285Y-157273500D01*
X238166285Y-157487785D01*
X238223428Y-157573500D01*
X237709142Y-158002071D02*
X238909142Y-158002071D01*
X238452000Y-158002071D02*
X238509142Y-158087785D01*
X238509142Y-158259214D01*
X238452000Y-158344928D01*
X238394857Y-158387785D01*
X238280571Y-158430642D01*
X237937714Y-158430642D01*
X237823428Y-158387785D01*
X237766285Y-158344928D01*
X237709142Y-158259214D01*
X237709142Y-158087785D01*
X237766285Y-158002071D01*
X237709142Y-158944928D02*
X237766285Y-158859214D01*
X237880571Y-158816357D01*
X238909142Y-158816357D01*
X237766285Y-159630642D02*
X237709142Y-159544928D01*
X237709142Y-159373500D01*
X237766285Y-159287785D01*
X237880571Y-159244928D01*
X238337714Y-159244928D01*
X238452000Y-159287785D01*
X238509142Y-159373500D01*
X238509142Y-159544928D01*
X238452000Y-159630642D01*
X238337714Y-159673500D01*
X238223428Y-159673500D01*
X238109142Y-159244928D01*
D10*
X226002000Y-155364571D02*
X225162000Y-155364571D01*
X225582000Y-155364571D02*
X225582000Y-153864571D01*
X225442000Y-154078857D01*
X225302000Y-154221714D01*
X225162000Y-154293142D01*
X227682000Y-154007428D02*
X227752000Y-153936000D01*
X227892000Y-153864571D01*
X228242000Y-153864571D01*
X228382000Y-153936000D01*
X228452000Y-154007428D01*
X228522000Y-154150285D01*
X228522000Y-154293142D01*
X228452000Y-154507428D01*
X227612000Y-155364571D01*
X228522000Y-155364571D01*
X230132000Y-153864571D02*
X231042000Y-153864571D01*
X230552000Y-154436000D01*
X230762000Y-154436000D01*
X230902000Y-154507428D01*
X230972000Y-154578857D01*
X231042000Y-154721714D01*
X231042000Y-155078857D01*
X230972000Y-155221714D01*
X230902000Y-155293142D01*
X230762000Y-155364571D01*
X230342000Y-155364571D01*
X230202000Y-155293142D01*
X230132000Y-155221714D01*
X233422000Y-154364571D02*
X233422000Y-155364571D01*
X233072000Y-153793142D02*
X232722000Y-154864571D01*
X233632000Y-154864571D01*
D11*
X180467000Y-136271000D02*
X222631000Y-136271000D01*
X234442000Y-153289000D02*
X234442000Y-150749000D01*
X224282000Y-153289000D02*
X234442000Y-153289000D01*
X239649000Y-153289000D02*
X239649000Y-150749000D01*
X236982000Y-153289000D02*
X236982000Y-150749000D01*
X224282000Y-150749000D02*
X224282000Y-153289000D01*
D10*
X226006428Y-152396000D02*
X226577857Y-152396000D01*
X225892142Y-152824571D02*
X226292142Y-151324571D01*
X226692142Y-152824571D01*
X227606428Y-152824571D02*
X227606428Y-151324571D01*
X227606428Y-152753142D02*
X227492142Y-152824571D01*
X227263571Y-152824571D01*
X227149285Y-152753142D01*
X227092142Y-152681714D01*
X227035000Y-152538857D01*
X227035000Y-152110285D01*
X227092142Y-151967428D01*
X227149285Y-151896000D01*
X227263571Y-151824571D01*
X227492142Y-151824571D01*
X227606428Y-151896000D01*
X228692142Y-152824571D02*
X228692142Y-151324571D01*
X228692142Y-152753142D02*
X228577857Y-152824571D01*
X228349285Y-152824571D01*
X228235000Y-152753142D01*
X228177857Y-152681714D01*
X228120714Y-152538857D01*
X228120714Y-152110285D01*
X228177857Y-151967428D01*
X228235000Y-151896000D01*
X228349285Y-151824571D01*
X228577857Y-151824571D01*
X228692142Y-151896000D01*
X229263571Y-152824571D02*
X229263571Y-151824571D01*
X229263571Y-152110285D02*
X229320714Y-151967428D01*
X229377857Y-151896000D01*
X229492142Y-151824571D01*
X229606428Y-151824571D01*
X230463571Y-152753142D02*
X230349285Y-152824571D01*
X230120714Y-152824571D01*
X230006428Y-152753142D01*
X229949285Y-152610285D01*
X229949285Y-152038857D01*
X230006428Y-151896000D01*
X230120714Y-151824571D01*
X230349285Y-151824571D01*
X230463571Y-151896000D01*
X230520714Y-152038857D01*
X230520714Y-152181714D01*
X229949285Y-152324571D01*
X230977857Y-152753142D02*
X231092142Y-152824571D01*
X231320714Y-152824571D01*
X231435000Y-152753142D01*
X231492142Y-152610285D01*
X231492142Y-152538857D01*
X231435000Y-152396000D01*
X231320714Y-152324571D01*
X231149285Y-152324571D01*
X231035000Y-152253142D01*
X230977857Y-152110285D01*
X230977857Y-152038857D01*
X231035000Y-151896000D01*
X231149285Y-151824571D01*
X231320714Y-151824571D01*
X231435000Y-151896000D01*
X231949285Y-152753142D02*
X232063571Y-152824571D01*
X232292142Y-152824571D01*
X232406428Y-152753142D01*
X232463571Y-152610285D01*
X232463571Y-152538857D01*
X232406428Y-152396000D01*
X232292142Y-152324571D01*
X232120714Y-152324571D01*
X232006428Y-152253142D01*
X231949285Y-152110285D01*
X231949285Y-152038857D01*
X232006428Y-151896000D01*
X232120714Y-151824571D01*
X232292142Y-151824571D01*
X232406428Y-151896000D01*
D11*
X243419000Y-134132000D02*
X243419000Y-131592000D01*
X240752000Y-134132000D02*
X243419000Y-134132000D01*
X240752000Y-134132000D02*
X240752000Y-131592000D01*
X237958000Y-134132000D02*
X240752000Y-134132000D01*
X238212000Y-134132000D02*
X238212000Y-131592000D01*
X228052000Y-134132000D02*
X237958000Y-134132000D01*
X228052000Y-131592000D02*
X228052000Y-134132000D01*
D10*
X238682000Y-132881857D02*
X239082000Y-132881857D01*
X239253428Y-133667571D02*
X238682000Y-133667571D01*
X238682000Y-132167571D01*
X239253428Y-132167571D01*
X239767714Y-132667571D02*
X239767714Y-133667571D01*
X239767714Y-132810428D02*
X239824857Y-132739000D01*
X239939142Y-132667571D01*
X240110571Y-132667571D01*
X240224857Y-132739000D01*
X240282000Y-132881857D01*
X240282000Y-133667571D01*
X229776428Y-133239000D02*
X230347857Y-133239000D01*
X229662142Y-133667571D02*
X230062142Y-132167571D01*
X230462142Y-133667571D01*
X231376428Y-133667571D02*
X231376428Y-132167571D01*
X231376428Y-133596142D02*
X231262142Y-133667571D01*
X231033571Y-133667571D01*
X230919285Y-133596142D01*
X230862142Y-133524714D01*
X230805000Y-133381857D01*
X230805000Y-132953285D01*
X230862142Y-132810428D01*
X230919285Y-132739000D01*
X231033571Y-132667571D01*
X231262142Y-132667571D01*
X231376428Y-132739000D01*
X232462142Y-133667571D02*
X232462142Y-132167571D01*
X232462142Y-133596142D02*
X232347857Y-133667571D01*
X232119285Y-133667571D01*
X232005000Y-133596142D01*
X231947857Y-133524714D01*
X231890714Y-133381857D01*
X231890714Y-132953285D01*
X231947857Y-132810428D01*
X232005000Y-132739000D01*
X232119285Y-132667571D01*
X232347857Y-132667571D01*
X232462142Y-132739000D01*
X233033571Y-133667571D02*
X233033571Y-132667571D01*
X233033571Y-132953285D02*
X233090714Y-132810428D01*
X233147857Y-132739000D01*
X233262142Y-132667571D01*
X233376428Y-132667571D01*
X234233571Y-133596142D02*
X234119285Y-133667571D01*
X233890714Y-133667571D01*
X233776428Y-133596142D01*
X233719285Y-133453285D01*
X233719285Y-132881857D01*
X233776428Y-132739000D01*
X233890714Y-132667571D01*
X234119285Y-132667571D01*
X234233571Y-132739000D01*
X234290714Y-132881857D01*
X234290714Y-133024714D01*
X233719285Y-133167571D01*
X234747857Y-133596142D02*
X234862142Y-133667571D01*
X235090714Y-133667571D01*
X235205000Y-133596142D01*
X235262142Y-133453285D01*
X235262142Y-133381857D01*
X235205000Y-133239000D01*
X235090714Y-133167571D01*
X234919285Y-133167571D01*
X234805000Y-133096142D01*
X234747857Y-132953285D01*
X234747857Y-132881857D01*
X234805000Y-132739000D01*
X234919285Y-132667571D01*
X235090714Y-132667571D01*
X235205000Y-132739000D01*
X235719285Y-133596142D02*
X235833571Y-133667571D01*
X236062142Y-133667571D01*
X236176428Y-133596142D01*
X236233571Y-133453285D01*
X236233571Y-133381857D01*
X236176428Y-133239000D01*
X236062142Y-133167571D01*
X235890714Y-133167571D01*
X235776428Y-133096142D01*
X235719285Y-132953285D01*
X235719285Y-132881857D01*
X235776428Y-132739000D01*
X235890714Y-132667571D01*
X236062142Y-132667571D01*
X236176428Y-132739000D01*
D12*
X241699142Y-151075571D02*
X241771714Y-151003000D01*
X241916857Y-150930428D01*
X242279714Y-150930428D01*
X242424857Y-151003000D01*
X242497428Y-151075571D01*
X242570000Y-151220714D01*
X242570000Y-151365857D01*
X242497428Y-151583571D01*
X241626571Y-152454428D01*
X242570000Y-152454428D01*
X243948857Y-150930428D02*
X243223142Y-150930428D01*
X243150571Y-151656142D01*
X243223142Y-151583571D01*
X243368285Y-151511000D01*
X243731142Y-151511000D01*
X243876285Y-151583571D01*
X243948857Y-151656142D01*
X244021428Y-151801285D01*
X244021428Y-152164142D01*
X243948857Y-152309285D01*
X243876285Y-152381857D01*
X243731142Y-152454428D01*
X243368285Y-152454428D01*
X243223142Y-152381857D01*
X243150571Y-152309285D01*
X245327714Y-150930428D02*
X245037428Y-150930428D01*
X244892285Y-151003000D01*
X244819714Y-151075571D01*
X244674571Y-151293285D01*
X244602000Y-151583571D01*
X244602000Y-152164142D01*
X244674571Y-152309285D01*
X244747142Y-152381857D01*
X244892285Y-152454428D01*
X245182571Y-152454428D01*
X245327714Y-152381857D01*
X245400285Y-152309285D01*
X245472857Y-152164142D01*
X245472857Y-151801285D01*
X245400285Y-151656142D01*
X245327714Y-151583571D01*
X245182571Y-151511000D01*
X244892285Y-151511000D01*
X244747142Y-151583571D01*
X244674571Y-151656142D01*
X244602000Y-151801285D01*
X246126000Y-152454428D02*
X246126000Y-150930428D01*
X246996857Y-152454428D02*
X246343714Y-151583571D01*
X246996857Y-150930428D02*
X246126000Y-151801285D01*
X243440857Y-140026571D02*
X243295714Y-139954000D01*
X243223142Y-139881428D01*
X243150571Y-139736285D01*
X243150571Y-139663714D01*
X243223142Y-139518571D01*
X243295714Y-139446000D01*
X243440857Y-139373428D01*
X243731142Y-139373428D01*
X243876285Y-139446000D01*
X243948857Y-139518571D01*
X244021428Y-139663714D01*
X244021428Y-139736285D01*
X243948857Y-139881428D01*
X243876285Y-139954000D01*
X243731142Y-140026571D01*
X243440857Y-140026571D01*
X243295714Y-140099142D01*
X243223142Y-140171714D01*
X243150571Y-140316857D01*
X243150571Y-140607142D01*
X243223142Y-140752285D01*
X243295714Y-140824857D01*
X243440857Y-140897428D01*
X243731142Y-140897428D01*
X243876285Y-140824857D01*
X243948857Y-140752285D01*
X244021428Y-140607142D01*
X244021428Y-140316857D01*
X243948857Y-140171714D01*
X243876285Y-140099142D01*
X243731142Y-140026571D01*
X244674571Y-140897428D02*
X244674571Y-139373428D01*
X245545428Y-140897428D02*
X244892285Y-140026571D01*
X245545428Y-139373428D02*
X244674571Y-140244285D01*
X188849000Y-117084928D02*
X188849000Y-115560928D01*
X189502142Y-117012357D02*
X189719857Y-117084928D01*
X190082714Y-117084928D01*
X190227857Y-117012357D01*
X190300428Y-116939785D01*
X190373000Y-116794642D01*
X190373000Y-116649500D01*
X190300428Y-116504357D01*
X190227857Y-116431785D01*
X190082714Y-116359214D01*
X189792428Y-116286642D01*
X189647285Y-116214071D01*
X189574714Y-116141500D01*
X189502142Y-115996357D01*
X189502142Y-115851214D01*
X189574714Y-115706071D01*
X189647285Y-115633500D01*
X189792428Y-115560928D01*
X190155285Y-115560928D01*
X190373000Y-115633500D01*
X190953571Y-116649500D02*
X191679285Y-116649500D01*
X190808428Y-117084928D02*
X191316428Y-115560928D01*
X191824428Y-117084928D01*
X193493571Y-117084928D02*
X193493571Y-115560928D01*
X193856428Y-115560928D01*
X194074142Y-115633500D01*
X194219285Y-115778642D01*
X194291857Y-115923785D01*
X194364428Y-116214071D01*
X194364428Y-116431785D01*
X194291857Y-116722071D01*
X194219285Y-116867214D01*
X194074142Y-117012357D01*
X193856428Y-117084928D01*
X193493571Y-117084928D01*
X195017571Y-117084928D02*
X195017571Y-116068928D01*
X195017571Y-115560928D02*
X194945000Y-115633500D01*
X195017571Y-115706071D01*
X195090142Y-115633500D01*
X195017571Y-115560928D01*
X195017571Y-115706071D01*
X195670714Y-117012357D02*
X195815857Y-117084928D01*
X196106142Y-117084928D01*
X196251285Y-117012357D01*
X196323857Y-116867214D01*
X196323857Y-116794642D01*
X196251285Y-116649500D01*
X196106142Y-116576928D01*
X195888428Y-116576928D01*
X195743285Y-116504357D01*
X195670714Y-116359214D01*
X195670714Y-116286642D01*
X195743285Y-116141500D01*
X195888428Y-116068928D01*
X196106142Y-116068928D01*
X196251285Y-116141500D01*
X196977000Y-117084928D02*
X196977000Y-115560928D01*
X197122142Y-116504357D02*
X197557571Y-117084928D01*
X197557571Y-116068928D02*
X196977000Y-116649500D01*
X198501000Y-115560928D02*
X198791285Y-115560928D01*
X198936428Y-115633500D01*
X199081571Y-115778642D01*
X199154142Y-116068928D01*
X199154142Y-116576928D01*
X199081571Y-116867214D01*
X198936428Y-117012357D01*
X198791285Y-117084928D01*
X198501000Y-117084928D01*
X198355857Y-117012357D01*
X198210714Y-116867214D01*
X198138142Y-116576928D01*
X198138142Y-116068928D01*
X198210714Y-115778642D01*
X198355857Y-115633500D01*
X198501000Y-115560928D01*
X199807285Y-116068928D02*
X199807285Y-117084928D01*
X199807285Y-116214071D02*
X199879857Y-116141500D01*
X200025000Y-116068928D01*
X200242714Y-116068928D01*
X200387857Y-116141500D01*
X200460428Y-116286642D01*
X200460428Y-117084928D01*
X202057000Y-116939785D02*
X201984428Y-117012357D01*
X201766714Y-117084928D01*
X201621571Y-117084928D01*
X201403857Y-117012357D01*
X201258714Y-116867214D01*
X201186142Y-116722071D01*
X201113571Y-116431785D01*
X201113571Y-116214071D01*
X201186142Y-115923785D01*
X201258714Y-115778642D01*
X201403857Y-115633500D01*
X201621571Y-115560928D01*
X201766714Y-115560928D01*
X201984428Y-115633500D01*
X202057000Y-115706071D01*
X202710142Y-117084928D02*
X202710142Y-115560928D01*
X203363285Y-117084928D02*
X203363285Y-116286642D01*
X203290714Y-116141500D01*
X203145571Y-116068928D01*
X202927857Y-116068928D01*
X202782714Y-116141500D01*
X202710142Y-116214071D01*
X204089000Y-117084928D02*
X204089000Y-116068928D01*
X204089000Y-115560928D02*
X204016428Y-115633500D01*
X204089000Y-115706071D01*
X204161571Y-115633500D01*
X204089000Y-115560928D01*
X204089000Y-115706071D01*
X204814714Y-116068928D02*
X204814714Y-117592928D01*
X204814714Y-116141500D02*
X204959857Y-116068928D01*
X205250142Y-116068928D01*
X205395285Y-116141500D01*
X205467857Y-116214071D01*
X205540428Y-116359214D01*
X205540428Y-116794642D01*
X205467857Y-116939785D01*
X205395285Y-117012357D01*
X205250142Y-117084928D01*
X204959857Y-117084928D01*
X204814714Y-117012357D01*
X207209571Y-116068928D02*
X207499857Y-117084928D01*
X207790142Y-116359214D01*
X208080428Y-117084928D01*
X208370714Y-116068928D01*
X208951285Y-117084928D02*
X208951285Y-116068928D01*
X208951285Y-115560928D02*
X208878714Y-115633500D01*
X208951285Y-115706071D01*
X209023857Y-115633500D01*
X208951285Y-115560928D01*
X208951285Y-115706071D01*
X209459285Y-116068928D02*
X210039857Y-116068928D01*
X209677000Y-115560928D02*
X209677000Y-116867214D01*
X209749571Y-117012357D01*
X209894714Y-117084928D01*
X210039857Y-117084928D01*
X210547857Y-117084928D02*
X210547857Y-115560928D01*
X211201000Y-117084928D02*
X211201000Y-116286642D01*
X211128428Y-116141500D01*
X210983285Y-116068928D01*
X210765571Y-116068928D01*
X210620428Y-116141500D01*
X210547857Y-116214071D01*
X212942714Y-115560928D02*
X213958714Y-117084928D01*
X213958714Y-115560928D02*
X212942714Y-117084928D01*
X214321571Y-115560928D02*
X215192428Y-115560928D01*
X214757000Y-117084928D02*
X214757000Y-115560928D01*
X215700428Y-116504357D02*
X216861571Y-116504357D01*
X217587285Y-117084928D02*
X217587285Y-115560928D01*
X218313000Y-117084928D02*
X218313000Y-115560928D01*
X218675857Y-115560928D01*
X218893571Y-115633500D01*
X219038714Y-115778642D01*
X219111285Y-115923785D01*
X219183857Y-116214071D01*
X219183857Y-116431785D01*
X219111285Y-116722071D01*
X219038714Y-116867214D01*
X218893571Y-117012357D01*
X218675857Y-117084928D01*
X218313000Y-117084928D01*
X219837000Y-116286642D02*
X220345000Y-116286642D01*
X220562714Y-117084928D02*
X219837000Y-117084928D01*
X219837000Y-115560928D01*
X220562714Y-115560928D01*
X222885000Y-116286642D02*
X223102714Y-116359214D01*
X223175285Y-116431785D01*
X223247857Y-116576928D01*
X223247857Y-116794642D01*
X223175285Y-116939785D01*
X223102714Y-117012357D01*
X222957571Y-117084928D01*
X222377000Y-117084928D01*
X222377000Y-115560928D01*
X222885000Y-115560928D01*
X223030142Y-115633500D01*
X223102714Y-115706071D01*
X223175285Y-115851214D01*
X223175285Y-115996357D01*
X223102714Y-116141500D01*
X223030142Y-116214071D01*
X222885000Y-116286642D01*
X222377000Y-116286642D01*
X223901000Y-117084928D02*
X223901000Y-115560928D01*
X224917000Y-115560928D02*
X225207285Y-115560928D01*
X225352428Y-115633500D01*
X225497571Y-115778642D01*
X225570142Y-116068928D01*
X225570142Y-116576928D01*
X225497571Y-116867214D01*
X225352428Y-117012357D01*
X225207285Y-117084928D01*
X224917000Y-117084928D01*
X224771857Y-117012357D01*
X224626714Y-116867214D01*
X224554142Y-116576928D01*
X224554142Y-116068928D01*
X224626714Y-115778642D01*
X224771857Y-115633500D01*
X224917000Y-115560928D01*
X226150714Y-117012357D02*
X226368428Y-117084928D01*
X226731285Y-117084928D01*
X226876428Y-117012357D01*
X226949000Y-116939785D01*
X227021571Y-116794642D01*
X227021571Y-116649500D01*
X226949000Y-116504357D01*
X226876428Y-116431785D01*
X226731285Y-116359214D01*
X226441000Y-116286642D01*
X226295857Y-116214071D01*
X226223285Y-116141500D01*
X226150714Y-115996357D01*
X226150714Y-115851214D01*
X226223285Y-115706071D01*
X226295857Y-115633500D01*
X226441000Y-115560928D01*
X226803857Y-115560928D01*
X227021571Y-115633500D01*
D10*
X191476571Y-157805380D02*
X191143238Y-157329190D01*
X190905142Y-157805380D02*
X190905142Y-156805380D01*
X191286095Y-156805380D01*
X191381333Y-156853000D01*
X191428952Y-156900619D01*
X191476571Y-156995857D01*
X191476571Y-157138714D01*
X191428952Y-157233952D01*
X191381333Y-157281571D01*
X191286095Y-157329190D01*
X190905142Y-157329190D01*
X192286095Y-157757761D02*
X192190857Y-157805380D01*
X192000380Y-157805380D01*
X191905142Y-157757761D01*
X191857523Y-157662523D01*
X191857523Y-157281571D01*
X191905142Y-157186333D01*
X192000380Y-157138714D01*
X192190857Y-157138714D01*
X192286095Y-157186333D01*
X192333714Y-157281571D01*
X192333714Y-157376809D01*
X191857523Y-157472047D01*
X192667047Y-157138714D02*
X192905142Y-157805380D01*
X193143238Y-157138714D01*
X194809904Y-157805380D02*
X194238476Y-157805380D01*
X194524190Y-157805380D02*
X194524190Y-156805380D01*
X194428952Y-156948238D01*
X194333714Y-157043476D01*
X194238476Y-157091095D01*
X195238476Y-157710142D02*
X195286095Y-157757761D01*
X195238476Y-157805380D01*
X195190857Y-157757761D01*
X195238476Y-157710142D01*
X195238476Y-157805380D01*
X195905142Y-156805380D02*
X196000380Y-156805380D01*
X196095619Y-156853000D01*
X196143238Y-156900619D01*
X196190857Y-156995857D01*
X196238476Y-157186333D01*
X196238476Y-157424428D01*
X196190857Y-157614904D01*
X196143238Y-157710142D01*
X196095619Y-157757761D01*
X196000380Y-157805380D01*
X195905142Y-157805380D01*
X195809904Y-157757761D01*
X195762285Y-157710142D01*
X195714666Y-157614904D01*
X195667047Y-157424428D01*
X195667047Y-157186333D01*
X195714666Y-156995857D01*
X195762285Y-156900619D01*
X195809904Y-156853000D01*
X195905142Y-156805380D01*
D13*
X249588928Y-142169571D02*
X249731785Y-142217190D01*
X249779404Y-142264809D01*
X249827023Y-142360047D01*
X249827023Y-142502904D01*
X249779404Y-142598142D01*
X249731785Y-142645761D01*
X249636547Y-142693380D01*
X249255595Y-142693380D01*
X249255595Y-141693380D01*
X249588928Y-141693380D01*
X249684166Y-141741000D01*
X249731785Y-141788619D01*
X249779404Y-141883857D01*
X249779404Y-141979095D01*
X249731785Y-142074333D01*
X249684166Y-142121952D01*
X249588928Y-142169571D01*
X249255595Y-142169571D01*
X250398452Y-142693380D02*
X250303214Y-142645761D01*
X250255595Y-142598142D01*
X250207976Y-142502904D01*
X250207976Y-142217190D01*
X250255595Y-142121952D01*
X250303214Y-142074333D01*
X250398452Y-142026714D01*
X250541309Y-142026714D01*
X250636547Y-142074333D01*
X250684166Y-142121952D01*
X250731785Y-142217190D01*
X250731785Y-142502904D01*
X250684166Y-142598142D01*
X250636547Y-142645761D01*
X250541309Y-142693380D01*
X250398452Y-142693380D01*
X251303214Y-142693380D02*
X251207976Y-142645761D01*
X251160357Y-142598142D01*
X251112738Y-142502904D01*
X251112738Y-142217190D01*
X251160357Y-142121952D01*
X251207976Y-142074333D01*
X251303214Y-142026714D01*
X251446071Y-142026714D01*
X251541309Y-142074333D01*
X251588928Y-142121952D01*
X251636547Y-142217190D01*
X251636547Y-142502904D01*
X251588928Y-142598142D01*
X251541309Y-142645761D01*
X251446071Y-142693380D01*
X251303214Y-142693380D01*
X251922261Y-142026714D02*
X252303214Y-142026714D01*
X252065119Y-141693380D02*
X252065119Y-142550523D01*
X252112738Y-142645761D01*
X252207976Y-142693380D01*
X252303214Y-142693380D01*
X253969880Y-142693380D02*
X253636547Y-142217190D01*
X253398452Y-142693380D02*
X253398452Y-141693380D01*
X253779404Y-141693380D01*
X253874642Y-141741000D01*
X253922261Y-141788619D01*
X253969880Y-141883857D01*
X253969880Y-142026714D01*
X253922261Y-142121952D01*
X253874642Y-142169571D01*
X253779404Y-142217190D01*
X253398452Y-142217190D01*
X254588928Y-141693380D02*
X254779404Y-141693380D01*
X254874642Y-141741000D01*
X254969880Y-141836238D01*
X255017500Y-142026714D01*
X255017500Y-142360047D01*
X254969880Y-142550523D01*
X254874642Y-142645761D01*
X254779404Y-142693380D01*
X254588928Y-142693380D01*
X254493690Y-142645761D01*
X254398452Y-142550523D01*
X254350833Y-142360047D01*
X254350833Y-142026714D01*
X254398452Y-141836238D01*
X254493690Y-141741000D01*
X254588928Y-141693380D01*
X255446071Y-142693380D02*
X255446071Y-141693380D01*
X255779404Y-142407666D01*
X256112738Y-141693380D01*
X256112738Y-142693380D01*
X249255595Y-144343380D02*
X249255595Y-143343380D01*
X249588928Y-144057666D01*
X249922261Y-143343380D01*
X249922261Y-144343380D01*
X250779404Y-144295761D02*
X250684166Y-144343380D01*
X250493690Y-144343380D01*
X250398452Y-144295761D01*
X250350833Y-144200523D01*
X250350833Y-143819571D01*
X250398452Y-143724333D01*
X250493690Y-143676714D01*
X250684166Y-143676714D01*
X250779404Y-143724333D01*
X250827023Y-143819571D01*
X250827023Y-143914809D01*
X250350833Y-144010047D01*
X251255595Y-144343380D02*
X251255595Y-143676714D01*
X251255595Y-143771952D02*
X251303214Y-143724333D01*
X251398452Y-143676714D01*
X251541309Y-143676714D01*
X251636547Y-143724333D01*
X251684166Y-143819571D01*
X251684166Y-144343380D01*
X251684166Y-143819571D02*
X251731785Y-143724333D01*
X251827023Y-143676714D01*
X251969880Y-143676714D01*
X252065119Y-143724333D01*
X252112738Y-143819571D01*
X252112738Y-144343380D01*
X252731785Y-144343380D02*
X252636547Y-144295761D01*
X252588928Y-144248142D01*
X252541309Y-144152904D01*
X252541309Y-143867190D01*
X252588928Y-143771952D01*
X252636547Y-143724333D01*
X252731785Y-143676714D01*
X252874642Y-143676714D01*
X252969880Y-143724333D01*
X253017500Y-143771952D01*
X253065119Y-143867190D01*
X253065119Y-144152904D01*
X253017500Y-144248142D01*
X252969880Y-144295761D01*
X252874642Y-144343380D01*
X252731785Y-144343380D01*
X253493690Y-144343380D02*
X253493690Y-143676714D01*
X253493690Y-143867190D02*
X253541309Y-143771952D01*
X253588928Y-143724333D01*
X253684166Y-143676714D01*
X253779404Y-143676714D01*
X254017500Y-143676714D02*
X254255595Y-144343380D01*
X254493690Y-143676714D02*
X254255595Y-144343380D01*
X254160357Y-144581476D01*
X254112738Y-144629095D01*
X254017500Y-144676714D01*
X255588928Y-144057666D02*
X256065119Y-144057666D01*
X255493690Y-144343380D02*
X255827023Y-143343380D01*
X256160357Y-144343380D01*
X256922261Y-144343380D02*
X256922261Y-143343380D01*
X256922261Y-144295761D02*
X256827023Y-144343380D01*
X256636547Y-144343380D01*
X256541309Y-144295761D01*
X256493690Y-144248142D01*
X256446071Y-144152904D01*
X256446071Y-143867190D01*
X256493690Y-143771952D01*
X256541309Y-143724333D01*
X256636547Y-143676714D01*
X256827023Y-143676714D01*
X256922261Y-143724333D01*
X257827023Y-144343380D02*
X257827023Y-143343380D01*
X257827023Y-144295761D02*
X257731785Y-144343380D01*
X257541309Y-144343380D01*
X257446071Y-144295761D01*
X257398452Y-144248142D01*
X257350833Y-144152904D01*
X257350833Y-143867190D01*
X257398452Y-143771952D01*
X257446071Y-143724333D01*
X257541309Y-143676714D01*
X257731785Y-143676714D01*
X257827023Y-143724333D01*
X258303214Y-144343380D02*
X258303214Y-143676714D01*
X258303214Y-143867190D02*
X258350833Y-143771952D01*
X258398452Y-143724333D01*
X258493690Y-143676714D01*
X258588928Y-143676714D01*
X259303214Y-144295761D02*
X259207976Y-144343380D01*
X259017500Y-144343380D01*
X258922261Y-144295761D01*
X258874642Y-144200523D01*
X258874642Y-143819571D01*
X258922261Y-143724333D01*
X259017500Y-143676714D01*
X259207976Y-143676714D01*
X259303214Y-143724333D01*
X259350833Y-143819571D01*
X259350833Y-143914809D01*
X258874642Y-144010047D01*
X259731785Y-144295761D02*
X259827023Y-144343380D01*
X260017500Y-144343380D01*
X260112738Y-144295761D01*
X260160357Y-144200523D01*
X260160357Y-144152904D01*
X260112738Y-144057666D01*
X260017500Y-144010047D01*
X259874642Y-144010047D01*
X259779404Y-143962428D01*
X259731785Y-143867190D01*
X259731785Y-143819571D01*
X259779404Y-143724333D01*
X259874642Y-143676714D01*
X260017500Y-143676714D01*
X260112738Y-143724333D01*
X260541309Y-144295761D02*
X260636547Y-144343380D01*
X260827023Y-144343380D01*
X260922261Y-144295761D01*
X260969880Y-144200523D01*
X260969880Y-144152904D01*
X260922261Y-144057666D01*
X260827023Y-144010047D01*
X260684166Y-144010047D01*
X260588928Y-143962428D01*
X260541309Y-143867190D01*
X260541309Y-143819571D01*
X260588928Y-143724333D01*
X260684166Y-143676714D01*
X260827023Y-143676714D01*
X260922261Y-143724333D01*
X249207976Y-145945761D02*
X249350833Y-145993380D01*
X249588928Y-145993380D01*
X249684166Y-145945761D01*
X249731785Y-145898142D01*
X249779404Y-145802904D01*
X249779404Y-145707666D01*
X249731785Y-145612428D01*
X249684166Y-145564809D01*
X249588928Y-145517190D01*
X249398452Y-145469571D01*
X249303214Y-145421952D01*
X249255595Y-145374333D01*
X249207976Y-145279095D01*
X249207976Y-145183857D01*
X249255595Y-145088619D01*
X249303214Y-145041000D01*
X249398452Y-144993380D01*
X249636547Y-144993380D01*
X249779404Y-145041000D01*
X250112738Y-145326714D02*
X250303214Y-145993380D01*
X250493690Y-145517190D01*
X250684166Y-145993380D01*
X250874642Y-145326714D01*
X251255595Y-145993380D02*
X251255595Y-145326714D01*
X251255595Y-144993380D02*
X251207976Y-145041000D01*
X251255595Y-145088619D01*
X251303214Y-145041000D01*
X251255595Y-144993380D01*
X251255595Y-145088619D01*
X251588928Y-145326714D02*
X251969880Y-145326714D01*
X251731785Y-144993380D02*
X251731785Y-145850523D01*
X251779404Y-145945761D01*
X251874642Y-145993380D01*
X251969880Y-145993380D01*
X252731785Y-145945761D02*
X252636547Y-145993380D01*
X252446071Y-145993380D01*
X252350833Y-145945761D01*
X252303214Y-145898142D01*
X252255595Y-145802904D01*
X252255595Y-145517190D01*
X252303214Y-145421952D01*
X252350833Y-145374333D01*
X252446071Y-145326714D01*
X252636547Y-145326714D01*
X252731785Y-145374333D01*
X253160357Y-145993380D02*
X253160357Y-144993380D01*
X253588928Y-145993380D02*
X253588928Y-145469571D01*
X253541309Y-145374333D01*
X253446071Y-145326714D01*
X253303214Y-145326714D01*
X253207976Y-145374333D01*
X253160357Y-145421952D01*
X254779404Y-145945761D02*
X254922261Y-145993380D01*
X255160357Y-145993380D01*
X255255595Y-145945761D01*
X255303214Y-145898142D01*
X255350833Y-145802904D01*
X255350833Y-145707666D01*
X255303214Y-145612428D01*
X255255595Y-145564809D01*
X255160357Y-145517190D01*
X254969880Y-145469571D01*
X254874642Y-145421952D01*
X254827023Y-145374333D01*
X254779404Y-145279095D01*
X254779404Y-145183857D01*
X254827023Y-145088619D01*
X254874642Y-145041000D01*
X254969880Y-144993380D01*
X255207976Y-144993380D01*
X255350833Y-145041000D01*
X256160357Y-145945761D02*
X256065119Y-145993380D01*
X255874642Y-145993380D01*
X255779404Y-145945761D01*
X255731785Y-145850523D01*
X255731785Y-145469571D01*
X255779404Y-145374333D01*
X255874642Y-145326714D01*
X256065119Y-145326714D01*
X256160357Y-145374333D01*
X256207976Y-145469571D01*
X256207976Y-145564809D01*
X255731785Y-145660047D01*
X256493690Y-145326714D02*
X256874642Y-145326714D01*
X256636547Y-144993380D02*
X256636547Y-145850523D01*
X256684166Y-145945761D01*
X256779404Y-145993380D01*
X256874642Y-145993380D01*
X257065119Y-145326714D02*
X257446071Y-145326714D01*
X257207976Y-144993380D02*
X257207976Y-145850523D01*
X257255595Y-145945761D01*
X257350833Y-145993380D01*
X257446071Y-145993380D01*
X257779404Y-145993380D02*
X257779404Y-145326714D01*
X257779404Y-144993380D02*
X257731785Y-145041000D01*
X257779404Y-145088619D01*
X257827023Y-145041000D01*
X257779404Y-144993380D01*
X257779404Y-145088619D01*
X258255595Y-145326714D02*
X258255595Y-145993380D01*
X258255595Y-145421952D02*
X258303214Y-145374333D01*
X258398452Y-145326714D01*
X258541309Y-145326714D01*
X258636547Y-145374333D01*
X258684166Y-145469571D01*
X258684166Y-145993380D01*
X259588928Y-145326714D02*
X259588928Y-146136238D01*
X259541309Y-146231476D01*
X259493690Y-146279095D01*
X259398452Y-146326714D01*
X259255595Y-146326714D01*
X259160357Y-146279095D01*
X259588928Y-145945761D02*
X259493690Y-145993380D01*
X259303214Y-145993380D01*
X259207976Y-145945761D01*
X259160357Y-145898142D01*
X259112738Y-145802904D01*
X259112738Y-145517190D01*
X259160357Y-145421952D01*
X259207976Y-145374333D01*
X259303214Y-145326714D01*
X259493690Y-145326714D01*
X259588928Y-145374333D01*
X260017500Y-145945761D02*
X260112738Y-145993380D01*
X260303214Y-145993380D01*
X260398452Y-145945761D01*
X260446071Y-145850523D01*
X260446071Y-145802904D01*
X260398452Y-145707666D01*
X260303214Y-145660047D01*
X260160357Y-145660047D01*
X260065119Y-145612428D01*
X260017500Y-145517190D01*
X260017500Y-145469571D01*
X260065119Y-145374333D01*
X260160357Y-145326714D01*
X260303214Y-145326714D01*
X260398452Y-145374333D01*
D15*
X226902000Y-131589000D02*
X226902000Y-121689000D01*
X244442000Y-131589000D02*
X244442000Y-121689000D01*
X226902000Y-131589000D02*
X244442000Y-131589000D01*
X226902000Y-121689000D02*
X244442000Y-121689000D01*
X226662000Y-131829000D02*
X226662000Y-130445000D01*
X226662000Y-131829000D02*
X228045000Y-131829000D01*
X228687000Y-128669000D02*
X229957000Y-128669000D01*
X229957000Y-128669000D02*
X229957000Y-124609000D01*
X229957000Y-124609000D02*
X228687000Y-124609000D01*
X228687000Y-124609000D02*
X228687000Y-128669000D01*
X228807000Y-128669000D02*
X228807000Y-127315667D01*
X228927000Y-128669000D02*
X228927000Y-127315667D01*
X229047000Y-128669000D02*
X229047000Y-127315667D01*
X229167000Y-128669000D02*
X229167000Y-127315667D01*
X229287000Y-128669000D02*
X229287000Y-127315667D01*
X229407000Y-128669000D02*
X229407000Y-127315667D01*
X229527000Y-128669000D02*
X229527000Y-127315667D01*
X229647000Y-128669000D02*
X229647000Y-127315667D01*
X229767000Y-128669000D02*
X229767000Y-127315667D01*
X229887000Y-128669000D02*
X229887000Y-127315667D01*
X228687000Y-127315667D02*
X229957000Y-127315667D01*
X231227000Y-128669000D02*
X232497000Y-128669000D01*
X232497000Y-128669000D02*
X232497000Y-124609000D01*
X232497000Y-124609000D02*
X231227000Y-124609000D01*
X231227000Y-124609000D02*
X231227000Y-128669000D01*
X231347000Y-128669000D02*
X231347000Y-127315667D01*
X231467000Y-128669000D02*
X231467000Y-127315667D01*
X231587000Y-128669000D02*
X231587000Y-127315667D01*
X231707000Y-128669000D02*
X231707000Y-127315667D01*
X231827000Y-128669000D02*
X231827000Y-127315667D01*
X231947000Y-128669000D02*
X231947000Y-127315667D01*
X232067000Y-128669000D02*
X232067000Y-127315667D01*
X232187000Y-128669000D02*
X232187000Y-127315667D01*
X232307000Y-128669000D02*
X232307000Y-127315667D01*
X232427000Y-128669000D02*
X232427000Y-127315667D01*
X231227000Y-127315667D02*
X232497000Y-127315667D01*
X233767000Y-128669000D02*
X235037000Y-128669000D01*
X235037000Y-128669000D02*
X235037000Y-124609000D01*
X235037000Y-124609000D02*
X233767000Y-124609000D01*
X233767000Y-124609000D02*
X233767000Y-128669000D01*
X233887000Y-128669000D02*
X233887000Y-127315667D01*
X234007000Y-128669000D02*
X234007000Y-127315667D01*
X234127000Y-128669000D02*
X234127000Y-127315667D01*
X234247000Y-128669000D02*
X234247000Y-127315667D01*
X234367000Y-128669000D02*
X234367000Y-127315667D01*
X234487000Y-128669000D02*
X234487000Y-127315667D01*
X234607000Y-128669000D02*
X234607000Y-127315667D01*
X234727000Y-128669000D02*
X234727000Y-127315667D01*
X234847000Y-128669000D02*
X234847000Y-127315667D01*
X234967000Y-128669000D02*
X234967000Y-127315667D01*
X233767000Y-127315667D02*
X235037000Y-127315667D01*
X236307000Y-128669000D02*
X237577000Y-128669000D01*
X237577000Y-128669000D02*
X237577000Y-124609000D01*
X237577000Y-124609000D02*
X236307000Y-124609000D01*
X236307000Y-124609000D02*
X236307000Y-128669000D01*
X236427000Y-128669000D02*
X236427000Y-127315667D01*
X236547000Y-128669000D02*
X236547000Y-127315667D01*
X236667000Y-128669000D02*
X236667000Y-127315667D01*
X236787000Y-128669000D02*
X236787000Y-127315667D01*
X236907000Y-128669000D02*
X236907000Y-127315667D01*
X237027000Y-128669000D02*
X237027000Y-127315667D01*
X237147000Y-128669000D02*
X237147000Y-127315667D01*
X237267000Y-128669000D02*
X237267000Y-127315667D01*
X237387000Y-128669000D02*
X237387000Y-127315667D01*
X237507000Y-128669000D02*
X237507000Y-127315667D01*
X236307000Y-127315667D02*
X237577000Y-127315667D01*
X238847000Y-128669000D02*
X240117000Y-128669000D01*
X240117000Y-128669000D02*
X240117000Y-124609000D01*
X240117000Y-124609000D02*
X238847000Y-124609000D01*
X238847000Y-124609000D02*
X238847000Y-128669000D01*
X238967000Y-128669000D02*
X238967000Y-127315667D01*
X239087000Y-128669000D02*
X239087000Y-127315667D01*
X239207000Y-128669000D02*
X239207000Y-127315667D01*
X239327000Y-128669000D02*
X239327000Y-127315667D01*
X239447000Y-128669000D02*
X239447000Y-127315667D01*
X239567000Y-128669000D02*
X239567000Y-127315667D01*
X239687000Y-128669000D02*
X239687000Y-127315667D01*
X239807000Y-128669000D02*
X239807000Y-127315667D01*
X239927000Y-128669000D02*
X239927000Y-127315667D01*
X240047000Y-128669000D02*
X240047000Y-127315667D01*
X238847000Y-127315667D02*
X240117000Y-127315667D01*
X241387000Y-128669000D02*
X242657000Y-128669000D01*
X242657000Y-128669000D02*
X242657000Y-124609000D01*
X242657000Y-124609000D02*
X241387000Y-124609000D01*
X241387000Y-124609000D02*
X241387000Y-128669000D01*
X241507000Y-128669000D02*
X241507000Y-127315667D01*
X241627000Y-128669000D02*
X241627000Y-127315667D01*
X241747000Y-128669000D02*
X241747000Y-127315667D01*
X241867000Y-128669000D02*
X241867000Y-127315667D01*
X241987000Y-128669000D02*
X241987000Y-127315667D01*
X242107000Y-128669000D02*
X242107000Y-127315667D01*
X242227000Y-128669000D02*
X242227000Y-127315667D01*
X242347000Y-128669000D02*
X242347000Y-127315667D01*
X242467000Y-128669000D02*
X242467000Y-127315667D01*
X242587000Y-128669000D02*
X242587000Y-127315667D01*
X241387000Y-127315667D02*
X242657000Y-127315667D01*
X223640000Y-135690000D02*
X223640000Y-117790000D01*
X182760000Y-135690000D02*
X223640000Y-135690000D01*
X182760000Y-117790000D02*
X182760000Y-135690000D01*
X223640000Y-117790000D02*
X182760000Y-117790000D01*
X223580000Y-133200000D02*
X223580000Y-127740000D01*
X182820000Y-133200000D02*
X223580000Y-133200000D01*
X182820000Y-120280000D02*
X182820000Y-133200000D01*
X223580000Y-120280000D02*
X182820000Y-120280000D01*
X223580000Y-125740000D02*
X223580000Y-120280000D01*
X223580000Y-127740000D02*
G75*
G02*
X223580000Y-125740000I0J1000000D01*
G01*
X187772288Y-158913000D02*
X187772288Y-158463000D01*
X187997288Y-158688000D02*
X187547288Y-158688000D01*
X183340260Y-158413000D02*
G75*
G03*
X187579741Y-158413000I2119740J1060000D01*
G01*
X183340260Y-156293000D02*
G75*
G02*
X187579741Y-156293000I2119740J-1060000D01*
G01*
X220892000Y-148773000D02*
X220907000Y-148773000D01*
X218767000Y-148773000D02*
X218782000Y-148773000D01*
X220892000Y-153313000D02*
X220907000Y-153313000D01*
X218767000Y-153313000D02*
X218782000Y-153313000D01*
X220907000Y-153313000D02*
X220907000Y-148773000D01*
X218767000Y-153313000D02*
X218767000Y-148773000D01*
X224000000Y-131790000D02*
X224000000Y-127250000D01*
X226140000Y-131790000D02*
X226140000Y-127250000D01*
X224000000Y-131790000D02*
X224015000Y-131790000D01*
X226125000Y-131790000D02*
X226140000Y-131790000D01*
X224000000Y-127250000D02*
X224015000Y-127250000D01*
X226125000Y-127250000D02*
X226140000Y-127250000D01*
X226900000Y-118300000D02*
X226900000Y-121100000D01*
X226900000Y-121100000D02*
X245020000Y-121100000D01*
X245020000Y-121100000D02*
X245020000Y-118300000D01*
X245020000Y-118300000D02*
X226900000Y-118300000D01*
X229610000Y-118300000D02*
X229610000Y-121100000D01*
X225340000Y-137710000D02*
X225340000Y-140510000D01*
X240750000Y-137710000D02*
X222630000Y-137710000D01*
X240750000Y-140510000D02*
X240750000Y-137710000D01*
X222630000Y-140510000D02*
X240750000Y-140510000D01*
X222630000Y-137710000D02*
X222630000Y-140510000D01*
X228040000Y-134220000D02*
X228040000Y-137020000D01*
X243450000Y-134220000D02*
X225330000Y-134220000D01*
X243450000Y-137020000D02*
X243450000Y-134220000D01*
X225330000Y-137020000D02*
X243450000Y-137020000D01*
X225330000Y-134220000D02*
X225330000Y-137020000D01*
X237617000Y-146472667D02*
X238887000Y-146472667D01*
X238817000Y-147826000D02*
X238817000Y-146472667D01*
X238697000Y-147826000D02*
X238697000Y-146472667D01*
X238577000Y-147826000D02*
X238577000Y-146472667D01*
X238457000Y-147826000D02*
X238457000Y-146472667D01*
X238337000Y-147826000D02*
X238337000Y-146472667D01*
X238217000Y-147826000D02*
X238217000Y-146472667D01*
X238097000Y-147826000D02*
X238097000Y-146472667D01*
X237977000Y-147826000D02*
X237977000Y-146472667D01*
X237857000Y-147826000D02*
X237857000Y-146472667D01*
X237737000Y-147826000D02*
X237737000Y-146472667D01*
X237617000Y-143766000D02*
X237617000Y-147826000D01*
X238887000Y-143766000D02*
X237617000Y-143766000D01*
X238887000Y-147826000D02*
X238887000Y-143766000D01*
X237617000Y-147826000D02*
X238887000Y-147826000D01*
X235077000Y-146472667D02*
X236347000Y-146472667D01*
X236277000Y-147826000D02*
X236277000Y-146472667D01*
X236157000Y-147826000D02*
X236157000Y-146472667D01*
X236037000Y-147826000D02*
X236037000Y-146472667D01*
X235917000Y-147826000D02*
X235917000Y-146472667D01*
X235797000Y-147826000D02*
X235797000Y-146472667D01*
X235677000Y-147826000D02*
X235677000Y-146472667D01*
X235557000Y-147826000D02*
X235557000Y-146472667D01*
X235437000Y-147826000D02*
X235437000Y-146472667D01*
X235317000Y-147826000D02*
X235317000Y-146472667D01*
X235197000Y-147826000D02*
X235197000Y-146472667D01*
X235077000Y-143766000D02*
X235077000Y-147826000D01*
X236347000Y-143766000D02*
X235077000Y-143766000D01*
X236347000Y-147826000D02*
X236347000Y-143766000D01*
X235077000Y-147826000D02*
X236347000Y-147826000D01*
X232537000Y-146472667D02*
X233807000Y-146472667D01*
X233737000Y-147826000D02*
X233737000Y-146472667D01*
X233617000Y-147826000D02*
X233617000Y-146472667D01*
X233497000Y-147826000D02*
X233497000Y-146472667D01*
X233377000Y-147826000D02*
X233377000Y-146472667D01*
X233257000Y-147826000D02*
X233257000Y-146472667D01*
X233137000Y-147826000D02*
X233137000Y-146472667D01*
X233017000Y-147826000D02*
X233017000Y-146472667D01*
X232897000Y-147826000D02*
X232897000Y-146472667D01*
X232777000Y-147826000D02*
X232777000Y-146472667D01*
X232657000Y-147826000D02*
X232657000Y-146472667D01*
X232537000Y-143766000D02*
X232537000Y-147826000D01*
X233807000Y-143766000D02*
X232537000Y-143766000D01*
X233807000Y-147826000D02*
X233807000Y-143766000D01*
X232537000Y-147826000D02*
X233807000Y-147826000D01*
X229997000Y-146472667D02*
X231267000Y-146472667D01*
X231197000Y-147826000D02*
X231197000Y-146472667D01*
X231077000Y-147826000D02*
X231077000Y-146472667D01*
X230957000Y-147826000D02*
X230957000Y-146472667D01*
X230837000Y-147826000D02*
X230837000Y-146472667D01*
X230717000Y-147826000D02*
X230717000Y-146472667D01*
X230597000Y-147826000D02*
X230597000Y-146472667D01*
X230477000Y-147826000D02*
X230477000Y-146472667D01*
X230357000Y-147826000D02*
X230357000Y-146472667D01*
X230237000Y-147826000D02*
X230237000Y-146472667D01*
X230117000Y-147826000D02*
X230117000Y-146472667D01*
X229997000Y-143766000D02*
X229997000Y-147826000D01*
X231267000Y-143766000D02*
X229997000Y-143766000D01*
X231267000Y-147826000D02*
X231267000Y-143766000D01*
X229997000Y-147826000D02*
X231267000Y-147826000D01*
X227457000Y-146472667D02*
X228727000Y-146472667D01*
X228657000Y-147826000D02*
X228657000Y-146472667D01*
X228537000Y-147826000D02*
X228537000Y-146472667D01*
X228417000Y-147826000D02*
X228417000Y-146472667D01*
X228297000Y-147826000D02*
X228297000Y-146472667D01*
X228177000Y-147826000D02*
X228177000Y-146472667D01*
X228057000Y-147826000D02*
X228057000Y-146472667D01*
X227937000Y-147826000D02*
X227937000Y-146472667D01*
X227817000Y-147826000D02*
X227817000Y-146472667D01*
X227697000Y-147826000D02*
X227697000Y-146472667D01*
X227577000Y-147826000D02*
X227577000Y-146472667D01*
X227457000Y-143766000D02*
X227457000Y-147826000D01*
X228727000Y-143766000D02*
X227457000Y-143766000D01*
X228727000Y-147826000D02*
X228727000Y-143766000D01*
X227457000Y-147826000D02*
X228727000Y-147826000D01*
X224917000Y-146472667D02*
X226187000Y-146472667D01*
X226117000Y-147826000D02*
X226117000Y-146472667D01*
X225997000Y-147826000D02*
X225997000Y-146472667D01*
X225877000Y-147826000D02*
X225877000Y-146472667D01*
X225757000Y-147826000D02*
X225757000Y-146472667D01*
X225637000Y-147826000D02*
X225637000Y-146472667D01*
X225517000Y-147826000D02*
X225517000Y-146472667D01*
X225397000Y-147826000D02*
X225397000Y-146472667D01*
X225277000Y-147826000D02*
X225277000Y-146472667D01*
X225157000Y-147826000D02*
X225157000Y-146472667D01*
X225037000Y-147826000D02*
X225037000Y-146472667D01*
X224917000Y-143766000D02*
X224917000Y-147826000D01*
X226187000Y-143766000D02*
X224917000Y-143766000D01*
X226187000Y-147826000D02*
X226187000Y-143766000D01*
X224917000Y-147826000D02*
X226187000Y-147826000D01*
X222892000Y-150986000D02*
X224275000Y-150986000D01*
X222892000Y-150986000D02*
X222892000Y-149602000D01*
X223132000Y-140846000D02*
X240672000Y-140846000D01*
X223132000Y-150746000D02*
X240672000Y-150746000D01*
X240672000Y-150746000D02*
X240672000Y-140846000D01*
X223132000Y-150746000D02*
X223132000Y-140846000D01*
D16*
X242598000Y-150473000D02*
X246098000Y-150473000D01*
X246098000Y-141373000D02*
X242598000Y-141373000D01*
D15*
X218500000Y-144923000D02*
X218500000Y-139463000D01*
X218500000Y-139463000D02*
X182820000Y-139463000D01*
X182820000Y-139463000D02*
X182820000Y-152383000D01*
X182820000Y-152383000D02*
X218500000Y-152383000D01*
X218500000Y-152383000D02*
X218500000Y-146923000D01*
X218560000Y-136973000D02*
X182760000Y-136973000D01*
X182760000Y-136973000D02*
X182760000Y-154873000D01*
X182760000Y-154873000D02*
X218560000Y-154873000D01*
X218560000Y-154873000D02*
X218560000Y-136973000D01*
D17*
G36*
X217170000Y-139509500D02*
G01*
X217170000Y-152336500D01*
X216535000Y-152336500D01*
X216535000Y-139509500D01*
X217170000Y-139509500D01*
G37*
X217170000Y-139509500D02*
X217170000Y-152336500D01*
X216535000Y-152336500D01*
X216535000Y-139509500D01*
X217170000Y-139509500D01*
D15*
X218500000Y-146923000D02*
G75*
G02*
X218500000Y-144923000I0J1000000D01*
G01*
D17*
G36*
X212090000Y-124142500D02*
G01*
X212090000Y-129349500D01*
X211455000Y-129349500D01*
X211455000Y-124142500D01*
X212090000Y-124142500D01*
G37*
X212090000Y-124142500D02*
X212090000Y-129349500D01*
X211455000Y-129349500D01*
X211455000Y-124142500D01*
X212090000Y-124142500D01*
D15*
X213420000Y-125746000D02*
X213420000Y-124096000D01*
X213420000Y-124096000D02*
X187900000Y-124096000D01*
X187900000Y-124096000D02*
X187900000Y-129396000D01*
X187900000Y-129396000D02*
X213420000Y-129396000D01*
X213420000Y-129396000D02*
X213420000Y-127746000D01*
X213420000Y-127746000D02*
G75*
G02*
X213420000Y-125746000I0J1000000D01*
G01*
X213420000Y-148573000D02*
X213420000Y-146923000D01*
X187900000Y-148573000D02*
X213420000Y-148573000D01*
X187900000Y-143273000D02*
X187900000Y-148573000D01*
X213420000Y-143273000D02*
X187900000Y-143273000D01*
X213420000Y-144923000D02*
X213420000Y-143273000D01*
D17*
G36*
X212090000Y-143319500D02*
G01*
X212090000Y-148526500D01*
X211455000Y-148526500D01*
X211455000Y-143319500D01*
X212090000Y-143319500D01*
G37*
X212090000Y-143319500D02*
X212090000Y-148526500D01*
X211455000Y-148526500D01*
X211455000Y-143319500D01*
X212090000Y-143319500D01*
D15*
X213420000Y-146923000D02*
G75*
G02*
X213420000Y-144923000I0J1000000D01*
G01*
X255087000Y-140628000D02*
X255087000Y-140643000D01*
X255087000Y-138503000D02*
X255087000Y-138518000D01*
X250547000Y-140628000D02*
X250547000Y-140643000D01*
X250547000Y-138503000D02*
X250547000Y-138518000D01*
X250547000Y-140643000D02*
X255087000Y-140643000D01*
X250547000Y-138503000D02*
X255087000Y-138503000D01*
D13*
X185618095Y-116082380D02*
X185618095Y-116891904D01*
X185665714Y-116987142D01*
X185713333Y-117034761D01*
X185808571Y-117082380D01*
X185999047Y-117082380D01*
X186094285Y-117034761D01*
X186141904Y-116987142D01*
X186189523Y-116891904D01*
X186189523Y-116082380D01*
X187189523Y-117082380D02*
X186618095Y-117082380D01*
X186903809Y-117082380D02*
X186903809Y-116082380D01*
X186808571Y-116225238D01*
X186713333Y-116320476D01*
X186618095Y-116368095D01*
X184388571Y-157805380D02*
X183817142Y-157805380D01*
X184102857Y-157805380D02*
X184102857Y-156805380D01*
X184007619Y-156948238D01*
X183912380Y-157043476D01*
X183817142Y-157091095D01*
X185007619Y-156805380D02*
X185102857Y-156805380D01*
X185198095Y-156853000D01*
X185245714Y-156900619D01*
X185293333Y-156995857D01*
X185340952Y-157186333D01*
X185340952Y-157424428D01*
X185293333Y-157614904D01*
X185245714Y-157710142D01*
X185198095Y-157757761D01*
X185102857Y-157805380D01*
X185007619Y-157805380D01*
X184912380Y-157757761D01*
X184864761Y-157710142D01*
X184817142Y-157614904D01*
X184769523Y-157424428D01*
X184769523Y-157186333D01*
X184817142Y-156995857D01*
X184864761Y-156900619D01*
X184912380Y-156853000D01*
X185007619Y-156805380D01*
X186198095Y-157138714D02*
X186198095Y-157805380D01*
X185769523Y-157138714D02*
X185769523Y-157662523D01*
X185817142Y-157757761D01*
X185912380Y-157805380D01*
X186055238Y-157805380D01*
X186150476Y-157757761D01*
X186198095Y-157710142D01*
X187007619Y-157281571D02*
X186674285Y-157281571D01*
X186674285Y-157805380D02*
X186674285Y-156805380D01*
X187150476Y-156805380D01*
D15*
X220198904Y-152281095D02*
X220198904Y-152738238D01*
X220198904Y-152509666D02*
X219398904Y-152509666D01*
X219513190Y-152585857D01*
X219589380Y-152662047D01*
X219627476Y-152738238D01*
X219398904Y-151785857D02*
X219398904Y-151709666D01*
X219437000Y-151633476D01*
X219475095Y-151595380D01*
X219551285Y-151557285D01*
X219703666Y-151519190D01*
X219894142Y-151519190D01*
X220046523Y-151557285D01*
X220122714Y-151595380D01*
X220160809Y-151633476D01*
X220198904Y-151709666D01*
X220198904Y-151785857D01*
X220160809Y-151862047D01*
X220122714Y-151900142D01*
X220046523Y-151938238D01*
X219894142Y-151976333D01*
X219703666Y-151976333D01*
X219551285Y-151938238D01*
X219475095Y-151900142D01*
X219437000Y-151862047D01*
X219398904Y-151785857D01*
X219398904Y-151023952D02*
X219398904Y-150947761D01*
X219437000Y-150871571D01*
X219475095Y-150833476D01*
X219551285Y-150795380D01*
X219703666Y-150757285D01*
X219894142Y-150757285D01*
X220046523Y-150795380D01*
X220122714Y-150833476D01*
X220160809Y-150871571D01*
X220198904Y-150947761D01*
X220198904Y-151023952D01*
X220160809Y-151100142D01*
X220122714Y-151138238D01*
X220046523Y-151176333D01*
X219894142Y-151214428D01*
X219703666Y-151214428D01*
X219551285Y-151176333D01*
X219475095Y-151138238D01*
X219437000Y-151100142D01*
X219398904Y-151023952D01*
X219665571Y-150414428D02*
X220198904Y-150414428D01*
X219741761Y-150414428D02*
X219703666Y-150376333D01*
X219665571Y-150300142D01*
X219665571Y-150185857D01*
X219703666Y-150109666D01*
X219779857Y-150071571D01*
X220198904Y-150071571D01*
X219779857Y-149423952D02*
X219779857Y-149690619D01*
X220198904Y-149690619D02*
X219398904Y-149690619D01*
X219398904Y-149309666D01*
X225431904Y-130758095D02*
X225431904Y-131215238D01*
X225431904Y-130986666D02*
X224631904Y-130986666D01*
X224746190Y-131062857D01*
X224822380Y-131139047D01*
X224860476Y-131215238D01*
X224631904Y-130262857D02*
X224631904Y-130186666D01*
X224670000Y-130110476D01*
X224708095Y-130072380D01*
X224784285Y-130034285D01*
X224936666Y-129996190D01*
X225127142Y-129996190D01*
X225279523Y-130034285D01*
X225355714Y-130072380D01*
X225393809Y-130110476D01*
X225431904Y-130186666D01*
X225431904Y-130262857D01*
X225393809Y-130339047D01*
X225355714Y-130377142D01*
X225279523Y-130415238D01*
X225127142Y-130453333D01*
X224936666Y-130453333D01*
X224784285Y-130415238D01*
X224708095Y-130377142D01*
X224670000Y-130339047D01*
X224631904Y-130262857D01*
X224631904Y-129500952D02*
X224631904Y-129424761D01*
X224670000Y-129348571D01*
X224708095Y-129310476D01*
X224784285Y-129272380D01*
X224936666Y-129234285D01*
X225127142Y-129234285D01*
X225279523Y-129272380D01*
X225355714Y-129310476D01*
X225393809Y-129348571D01*
X225431904Y-129424761D01*
X225431904Y-129500952D01*
X225393809Y-129577142D01*
X225355714Y-129615238D01*
X225279523Y-129653333D01*
X225127142Y-129691428D01*
X224936666Y-129691428D01*
X224784285Y-129653333D01*
X224708095Y-129615238D01*
X224670000Y-129577142D01*
X224631904Y-129500952D01*
X224898571Y-128891428D02*
X225431904Y-128891428D01*
X224974761Y-128891428D02*
X224936666Y-128853333D01*
X224898571Y-128777142D01*
X224898571Y-128662857D01*
X224936666Y-128586666D01*
X225012857Y-128548571D01*
X225431904Y-128548571D01*
X225012857Y-127900952D02*
X225012857Y-128167619D01*
X225431904Y-128167619D02*
X224631904Y-128167619D01*
X224631904Y-127786666D01*
D13*
X226633380Y-120390476D02*
X226633380Y-120961904D01*
X226633380Y-120676190D02*
X225633380Y-120676190D01*
X225776238Y-120771428D01*
X225871476Y-120866666D01*
X225919095Y-120961904D01*
X225633380Y-119771428D02*
X225633380Y-119676190D01*
X225681000Y-119580952D01*
X225728619Y-119533333D01*
X225823857Y-119485714D01*
X226014333Y-119438095D01*
X226252428Y-119438095D01*
X226442904Y-119485714D01*
X226538142Y-119533333D01*
X226585761Y-119580952D01*
X226633380Y-119676190D01*
X226633380Y-119771428D01*
X226585761Y-119866666D01*
X226538142Y-119914285D01*
X226442904Y-119961904D01*
X226252428Y-120009523D01*
X226014333Y-120009523D01*
X225823857Y-119961904D01*
X225728619Y-119914285D01*
X225681000Y-119866666D01*
X225633380Y-119771428D01*
X226633380Y-119009523D02*
X225633380Y-119009523D01*
X226633380Y-118438095D02*
X226061952Y-118866666D01*
X225633380Y-118438095D02*
X226204809Y-119009523D01*
X222363380Y-139800476D02*
X222363380Y-140371904D01*
X222363380Y-140086190D02*
X221363380Y-140086190D01*
X221506238Y-140181428D01*
X221601476Y-140276666D01*
X221649095Y-140371904D01*
X221363380Y-139181428D02*
X221363380Y-139086190D01*
X221411000Y-138990952D01*
X221458619Y-138943333D01*
X221553857Y-138895714D01*
X221744333Y-138848095D01*
X221982428Y-138848095D01*
X222172904Y-138895714D01*
X222268142Y-138943333D01*
X222315761Y-138990952D01*
X222363380Y-139086190D01*
X222363380Y-139181428D01*
X222315761Y-139276666D01*
X222268142Y-139324285D01*
X222172904Y-139371904D01*
X221982428Y-139419523D01*
X221744333Y-139419523D01*
X221553857Y-139371904D01*
X221458619Y-139324285D01*
X221411000Y-139276666D01*
X221363380Y-139181428D01*
X222363380Y-138419523D02*
X221363380Y-138419523D01*
X222363380Y-137848095D02*
X221791952Y-138276666D01*
X221363380Y-137848095D02*
X221934809Y-138419523D01*
X247927761Y-147280142D02*
X247975380Y-147137285D01*
X247975380Y-146899190D01*
X247927761Y-146803952D01*
X247880142Y-146756333D01*
X247784904Y-146708714D01*
X247689666Y-146708714D01*
X247594428Y-146756333D01*
X247546809Y-146803952D01*
X247499190Y-146899190D01*
X247451571Y-147089666D01*
X247403952Y-147184904D01*
X247356333Y-147232523D01*
X247261095Y-147280142D01*
X247165857Y-147280142D01*
X247070619Y-147232523D01*
X247023000Y-147184904D01*
X246975380Y-147089666D01*
X246975380Y-146851571D01*
X247023000Y-146708714D01*
X247975380Y-146280142D02*
X247308714Y-146280142D01*
X246975380Y-146280142D02*
X247023000Y-146327761D01*
X247070619Y-146280142D01*
X247023000Y-146232523D01*
X246975380Y-146280142D01*
X247070619Y-146280142D01*
X247308714Y-145899190D02*
X247308714Y-145375380D01*
X247975380Y-145899190D01*
X247975380Y-145375380D01*
X247927761Y-144613476D02*
X247975380Y-144708714D01*
X247975380Y-144899190D01*
X247927761Y-144994428D01*
X247832523Y-145042047D01*
X247451571Y-145042047D01*
X247356333Y-144994428D01*
X247308714Y-144899190D01*
X247308714Y-144708714D01*
X247356333Y-144613476D01*
X247451571Y-144565857D01*
X247546809Y-144565857D01*
X247642047Y-145042047D01*
X199018095Y-156272380D02*
X199018095Y-157081904D01*
X199065714Y-157177142D01*
X199113333Y-157224761D01*
X199208571Y-157272380D01*
X199399047Y-157272380D01*
X199494285Y-157224761D01*
X199541904Y-157177142D01*
X199589523Y-157081904D01*
X199589523Y-156272380D01*
X200018095Y-156367619D02*
X200065714Y-156320000D01*
X200160952Y-156272380D01*
X200399047Y-156272380D01*
X200494285Y-156320000D01*
X200541904Y-156367619D01*
X200589523Y-156462857D01*
X200589523Y-156558095D01*
X200541904Y-156700952D01*
X199970476Y-157272380D01*
X200589523Y-157272380D01*
X197477452Y-126198380D02*
X198144119Y-126198380D01*
X197715547Y-127198380D01*
X198953642Y-126531714D02*
X198953642Y-127198380D01*
X198715547Y-126150761D02*
X198477452Y-126865047D01*
X199096500Y-126865047D01*
X199953642Y-127198380D02*
X199477452Y-127198380D01*
X199477452Y-126198380D01*
X200239357Y-127150761D02*
X200382214Y-127198380D01*
X200620309Y-127198380D01*
X200715547Y-127150761D01*
X200763166Y-127103142D01*
X200810785Y-127007904D01*
X200810785Y-126912666D01*
X200763166Y-126817428D01*
X200715547Y-126769809D01*
X200620309Y-126722190D01*
X200429833Y-126674571D01*
X200334595Y-126626952D01*
X200286976Y-126579333D01*
X200239357Y-126484095D01*
X200239357Y-126388857D01*
X200286976Y-126293619D01*
X200334595Y-126246000D01*
X200429833Y-126198380D01*
X200667928Y-126198380D01*
X200810785Y-126246000D01*
X201667928Y-126198380D02*
X201477452Y-126198380D01*
X201382214Y-126246000D01*
X201334595Y-126293619D01*
X201239357Y-126436476D01*
X201191738Y-126626952D01*
X201191738Y-127007904D01*
X201239357Y-127103142D01*
X201286976Y-127150761D01*
X201382214Y-127198380D01*
X201572690Y-127198380D01*
X201667928Y-127150761D01*
X201715547Y-127103142D01*
X201763166Y-127007904D01*
X201763166Y-126769809D01*
X201715547Y-126674571D01*
X201667928Y-126626952D01*
X201572690Y-126579333D01*
X201382214Y-126579333D01*
X201286976Y-126626952D01*
X201239357Y-126674571D01*
X201191738Y-126769809D01*
X202334595Y-126626952D02*
X202239357Y-126579333D01*
X202191738Y-126531714D01*
X202144119Y-126436476D01*
X202144119Y-126388857D01*
X202191738Y-126293619D01*
X202239357Y-126246000D01*
X202334595Y-126198380D01*
X202525071Y-126198380D01*
X202620309Y-126246000D01*
X202667928Y-126293619D01*
X202715547Y-126388857D01*
X202715547Y-126436476D01*
X202667928Y-126531714D01*
X202620309Y-126579333D01*
X202525071Y-126626952D01*
X202334595Y-126626952D01*
X202239357Y-126674571D01*
X202191738Y-126722190D01*
X202144119Y-126817428D01*
X202144119Y-127007904D01*
X202191738Y-127103142D01*
X202239357Y-127150761D01*
X202334595Y-127198380D01*
X202525071Y-127198380D01*
X202620309Y-127150761D01*
X202667928Y-127103142D01*
X202715547Y-127007904D01*
X202715547Y-126817428D01*
X202667928Y-126722190D01*
X202620309Y-126674571D01*
X202525071Y-126626952D01*
X203286976Y-126626952D02*
X203191738Y-126579333D01*
X203144119Y-126531714D01*
X203096500Y-126436476D01*
X203096500Y-126388857D01*
X203144119Y-126293619D01*
X203191738Y-126246000D01*
X203286976Y-126198380D01*
X203477452Y-126198380D01*
X203572690Y-126246000D01*
X203620309Y-126293619D01*
X203667928Y-126388857D01*
X203667928Y-126436476D01*
X203620309Y-126531714D01*
X203572690Y-126579333D01*
X203477452Y-126626952D01*
X203286976Y-126626952D01*
X203191738Y-126674571D01*
X203144119Y-126722190D01*
X203096500Y-126817428D01*
X203096500Y-127007904D01*
X203144119Y-127103142D01*
X203191738Y-127150761D01*
X203286976Y-127198380D01*
X203477452Y-127198380D01*
X203572690Y-127150761D01*
X203620309Y-127103142D01*
X203667928Y-127007904D01*
X203667928Y-126817428D01*
X203620309Y-126722190D01*
X203572690Y-126674571D01*
X203477452Y-126626952D01*
X197477452Y-145375380D02*
X198144119Y-145375380D01*
X197715547Y-146375380D01*
X198953642Y-145708714D02*
X198953642Y-146375380D01*
X198715547Y-145327761D02*
X198477452Y-146042047D01*
X199096500Y-146042047D01*
X199953642Y-146375380D02*
X199477452Y-146375380D01*
X199477452Y-145375380D01*
X200239357Y-146327761D02*
X200382214Y-146375380D01*
X200620309Y-146375380D01*
X200715547Y-146327761D01*
X200763166Y-146280142D01*
X200810785Y-146184904D01*
X200810785Y-146089666D01*
X200763166Y-145994428D01*
X200715547Y-145946809D01*
X200620309Y-145899190D01*
X200429833Y-145851571D01*
X200334595Y-145803952D01*
X200286976Y-145756333D01*
X200239357Y-145661095D01*
X200239357Y-145565857D01*
X200286976Y-145470619D01*
X200334595Y-145423000D01*
X200429833Y-145375380D01*
X200667928Y-145375380D01*
X200810785Y-145423000D01*
X201667928Y-145375380D02*
X201477452Y-145375380D01*
X201382214Y-145423000D01*
X201334595Y-145470619D01*
X201239357Y-145613476D01*
X201191738Y-145803952D01*
X201191738Y-146184904D01*
X201239357Y-146280142D01*
X201286976Y-146327761D01*
X201382214Y-146375380D01*
X201572690Y-146375380D01*
X201667928Y-146327761D01*
X201715547Y-146280142D01*
X201763166Y-146184904D01*
X201763166Y-145946809D01*
X201715547Y-145851571D01*
X201667928Y-145803952D01*
X201572690Y-145756333D01*
X201382214Y-145756333D01*
X201286976Y-145803952D01*
X201239357Y-145851571D01*
X201191738Y-145946809D01*
X202334595Y-145803952D02*
X202239357Y-145756333D01*
X202191738Y-145708714D01*
X202144119Y-145613476D01*
X202144119Y-145565857D01*
X202191738Y-145470619D01*
X202239357Y-145423000D01*
X202334595Y-145375380D01*
X202525071Y-145375380D01*
X202620309Y-145423000D01*
X202667928Y-145470619D01*
X202715547Y-145565857D01*
X202715547Y-145613476D01*
X202667928Y-145708714D01*
X202620309Y-145756333D01*
X202525071Y-145803952D01*
X202334595Y-145803952D01*
X202239357Y-145851571D01*
X202191738Y-145899190D01*
X202144119Y-145994428D01*
X202144119Y-146184904D01*
X202191738Y-146280142D01*
X202239357Y-146327761D01*
X202334595Y-146375380D01*
X202525071Y-146375380D01*
X202620309Y-146327761D01*
X202667928Y-146280142D01*
X202715547Y-146184904D01*
X202715547Y-145994428D01*
X202667928Y-145899190D01*
X202620309Y-145851571D01*
X202525071Y-145803952D01*
X203286976Y-145803952D02*
X203191738Y-145756333D01*
X203144119Y-145708714D01*
X203096500Y-145613476D01*
X203096500Y-145565857D01*
X203144119Y-145470619D01*
X203191738Y-145423000D01*
X203286976Y-145375380D01*
X203477452Y-145375380D01*
X203572690Y-145423000D01*
X203620309Y-145470619D01*
X203667928Y-145565857D01*
X203667928Y-145613476D01*
X203620309Y-145708714D01*
X203572690Y-145756333D01*
X203477452Y-145803952D01*
X203286976Y-145803952D01*
X203191738Y-145851571D01*
X203144119Y-145899190D01*
X203096500Y-145994428D01*
X203096500Y-146184904D01*
X203144119Y-146280142D01*
X203191738Y-146327761D01*
X203286976Y-146375380D01*
X203477452Y-146375380D01*
X203572690Y-146327761D01*
X203620309Y-146280142D01*
X203667928Y-146184904D01*
X203667928Y-145994428D01*
X203620309Y-145899190D01*
X203572690Y-145851571D01*
X203477452Y-145803952D01*
D15*
X251578904Y-139934904D02*
X251121761Y-139934904D01*
X251350333Y-139934904D02*
X251350333Y-139134904D01*
X251274142Y-139249190D01*
X251197952Y-139325380D01*
X251121761Y-139363476D01*
X252074142Y-139134904D02*
X252150333Y-139134904D01*
X252226523Y-139173000D01*
X252264619Y-139211095D01*
X252302714Y-139287285D01*
X252340809Y-139439666D01*
X252340809Y-139630142D01*
X252302714Y-139782523D01*
X252264619Y-139858714D01*
X252226523Y-139896809D01*
X252150333Y-139934904D01*
X252074142Y-139934904D01*
X251997952Y-139896809D01*
X251959857Y-139858714D01*
X251921761Y-139782523D01*
X251883666Y-139630142D01*
X251883666Y-139439666D01*
X251921761Y-139287285D01*
X251959857Y-139211095D01*
X251997952Y-139173000D01*
X252074142Y-139134904D01*
X252836047Y-139134904D02*
X252912238Y-139134904D01*
X252988428Y-139173000D01*
X253026523Y-139211095D01*
X253064619Y-139287285D01*
X253102714Y-139439666D01*
X253102714Y-139630142D01*
X253064619Y-139782523D01*
X253026523Y-139858714D01*
X252988428Y-139896809D01*
X252912238Y-139934904D01*
X252836047Y-139934904D01*
X252759857Y-139896809D01*
X252721761Y-139858714D01*
X252683666Y-139782523D01*
X252645571Y-139630142D01*
X252645571Y-139439666D01*
X252683666Y-139287285D01*
X252721761Y-139211095D01*
X252759857Y-139173000D01*
X252836047Y-139134904D01*
X253445571Y-139401571D02*
X253445571Y-139934904D01*
X253445571Y-139477761D02*
X253483666Y-139439666D01*
X253559857Y-139401571D01*
X253674142Y-139401571D01*
X253750333Y-139439666D01*
X253788428Y-139515857D01*
X253788428Y-139934904D01*
X254436047Y-139515857D02*
X254169380Y-139515857D01*
X254169380Y-139934904D02*
X254169380Y-139134904D01*
X254550333Y-139134904D01*
M02*
