G04 #@! TF.GenerationSoftware,KiCad,Pcbnew,(5.1.6-0)*
G04 #@! TF.CreationDate,2020-08-14T20:43:53-05:00*
G04 #@! TF.ProjectId,DoubleROM-DOC,446f7562-6c65-4524-9f4d-2d444f432e6b,rev?*
G04 #@! TF.SameCoordinates,Original*
G04 #@! TF.FileFunction,Soldermask,Top*
G04 #@! TF.FilePolarity,Negative*
%FSLAX46Y46*%
G04 Gerber Fmt 4.6, Leading zero omitted, Abs format (unit mm)*
G04 Created by KiCad (PCBNEW (5.1.6-0)) date 2020-08-14 20:43:53*
%MOMM*%
%LPD*%
G01*
G04 APERTURE LIST*
%ADD10C,0.150000*%
%ADD11O,1.600000X1.600000*%
%ADD12R,1.600000X1.600000*%
%ADD13R,1.778000X7.620000*%
%ADD14C,1.600000*%
%ADD15C,1.308000*%
%ADD16R,1.308000X1.308000*%
G04 APERTURE END LIST*
D10*
G36*
X261710000Y-168016000D02*
G01*
X180410000Y-168016000D01*
X180410000Y-159916000D01*
X261710000Y-159916000D01*
X261710000Y-168016000D01*
G37*
X261710000Y-168016000D02*
X180410000Y-168016000D01*
X180410000Y-159916000D01*
X261710000Y-159916000D01*
X261710000Y-168016000D01*
D11*
X229322000Y-122829000D03*
X242022000Y-130449000D03*
X231862000Y-122829000D03*
X239482000Y-130449000D03*
X234402000Y-122829000D03*
X236942000Y-130449000D03*
X236942000Y-122829000D03*
X234402000Y-130449000D03*
X239482000Y-122829000D03*
X231862000Y-130449000D03*
X242022000Y-122829000D03*
D12*
X229322000Y-130449000D03*
D11*
X222250000Y-134360000D03*
X184150000Y-119120000D03*
X219710000Y-134360000D03*
X186690000Y-119120000D03*
X217170000Y-134360000D03*
X189230000Y-119120000D03*
X214630000Y-134360000D03*
X191770000Y-119120000D03*
X212090000Y-134360000D03*
X194310000Y-119120000D03*
X209550000Y-134360000D03*
X196850000Y-119120000D03*
X207010000Y-134360000D03*
X199390000Y-119120000D03*
X204470000Y-134360000D03*
X201930000Y-119120000D03*
X201930000Y-134360000D03*
X204470000Y-119120000D03*
X199390000Y-134360000D03*
X207010000Y-119120000D03*
X196850000Y-134360000D03*
X209550000Y-119120000D03*
X194310000Y-134360000D03*
X212090000Y-119120000D03*
X191770000Y-134360000D03*
X214630000Y-119120000D03*
X189230000Y-134360000D03*
X217170000Y-119120000D03*
X186690000Y-134360000D03*
X219710000Y-119120000D03*
X184150000Y-134360000D03*
D12*
X222250000Y-119120000D03*
D13*
X182950000Y-163908000D03*
X185490000Y-163908000D03*
X188030000Y-163908000D03*
X190570000Y-163908000D03*
X193110000Y-163908000D03*
X195650000Y-163908000D03*
X198190000Y-163908000D03*
X200730000Y-163908000D03*
X203270000Y-163908000D03*
X205810000Y-163908000D03*
X208350000Y-163908000D03*
X210890000Y-163908000D03*
X213430000Y-163908000D03*
X215970000Y-163908000D03*
X218510000Y-163908000D03*
X221050000Y-163908000D03*
X223590000Y-163908000D03*
X226130000Y-163908000D03*
X228670000Y-163908000D03*
X231210000Y-163908000D03*
X233750000Y-163908000D03*
X238830000Y-163908000D03*
X241370000Y-163908000D03*
X243910000Y-163908000D03*
X246450000Y-163908000D03*
X248990000Y-163908000D03*
X251530000Y-163908000D03*
X254070000Y-163908000D03*
X256610000Y-163908000D03*
D12*
X187960000Y-157353000D03*
D14*
X182960000Y-157353000D03*
X219837000Y-153543000D03*
X219837000Y-148543000D03*
X225070000Y-127020000D03*
X225070000Y-132020000D03*
D11*
X243580000Y-119700000D03*
X241040000Y-119700000D03*
X238500000Y-119700000D03*
X235960000Y-119700000D03*
X233420000Y-119700000D03*
X230880000Y-119700000D03*
D12*
X228340000Y-119700000D03*
X224070000Y-139110000D03*
D11*
X226610000Y-139110000D03*
X229150000Y-139110000D03*
X231690000Y-139110000D03*
X234230000Y-139110000D03*
X236770000Y-139110000D03*
X239310000Y-139110000D03*
D12*
X226770000Y-135620000D03*
D11*
X229310000Y-135620000D03*
X231850000Y-135620000D03*
X234390000Y-135620000D03*
X236930000Y-135620000D03*
X239470000Y-135620000D03*
X242010000Y-135620000D03*
D12*
X225552000Y-149606000D03*
D11*
X238252000Y-141986000D03*
X228092000Y-149606000D03*
X235712000Y-141986000D03*
X230632000Y-149606000D03*
X233172000Y-141986000D03*
X233172000Y-149606000D03*
X230632000Y-141986000D03*
X235712000Y-149606000D03*
X228092000Y-141986000D03*
X238252000Y-149606000D03*
X225552000Y-141986000D03*
D15*
X245948000Y-148423000D03*
X245948000Y-145923000D03*
X245948000Y-143423000D03*
X242748000Y-148423000D03*
X242748000Y-145923000D03*
D16*
X242748000Y-143423000D03*
D11*
X217170000Y-153543000D03*
X184150000Y-138303000D03*
X214630000Y-153543000D03*
X186690000Y-138303000D03*
X212090000Y-153543000D03*
X189230000Y-138303000D03*
X209550000Y-153543000D03*
X191770000Y-138303000D03*
X207010000Y-153543000D03*
X194310000Y-138303000D03*
X204470000Y-153543000D03*
X196850000Y-138303000D03*
X201930000Y-153543000D03*
X199390000Y-138303000D03*
X199390000Y-153543000D03*
X201930000Y-138303000D03*
X196850000Y-153543000D03*
X204470000Y-138303000D03*
X194310000Y-153543000D03*
X207010000Y-138303000D03*
X191770000Y-153543000D03*
X209550000Y-138303000D03*
X189230000Y-153543000D03*
X212090000Y-138303000D03*
X186690000Y-153543000D03*
X214630000Y-138303000D03*
X184150000Y-153543000D03*
D12*
X217170000Y-138303000D03*
D11*
X212090000Y-130556000D03*
X189230000Y-122936000D03*
X209550000Y-130556000D03*
X191770000Y-122936000D03*
X207010000Y-130556000D03*
X194310000Y-122936000D03*
X204470000Y-130556000D03*
X196850000Y-122936000D03*
X201930000Y-130556000D03*
X199390000Y-122936000D03*
X199390000Y-130556000D03*
X201930000Y-122936000D03*
X196850000Y-130556000D03*
X204470000Y-122936000D03*
X194310000Y-130556000D03*
X207010000Y-122936000D03*
X191770000Y-130556000D03*
X209550000Y-122936000D03*
X189230000Y-130556000D03*
D12*
X212090000Y-122936000D03*
X212090000Y-142113000D03*
D11*
X189230000Y-149733000D03*
X209550000Y-142113000D03*
X191770000Y-149733000D03*
X207010000Y-142113000D03*
X194310000Y-149733000D03*
X204470000Y-142113000D03*
X196850000Y-149733000D03*
X201930000Y-142113000D03*
X199390000Y-149733000D03*
X199390000Y-142113000D03*
X201930000Y-149733000D03*
X196850000Y-142113000D03*
X204470000Y-149733000D03*
X194310000Y-142113000D03*
X207010000Y-149733000D03*
X191770000Y-142113000D03*
X209550000Y-149733000D03*
X189230000Y-142113000D03*
X212090000Y-149733000D03*
D14*
X250317000Y-139573000D03*
X255317000Y-139573000D03*
M02*
