G04 #@! TF.GenerationSoftware,KiCad,Pcbnew,(5.1.6-0)*
G04 #@! TF.CreationDate,2020-08-14T20:43:53-05:00*
G04 #@! TF.ProjectId,DoubleROM-DOC,446f7562-6c65-4524-9f4d-2d444f432e6b,rev?*
G04 #@! TF.SameCoordinates,Original*
G04 #@! TF.FileFunction,Copper,L2,Bot*
G04 #@! TF.FilePolarity,Positive*
%FSLAX46Y46*%
G04 Gerber Fmt 4.6, Leading zero omitted, Abs format (unit mm)*
G04 Created by KiCad (PCBNEW (5.1.6-0)) date 2020-08-14 20:43:53*
%MOMM*%
%LPD*%
G01*
G04 APERTURE LIST*
G04 #@! TA.AperFunction,EtchedComponent*
%ADD10C,0.150000*%
G04 #@! TD*
G04 #@! TA.AperFunction,ComponentPad*
%ADD11O,1.600000X1.600000*%
G04 #@! TD*
G04 #@! TA.AperFunction,ComponentPad*
%ADD12R,1.600000X1.600000*%
G04 #@! TD*
G04 #@! TA.AperFunction,ConnectorPad*
%ADD13R,1.778000X7.620000*%
G04 #@! TD*
G04 #@! TA.AperFunction,ComponentPad*
%ADD14C,1.600000*%
G04 #@! TD*
G04 #@! TA.AperFunction,SMDPad,CuDef*
%ADD15C,0.150000*%
G04 #@! TD*
G04 #@! TA.AperFunction,ComponentPad*
%ADD16C,1.308000*%
G04 #@! TD*
G04 #@! TA.AperFunction,ComponentPad*
%ADD17R,1.308000X1.308000*%
G04 #@! TD*
G04 #@! TA.AperFunction,SMDPad,CuDef*
%ADD18R,1.500000X0.600000*%
G04 #@! TD*
G04 #@! TA.AperFunction,ViaPad*
%ADD19C,0.600000*%
G04 #@! TD*
G04 #@! TA.AperFunction,ViaPad*
%ADD20C,1.000000*%
G04 #@! TD*
G04 #@! TA.AperFunction,Conductor*
%ADD21C,0.200000*%
G04 #@! TD*
G04 #@! TA.AperFunction,Conductor*
%ADD22C,1.000000*%
G04 #@! TD*
G04 #@! TA.AperFunction,Conductor*
%ADD23C,1.500000*%
G04 #@! TD*
G04 #@! TA.AperFunction,Conductor*
%ADD24C,0.500000*%
G04 #@! TD*
G04 #@! TA.AperFunction,Conductor*
%ADD25C,0.254000*%
G04 #@! TD*
G04 APERTURE END LIST*
D10*
G36*
X253192000Y-152523000D02*
G01*
X253192000Y-152023000D01*
X253792000Y-152023000D01*
X253792000Y-152523000D01*
X253192000Y-152523000D01*
G37*
D11*
X229322000Y-122829000D03*
X242022000Y-130449000D03*
X231862000Y-122829000D03*
X239482000Y-130449000D03*
X234402000Y-122829000D03*
X236942000Y-130449000D03*
X236942000Y-122829000D03*
X234402000Y-130449000D03*
X239482000Y-122829000D03*
X231862000Y-130449000D03*
X242022000Y-122829000D03*
D12*
X229322000Y-130449000D03*
D11*
X222250000Y-134360000D03*
X184150000Y-119120000D03*
X219710000Y-134360000D03*
X186690000Y-119120000D03*
X217170000Y-134360000D03*
X189230000Y-119120000D03*
X214630000Y-134360000D03*
X191770000Y-119120000D03*
X212090000Y-134360000D03*
X194310000Y-119120000D03*
X209550000Y-134360000D03*
X196850000Y-119120000D03*
X207010000Y-134360000D03*
X199390000Y-119120000D03*
X204470000Y-134360000D03*
X201930000Y-119120000D03*
X201930000Y-134360000D03*
X204470000Y-119120000D03*
X199390000Y-134360000D03*
X207010000Y-119120000D03*
X196850000Y-134360000D03*
X209550000Y-119120000D03*
X194310000Y-134360000D03*
X212090000Y-119120000D03*
X191770000Y-134360000D03*
X214630000Y-119120000D03*
X189230000Y-134360000D03*
X217170000Y-119120000D03*
X186690000Y-134360000D03*
X219710000Y-119120000D03*
X184150000Y-134360000D03*
D12*
X222250000Y-119120000D03*
D13*
X241370000Y-163908000D03*
X182950000Y-163908000D03*
X188030000Y-163908000D03*
X231210000Y-163908000D03*
X233750000Y-163908000D03*
X236290000Y-163908000D03*
X254070000Y-163908000D03*
X259150000Y-163908000D03*
D12*
X187960000Y-157353000D03*
D14*
X182960000Y-157353000D03*
X219837000Y-153543000D03*
X219837000Y-148543000D03*
X225070000Y-127020000D03*
X225070000Y-132020000D03*
G04 #@! TA.AperFunction,SMDPad,CuDef*
D15*
G36*
X254241398Y-152923000D02*
G01*
X254241398Y-152947534D01*
X254236588Y-152996365D01*
X254227016Y-153044490D01*
X254212772Y-153091445D01*
X254193995Y-153136778D01*
X254170864Y-153180051D01*
X254143604Y-153220850D01*
X254112476Y-153258779D01*
X254077779Y-153293476D01*
X254039850Y-153324604D01*
X253999051Y-153351864D01*
X253955778Y-153374995D01*
X253910445Y-153393772D01*
X253863490Y-153408016D01*
X253815365Y-153417588D01*
X253766534Y-153422398D01*
X253742000Y-153422398D01*
X253742000Y-153423000D01*
X253242000Y-153423000D01*
X253242000Y-153422398D01*
X253217466Y-153422398D01*
X253168635Y-153417588D01*
X253120510Y-153408016D01*
X253073555Y-153393772D01*
X253028222Y-153374995D01*
X252984949Y-153351864D01*
X252944150Y-153324604D01*
X252906221Y-153293476D01*
X252871524Y-153258779D01*
X252840396Y-153220850D01*
X252813136Y-153180051D01*
X252790005Y-153136778D01*
X252771228Y-153091445D01*
X252756984Y-153044490D01*
X252747412Y-152996365D01*
X252742602Y-152947534D01*
X252742602Y-152923000D01*
X252742000Y-152923000D01*
X252742000Y-152423000D01*
X254242000Y-152423000D01*
X254242000Y-152923000D01*
X254241398Y-152923000D01*
G37*
G04 #@! TD.AperFunction*
G04 #@! TA.AperFunction,SMDPad,CuDef*
G36*
X252742000Y-152123000D02*
G01*
X252742000Y-151623000D01*
X252742602Y-151623000D01*
X252742602Y-151598466D01*
X252747412Y-151549635D01*
X252756984Y-151501510D01*
X252771228Y-151454555D01*
X252790005Y-151409222D01*
X252813136Y-151365949D01*
X252840396Y-151325150D01*
X252871524Y-151287221D01*
X252906221Y-151252524D01*
X252944150Y-151221396D01*
X252984949Y-151194136D01*
X253028222Y-151171005D01*
X253073555Y-151152228D01*
X253120510Y-151137984D01*
X253168635Y-151128412D01*
X253217466Y-151123602D01*
X253242000Y-151123602D01*
X253242000Y-151123000D01*
X253742000Y-151123000D01*
X253742000Y-151123602D01*
X253766534Y-151123602D01*
X253815365Y-151128412D01*
X253863490Y-151137984D01*
X253910445Y-151152228D01*
X253955778Y-151171005D01*
X253999051Y-151194136D01*
X254039850Y-151221396D01*
X254077779Y-151252524D01*
X254112476Y-151287221D01*
X254143604Y-151325150D01*
X254170864Y-151365949D01*
X254193995Y-151409222D01*
X254212772Y-151454555D01*
X254227016Y-151501510D01*
X254236588Y-151549635D01*
X254241398Y-151598466D01*
X254241398Y-151623000D01*
X254242000Y-151623000D01*
X254242000Y-152123000D01*
X252742000Y-152123000D01*
G37*
G04 #@! TD.AperFunction*
D11*
X243580000Y-119700000D03*
X241040000Y-119700000D03*
X238500000Y-119700000D03*
X235960000Y-119700000D03*
X233420000Y-119700000D03*
X230880000Y-119700000D03*
D12*
X228340000Y-119700000D03*
X224070000Y-139110000D03*
D11*
X226610000Y-139110000D03*
X229150000Y-139110000D03*
X231690000Y-139110000D03*
X234230000Y-139110000D03*
X236770000Y-139110000D03*
X239310000Y-139110000D03*
D12*
X226770000Y-135620000D03*
D11*
X229310000Y-135620000D03*
X231850000Y-135620000D03*
X234390000Y-135620000D03*
X236930000Y-135620000D03*
X239470000Y-135620000D03*
X242010000Y-135620000D03*
D12*
X225552000Y-149606000D03*
D11*
X238252000Y-141986000D03*
X228092000Y-149606000D03*
X235712000Y-141986000D03*
X230632000Y-149606000D03*
X233172000Y-141986000D03*
X233172000Y-149606000D03*
X230632000Y-141986000D03*
X235712000Y-149606000D03*
X228092000Y-141986000D03*
X238252000Y-149606000D03*
X225552000Y-141986000D03*
D16*
X245948000Y-148423000D03*
X245948000Y-145923000D03*
X245948000Y-143423000D03*
X242748000Y-148423000D03*
X242748000Y-145923000D03*
D17*
X242748000Y-143423000D03*
D11*
X217170000Y-153543000D03*
X184150000Y-138303000D03*
X214630000Y-153543000D03*
X186690000Y-138303000D03*
X212090000Y-153543000D03*
X189230000Y-138303000D03*
X209550000Y-153543000D03*
X191770000Y-138303000D03*
X207010000Y-153543000D03*
X194310000Y-138303000D03*
X204470000Y-153543000D03*
X196850000Y-138303000D03*
X201930000Y-153543000D03*
X199390000Y-138303000D03*
X199390000Y-153543000D03*
X201930000Y-138303000D03*
X196850000Y-153543000D03*
X204470000Y-138303000D03*
X194310000Y-153543000D03*
X207010000Y-138303000D03*
X191770000Y-153543000D03*
X209550000Y-138303000D03*
X189230000Y-153543000D03*
X212090000Y-138303000D03*
X186690000Y-153543000D03*
X214630000Y-138303000D03*
X184150000Y-153543000D03*
D12*
X217170000Y-138303000D03*
D11*
X212090000Y-130556000D03*
X189230000Y-122936000D03*
X209550000Y-130556000D03*
X191770000Y-122936000D03*
X207010000Y-130556000D03*
X194310000Y-122936000D03*
X204470000Y-130556000D03*
X196850000Y-122936000D03*
X201930000Y-130556000D03*
X199390000Y-122936000D03*
X199390000Y-130556000D03*
X201930000Y-122936000D03*
X196850000Y-130556000D03*
X204470000Y-122936000D03*
X194310000Y-130556000D03*
X207010000Y-122936000D03*
X191770000Y-130556000D03*
X209550000Y-122936000D03*
X189230000Y-130556000D03*
D12*
X212090000Y-122936000D03*
X212090000Y-142113000D03*
D11*
X189230000Y-149733000D03*
X209550000Y-142113000D03*
X191770000Y-149733000D03*
X207010000Y-142113000D03*
X194310000Y-149733000D03*
X204470000Y-142113000D03*
X196850000Y-149733000D03*
X201930000Y-142113000D03*
X199390000Y-149733000D03*
X199390000Y-142113000D03*
X201930000Y-149733000D03*
X196850000Y-142113000D03*
X204470000Y-149733000D03*
X194310000Y-142113000D03*
X207010000Y-149733000D03*
X191770000Y-142113000D03*
X209550000Y-149733000D03*
X189230000Y-142113000D03*
X212090000Y-149733000D03*
D18*
X256192000Y-142240000D03*
X256192000Y-143510000D03*
X256192000Y-144780000D03*
X256192000Y-146050000D03*
X256192000Y-147320000D03*
X256192000Y-148590000D03*
X256192000Y-149860000D03*
X250792000Y-149860000D03*
X250792000Y-148590000D03*
X250792000Y-147320000D03*
X250792000Y-146050000D03*
X250792000Y-144780000D03*
X250792000Y-143510000D03*
X250792000Y-142240000D03*
D14*
X250317000Y-139573000D03*
X255317000Y-139573000D03*
D19*
X206314200Y-156126700D03*
X214630000Y-149415496D03*
X221770000Y-130590000D03*
X212020000Y-136320000D03*
X237000000Y-127660000D03*
X244919500Y-128029500D03*
X219260000Y-120940000D03*
X220610000Y-130500000D03*
X215773000Y-149796500D03*
X218960000Y-122440000D03*
X213982500Y-154958600D03*
X208788000Y-148526500D03*
X206311500Y-147510500D03*
X189357000Y-155765500D03*
X204152500Y-144589500D03*
X193834900Y-154980300D03*
X194246500Y-136398000D03*
X208470500Y-144907000D03*
X213423500Y-149161500D03*
X241940000Y-132200000D03*
X201676000Y-145732500D03*
X239083850Y-144659350D03*
X231203500Y-153352488D03*
X234632500Y-156845000D03*
D20*
X250317000Y-157480000D03*
D19*
X240750000Y-128400000D03*
X217043000Y-151130010D03*
X218630499Y-145224500D03*
X232346500Y-126365000D03*
X229222600Y-146116200D03*
X209550000Y-144907000D03*
D21*
X193216600Y-120219400D02*
X194310000Y-119126000D01*
X194310000Y-138303000D02*
X193216600Y-137209600D01*
X193216600Y-137209600D02*
X193216600Y-120219400D01*
X195580000Y-120396000D02*
X196850000Y-119126000D01*
X195580000Y-134937500D02*
X195580000Y-120396000D01*
X196850000Y-138303000D02*
X196850000Y-136207500D01*
X196850000Y-136207500D02*
X195580000Y-134937500D01*
X201973700Y-156126700D02*
X206314200Y-156126700D01*
X199390000Y-153543000D02*
X201973700Y-156126700D01*
X200460300Y-135436300D02*
X199390000Y-134366000D01*
X199390000Y-153543000D02*
X200460300Y-152472700D01*
X200460300Y-152472700D02*
X200460300Y-135436300D01*
X204470000Y-135064500D02*
X204470000Y-134366000D01*
X205581200Y-152431800D02*
X205581200Y-147669200D01*
X204470000Y-153543000D02*
X205581200Y-152431800D01*
X203399600Y-136134900D02*
X204470000Y-135064500D01*
X205581200Y-147669200D02*
X203029200Y-145117200D01*
X203029200Y-145117200D02*
X203029200Y-140632800D01*
X203029200Y-140632800D02*
X203399600Y-140262400D01*
X203399600Y-140262400D02*
X203399600Y-136134900D01*
X214630000Y-126047500D02*
X214630000Y-119126000D01*
X214630000Y-138303000D02*
X213559700Y-137232700D01*
X213559700Y-137232700D02*
X213559700Y-133724926D01*
X213559700Y-133724926D02*
X211001400Y-131166626D01*
X211001400Y-131166626D02*
X211001400Y-129676100D01*
X211001400Y-129676100D02*
X214630000Y-126047500D01*
X214630000Y-138303000D02*
X214630000Y-149415496D01*
X212090000Y-153543000D02*
X211019300Y-152472300D01*
X237000000Y-127660000D02*
X244510000Y-127660000D01*
X244510000Y-127660000D02*
X244920000Y-128070000D01*
X211019300Y-137350700D02*
X211019300Y-137320700D01*
X211019300Y-152472300D02*
X211019300Y-137350700D01*
X211019300Y-137320700D02*
X212020000Y-136320000D01*
X221580000Y-123260000D02*
X219260000Y-120940000D01*
X221770000Y-123450000D02*
X221580000Y-123260000D01*
X221770000Y-130590000D02*
X221770000Y-123450000D01*
X215773000Y-140700000D02*
X215773000Y-149796500D01*
X217170000Y-139303000D02*
X215773000Y-140700000D01*
X217170000Y-138303000D02*
X217170000Y-139303000D01*
X220610000Y-130500000D02*
X220610000Y-124090000D01*
X220610000Y-124090000D02*
X218960000Y-122440000D01*
X218960000Y-122440000D02*
X218960000Y-122440000D01*
X201930000Y-141845400D02*
X201930000Y-142113000D01*
X203399600Y-124405600D02*
X203399600Y-135436400D01*
X203399600Y-135436400D02*
X203029300Y-135806700D01*
X201930000Y-122936000D02*
X203399600Y-124405600D01*
X203029300Y-135806700D02*
X203029300Y-139045200D01*
X203029300Y-139045200D02*
X201930000Y-140144500D01*
X201930000Y-140144500D02*
X201930000Y-141845400D01*
X204107600Y-154958600D02*
X213982500Y-154958600D01*
X203399600Y-154250600D02*
X204107600Y-154958600D01*
X203399600Y-146249600D02*
X203399600Y-154250600D01*
X201930000Y-142113000D02*
X201930000Y-144780000D01*
X201930000Y-144780000D02*
X203399600Y-146249600D01*
X208080400Y-141042600D02*
X207010000Y-142113000D01*
X207010000Y-122936000D02*
X208080400Y-124006400D01*
X208080400Y-124006400D02*
X208080400Y-141042600D01*
X208788000Y-146367500D02*
X208788000Y-148526500D01*
X207010000Y-142113000D02*
X207010000Y-144589500D01*
X207010000Y-144589500D02*
X208788000Y-146367500D01*
X197928800Y-131634800D02*
X196850000Y-130556000D01*
X196850000Y-149733000D02*
X197928800Y-148654200D01*
X197928800Y-148654200D02*
X197928800Y-131634800D01*
X200859600Y-131626400D02*
X201930000Y-130556000D01*
X201930000Y-149733000D02*
X200859600Y-148662600D01*
X200859600Y-148662600D02*
X200859600Y-131626400D01*
X207010000Y-148209000D02*
X206311500Y-147510500D01*
X207010000Y-149733000D02*
X207010000Y-148209000D01*
X205540400Y-146739400D02*
X206311500Y-147510500D01*
X205540400Y-137232600D02*
X205540400Y-146739400D01*
X205910800Y-136862200D02*
X205540400Y-137232600D01*
X207010000Y-130556000D02*
X205910800Y-131655200D01*
X205910800Y-131655200D02*
X205910800Y-136862200D01*
X198319600Y-120196400D02*
X199390000Y-119126000D01*
X199390000Y-138303000D02*
X198319600Y-137232600D01*
X198319600Y-137232600D02*
X198319600Y-120196400D01*
X194437000Y-155765500D02*
X189357000Y-155765500D01*
X199390000Y-138303000D02*
X198319700Y-139373300D01*
X195580000Y-154622500D02*
X194437000Y-155765500D01*
X195580000Y-152971500D02*
X195580000Y-154622500D01*
X198319700Y-150231800D02*
X195580000Y-152971500D01*
X198319700Y-139373300D02*
X198319700Y-150231800D01*
X201930000Y-136207500D02*
X201930000Y-138303000D01*
X203002500Y-135135000D02*
X201930000Y-136207500D01*
X203002500Y-129723500D02*
X203002500Y-135135000D01*
X200660000Y-127381000D02*
X203002500Y-129723500D01*
X201930000Y-119126000D02*
X200660000Y-120396000D01*
X200660000Y-120396000D02*
X200660000Y-127381000D01*
X203399700Y-141341800D02*
X203399700Y-143836700D01*
X203399700Y-143836700D02*
X204152500Y-144589500D01*
X204470000Y-140271500D02*
X203399700Y-141341800D01*
X204470000Y-138303000D02*
X204470000Y-140271500D01*
X204470000Y-137604500D02*
X204470000Y-138303000D01*
X205540400Y-136534100D02*
X204470000Y-137604500D01*
X204470000Y-119126000D02*
X205540400Y-120196400D01*
X205540400Y-120196400D02*
X205540400Y-136534100D01*
X193834900Y-154980300D02*
X193040000Y-154185400D01*
X193040000Y-154185400D02*
X193040000Y-152788000D01*
X195395000Y-150433000D02*
X195395000Y-137546500D01*
X193040000Y-152788000D02*
X195395000Y-150433000D01*
X195395000Y-137546500D02*
X194246500Y-136398000D01*
X208479600Y-120196400D02*
X209550000Y-119126000D01*
X209550000Y-138303000D02*
X208479600Y-137232600D01*
X208479600Y-137232600D02*
X208479600Y-120196400D01*
X209550000Y-138303000D02*
X208470500Y-139382500D01*
X208470500Y-139382500D02*
X208470500Y-144907000D01*
X212090000Y-138303000D02*
X213423500Y-139636500D01*
X213423500Y-139636500D02*
X213423500Y-149161500D01*
X213173700Y-137219300D02*
X212090000Y-138303000D01*
X213173700Y-133862200D02*
X213173700Y-137219300D01*
X210620400Y-131308900D02*
X213173700Y-133862200D01*
X212090000Y-119126000D02*
X210620400Y-120595600D01*
X210620400Y-120595600D02*
X210620400Y-131308900D01*
X210648900Y-135464900D02*
X209550000Y-134366000D01*
X209550000Y-153543000D02*
X210648900Y-152444100D01*
X210648900Y-152444100D02*
X210648900Y-135464900D01*
X207010000Y-136503800D02*
X207010000Y-134366000D01*
X205910800Y-137603000D02*
X207010000Y-136503800D01*
X205910800Y-144506300D02*
X205910800Y-137603000D01*
X208125000Y-146720500D02*
X205910800Y-144506300D01*
X207010000Y-153543000D02*
X208125000Y-152428000D01*
X208125000Y-152428000D02*
X208125000Y-146720500D01*
X241233000Y-132200000D02*
X239482000Y-130449000D01*
X241940000Y-132200000D02*
X241233000Y-132200000D01*
X192840400Y-137232600D02*
X191770000Y-138303000D01*
X191770000Y-119126000D02*
X192840400Y-120196400D01*
X192840400Y-120196400D02*
X192840400Y-137232600D01*
X188159600Y-137232600D02*
X189230000Y-138303000D01*
X189230000Y-119126000D02*
X188159600Y-120196400D01*
X188159600Y-120196400D02*
X188159600Y-137232600D01*
X187760400Y-137232600D02*
X186690000Y-138303000D01*
X186690000Y-119126000D02*
X187760400Y-120196400D01*
X187760400Y-120196400D02*
X187760400Y-137232600D01*
X185220400Y-152472600D02*
X184150000Y-153543000D01*
X184150000Y-134366000D02*
X185220400Y-135436400D01*
X185220400Y-135436400D02*
X185220400Y-152472600D01*
X185619600Y-152472600D02*
X186690000Y-153543000D01*
X186690000Y-134366000D02*
X185619600Y-135436400D01*
X185619600Y-135436400D02*
X185619600Y-152472600D01*
X190304100Y-152468900D02*
X189230000Y-153543000D01*
X189230000Y-134366000D02*
X190304100Y-135440100D01*
X190304100Y-135440100D02*
X190304100Y-152468900D01*
X190674500Y-152447500D02*
X191770000Y-153543000D01*
X191770000Y-134366000D02*
X190674500Y-135461500D01*
X190674500Y-135461500D02*
X190674500Y-152447500D01*
X194310000Y-135128000D02*
X194310000Y-134366000D01*
X195765300Y-136583300D02*
X194310000Y-135128000D01*
X194310000Y-153543000D02*
X195765300Y-152087700D01*
X195765300Y-152087700D02*
X195765300Y-136583300D01*
X201930000Y-153543000D02*
X203029300Y-152443700D01*
X203029300Y-147085800D02*
X201676000Y-145732500D01*
X203029300Y-152443700D02*
X203029300Y-147085800D01*
X257175000Y-144780000D02*
X256192000Y-144780000D01*
X257365500Y-144970500D02*
X257175000Y-144780000D01*
X257365500Y-147002500D02*
X257365500Y-144970500D01*
X256192000Y-147320000D02*
X257048000Y-147320000D01*
X257048000Y-147320000D02*
X257365500Y-147002500D01*
X247213950Y-144659350D02*
X239083850Y-144659350D01*
X248995000Y-142878300D02*
X247213950Y-144659350D01*
X255143000Y-144780000D02*
X253241300Y-142878300D01*
X256192000Y-144780000D02*
X255143000Y-144780000D01*
X253241300Y-142878300D02*
X248995000Y-142878300D01*
X231210000Y-163908000D02*
X231210000Y-153358988D01*
X231210000Y-153358988D02*
X231203500Y-153352488D01*
X233750000Y-157727500D02*
X234632500Y-156845000D01*
X233750000Y-163908000D02*
X233750000Y-157727500D01*
D22*
X219837000Y-148543000D02*
X221869000Y-146511000D01*
X221869000Y-146511000D02*
X221869000Y-139353800D01*
D23*
X255317000Y-139573000D02*
X255317000Y-127301000D01*
X255317000Y-127301000D02*
X243586000Y-115570000D01*
X219964000Y-115570000D02*
X187706000Y-115570000D01*
X187706000Y-115570000D02*
X184150000Y-119126000D01*
D22*
X259150000Y-163908000D02*
X259150000Y-149917000D01*
X259150000Y-149917000D02*
X259150000Y-142275000D01*
X259150000Y-142275000D02*
X256448000Y-139573000D01*
X256448000Y-139573000D02*
X255317000Y-139573000D01*
D24*
X259150000Y-149917000D02*
X259093000Y-149860000D01*
X259093000Y-149860000D02*
X256192000Y-149860000D01*
D23*
X182960000Y-157353000D02*
X181521000Y-155914000D01*
X181521000Y-155914000D02*
X181521000Y-138265000D01*
X181521000Y-138265000D02*
X181521000Y-121755000D01*
X181521000Y-121755000D02*
X184150000Y-119126000D01*
X181521000Y-138265000D02*
X181558000Y-138303000D01*
X181558000Y-138303000D02*
X184150000Y-138303000D01*
D22*
X182960000Y-157353000D02*
X182960000Y-163898000D01*
X182960000Y-163898000D02*
X182950000Y-163908000D01*
D23*
X189230000Y-142113000D02*
X189230000Y-149733000D01*
X194310000Y-149733000D02*
X191770000Y-149733000D01*
X191770000Y-130556000D02*
X189230000Y-130556000D01*
D21*
X221869000Y-139353800D02*
X221869000Y-139446000D01*
D22*
X222614500Y-151320500D02*
X219837000Y-148543000D01*
X231013000Y-151320500D02*
X222614500Y-151320500D01*
X236290000Y-163908000D02*
X236290000Y-156597500D01*
X236290000Y-156597500D02*
X231013000Y-151320500D01*
D23*
X225070000Y-116080000D02*
X225580000Y-115570000D01*
X225580000Y-115570000D02*
X219964000Y-115570000D01*
X243586000Y-115570000D02*
X225580000Y-115570000D01*
D22*
X225070000Y-127020000D02*
X222955601Y-129134399D01*
X221869000Y-139446000D02*
X221869000Y-137891000D01*
X221869000Y-137891000D02*
X223720000Y-136040000D01*
X223720000Y-136040000D02*
X223720000Y-135980000D01*
X223720000Y-135980000D02*
X224530000Y-135170000D01*
X224530000Y-135170000D02*
X224530000Y-134110000D01*
X222955601Y-132535601D02*
X222955601Y-129134399D01*
X224530000Y-134110000D02*
X222955601Y-132535601D01*
X225140000Y-119700000D02*
X225070000Y-119770000D01*
X228340000Y-119700000D02*
X225140000Y-119700000D01*
D23*
X225070000Y-119770000D02*
X225070000Y-116080000D01*
X225070000Y-127020000D02*
X225070000Y-119770000D01*
D22*
X222205000Y-139110000D02*
X221869000Y-139446000D01*
X224070000Y-139110000D02*
X222205000Y-139110000D01*
D23*
X196398300Y-157353000D02*
X213360000Y-157353000D01*
X213360000Y-157353000D02*
X217170000Y-153543000D01*
X187960000Y-157353000D02*
X196398300Y-157353000D01*
X212090000Y-130556000D02*
X213360000Y-130556000D01*
D22*
X217170000Y-153543000D02*
X219837000Y-153543000D01*
D24*
X250792000Y-142240000D02*
X250792000Y-140048000D01*
X250792000Y-140048000D02*
X250317000Y-139573000D01*
D22*
X188030000Y-163908000D02*
X188030000Y-157423000D01*
X188030000Y-157423000D02*
X187960000Y-157353000D01*
D21*
X199390000Y-150431500D02*
X199390000Y-149733000D01*
X198120000Y-151701500D02*
X199390000Y-150431500D01*
X196398300Y-157353000D02*
X198120000Y-157353000D01*
X198120000Y-157353000D02*
X198120000Y-151701500D01*
D22*
X254070000Y-157480000D02*
X250317000Y-157480000D01*
X254070000Y-163908000D02*
X254070000Y-157480000D01*
D21*
X251841000Y-144780000D02*
X250792000Y-144780000D01*
X251968000Y-144907000D02*
X251841000Y-144780000D01*
X250792000Y-146050000D02*
X251968000Y-146050000D01*
X251968000Y-146050000D02*
X251968000Y-144907000D01*
X253873000Y-147955000D02*
X251968000Y-146050000D01*
X257238500Y-147955000D02*
X253873000Y-147955000D01*
X257492500Y-148209000D02*
X257238500Y-147955000D01*
X256984500Y-154565500D02*
X256984500Y-152273000D01*
X254070000Y-157480000D02*
X256984500Y-154565500D01*
X256984500Y-152273000D02*
X254952500Y-150241000D01*
X257238500Y-149225000D02*
X257492500Y-148971000D01*
X254952500Y-150241000D02*
X254952500Y-149479000D01*
X254952500Y-149479000D02*
X255206500Y-149225000D01*
X257492500Y-148971000D02*
X257492500Y-148209000D01*
X255206500Y-149225000D02*
X257238500Y-149225000D01*
D23*
X214630000Y-151003000D02*
X217170000Y-153543000D01*
X212090000Y-149733000D02*
X213360000Y-151003000D01*
X213360000Y-151003000D02*
X214630000Y-151003000D01*
D21*
X224282000Y-148336000D02*
X225552000Y-149606000D01*
X224282000Y-141287500D02*
X224282000Y-148336000D01*
X225298000Y-140271500D02*
X224282000Y-141287500D01*
X225298000Y-137287000D02*
X225298000Y-140271500D01*
D24*
X236942000Y-130449000D02*
X234402000Y-130449000D01*
X234402000Y-130449000D02*
X231862000Y-130449000D01*
X231862000Y-130449000D02*
X229322000Y-130449000D01*
D23*
X240670000Y-133660000D02*
X240190000Y-133180000D01*
X244404000Y-133660000D02*
X240670000Y-133660000D01*
X250317000Y-139573000D02*
X244404000Y-133660000D01*
D22*
X226780000Y-133350000D02*
X226950000Y-133180000D01*
X226780000Y-135720000D02*
X226780000Y-133350000D01*
X229322000Y-132782000D02*
X229720000Y-133180000D01*
X229322000Y-130449000D02*
X229322000Y-132782000D01*
D23*
X229720000Y-133180000D02*
X226950000Y-133180000D01*
X240190000Y-133180000D02*
X229720000Y-133180000D01*
D21*
X226780000Y-135805000D02*
X225298000Y-137287000D01*
X226780000Y-135720000D02*
X226780000Y-135805000D01*
D23*
X226230000Y-133180000D02*
X225070000Y-132020000D01*
X226950000Y-133180000D02*
X226230000Y-133180000D01*
X218446000Y-130556000D02*
X222250000Y-134360000D01*
X212090000Y-130556000D02*
X218446000Y-130556000D01*
D22*
X222250000Y-134780000D02*
X222250000Y-134360000D01*
X219964000Y-145669000D02*
X219964000Y-137066000D01*
X219837000Y-151257000D02*
X218059000Y-149479000D01*
X218059000Y-147574000D02*
X219964000Y-145669000D01*
X218059000Y-149479000D02*
X218059000Y-147574000D01*
X219964000Y-137066000D02*
X222250000Y-134780000D01*
X219837000Y-153543000D02*
X219837000Y-151257000D01*
D24*
X238500000Y-121271000D02*
X236942000Y-122829000D01*
X238500000Y-119700000D02*
X238500000Y-121271000D01*
X235960000Y-121271000D02*
X234402000Y-122829000D01*
X235960000Y-119700000D02*
X235960000Y-121271000D01*
X233420000Y-121271000D02*
X231862000Y-122829000D01*
X233420000Y-119700000D02*
X233420000Y-121271000D01*
X230880000Y-121271000D02*
X229322000Y-122829000D01*
X230880000Y-119700000D02*
X230880000Y-121271000D01*
D21*
X245948000Y-143423000D02*
X241971000Y-139446000D01*
X241971000Y-139446000D02*
X239268000Y-139446000D01*
D24*
X253492000Y-152923000D02*
X247529000Y-152923000D01*
X247529000Y-152923000D02*
X241370000Y-159082000D01*
X241370000Y-159082000D02*
X241370000Y-163908000D01*
D21*
X250792000Y-147320000D02*
X251742000Y-147320000D01*
X251742000Y-147320000D02*
X253492000Y-149070000D01*
X253492000Y-149070000D02*
X253492000Y-151623000D01*
D24*
X226568000Y-140970000D02*
X226568000Y-139446000D01*
X225552000Y-141986000D02*
X226568000Y-140970000D01*
X229108000Y-140970000D02*
X229108000Y-139446000D01*
X228092000Y-141986000D02*
X229108000Y-140970000D01*
X231648000Y-140970000D02*
X231648000Y-139446000D01*
X230632000Y-141986000D02*
X231648000Y-140970000D01*
X234188000Y-140970000D02*
X234188000Y-139446000D01*
X233172000Y-141986000D02*
X234188000Y-140970000D01*
D21*
X237426500Y-139446000D02*
X236728000Y-139446000D01*
X242748000Y-143423000D02*
X241403500Y-143423000D01*
X241403500Y-143423000D02*
X237426500Y-139446000D01*
X254376800Y-146050000D02*
X256192000Y-146050000D01*
X248920000Y-147738300D02*
X248920000Y-145216100D01*
X250792000Y-148590000D02*
X249771700Y-148590000D01*
X248920000Y-145216100D02*
X249972200Y-144163900D01*
X249771700Y-148590000D02*
X248920000Y-147738300D01*
X249972200Y-144163900D02*
X252490700Y-144163900D01*
X252490700Y-144163900D02*
X254376800Y-146050000D01*
X226822000Y-141541500D02*
X227838000Y-140525500D01*
X226822000Y-142684500D02*
X226822000Y-141541500D01*
X231761600Y-147624100D02*
X226822000Y-142684500D01*
X240346500Y-147624100D02*
X231761600Y-147624100D01*
X251714000Y-148590000D02*
X252031500Y-148907500D01*
X250792000Y-148590000D02*
X251714000Y-148590000D01*
X252031500Y-148907500D02*
X252031500Y-150241000D01*
X252031500Y-150241000D02*
X251650500Y-150622000D01*
X251650500Y-150622000D02*
X243344400Y-150622000D01*
X243344400Y-150622000D02*
X240346500Y-147624100D01*
X229320000Y-135720000D02*
X227838000Y-137202000D01*
X227838000Y-137568000D02*
X227838000Y-137287000D01*
X227838000Y-137202000D02*
X227838000Y-137568000D01*
X227838000Y-140525500D02*
X227838000Y-137568000D01*
X230378000Y-140525500D02*
X230378000Y-137287000D01*
X249771700Y-149860000D02*
X246822800Y-146911100D01*
X250792000Y-149860000D02*
X249771700Y-149860000D01*
X246822800Y-146911100D02*
X233525100Y-146911100D01*
X233525100Y-146911100D02*
X229362000Y-142748000D01*
X229362000Y-142748000D02*
X229362000Y-141541500D01*
X229362000Y-141541500D02*
X230378000Y-140525500D01*
X242990000Y-128400000D02*
X240750000Y-128400000D01*
X244219260Y-129629260D02*
X242990000Y-128400000D01*
X244219261Y-130267261D02*
X244219260Y-129629260D01*
X256192000Y-142240000D02*
X244219261Y-130267261D01*
X230378000Y-137202000D02*
X231860000Y-135720000D01*
X230378000Y-137287000D02*
X230378000Y-137202000D01*
X217043000Y-151130010D02*
X217043000Y-146811999D01*
X217043000Y-146811999D02*
X218630499Y-145224500D01*
X236855000Y-143383000D02*
X232791000Y-143383000D01*
X238252000Y-141986000D02*
X236855000Y-143383000D01*
X232791000Y-143383000D02*
X231965500Y-142557500D01*
X231965500Y-142557500D02*
X231965500Y-141478000D01*
X231965500Y-141478000D02*
X232918000Y-140525500D01*
X232918000Y-137202000D02*
X232918000Y-137508000D01*
X234400000Y-135720000D02*
X232918000Y-137202000D01*
X232918000Y-137508000D02*
X232918000Y-137287000D01*
X232918000Y-140525500D02*
X232918000Y-137508000D01*
X235521500Y-141795500D02*
X235712000Y-141986000D01*
X235521500Y-137138500D02*
X235521500Y-137811500D01*
X236940000Y-135720000D02*
X235521500Y-137138500D01*
X235521500Y-137811500D02*
X235521500Y-141795500D01*
X235521500Y-137350500D02*
X235521500Y-137811500D01*
X255242000Y-143010000D02*
X255242000Y-142783500D01*
X256192000Y-143510000D02*
X255742000Y-143510000D01*
X255742000Y-143510000D02*
X255242000Y-143010000D01*
X255242000Y-142783500D02*
X243849250Y-131390750D01*
X243849250Y-131390750D02*
X243849250Y-129909250D01*
X235970000Y-129100000D02*
X233235000Y-126365000D01*
X243040000Y-129100000D02*
X235970000Y-129100000D01*
X233235000Y-126365000D02*
X232346500Y-126365000D01*
X243849250Y-129909250D02*
X243040000Y-129100000D01*
X209550000Y-149733000D02*
X209550000Y-144907000D01*
X252031500Y-151003000D02*
X242105700Y-151003000D01*
X231378900Y-148272500D02*
X229222600Y-146116200D01*
X252476000Y-148704800D02*
X252476000Y-150558500D01*
X239375200Y-148272500D02*
X231378900Y-148272500D01*
X251726200Y-147955000D02*
X252476000Y-148704800D01*
X252476000Y-150558500D02*
X252031500Y-151003000D01*
X253809500Y-148590000D02*
X251904500Y-146685000D01*
X242105700Y-151003000D02*
X239375200Y-148272500D01*
X256192000Y-148590000D02*
X253809500Y-148590000D01*
X251904500Y-146685000D02*
X249809000Y-146685000D01*
X249745500Y-147955000D02*
X251726200Y-147955000D01*
X249809000Y-146685000D02*
X249555000Y-146939000D01*
X249555000Y-146939000D02*
X249555000Y-147764500D01*
X249555000Y-147764500D02*
X249745500Y-147955000D01*
D25*
G36*
X258669668Y-115198102D02*
G01*
X259203403Y-115359246D01*
X259695672Y-115620990D01*
X260127730Y-115973366D01*
X260483112Y-116402950D01*
X260748289Y-116893383D01*
X260913154Y-117425976D01*
X260974841Y-118012890D01*
X260974840Y-158689000D01*
X260010000Y-158689000D01*
X259985224Y-158691440D01*
X259961399Y-158698667D01*
X259939443Y-158710403D01*
X259920197Y-158726197D01*
X259904403Y-158745443D01*
X259893949Y-158765000D01*
X258386051Y-158765000D01*
X258375597Y-158745443D01*
X258359803Y-158726197D01*
X258340557Y-158710403D01*
X258318601Y-158698667D01*
X258294776Y-158691440D01*
X258270000Y-158689000D01*
X257470000Y-158689000D01*
X257445224Y-158691440D01*
X257421399Y-158698667D01*
X257399443Y-158710403D01*
X257380197Y-158726197D01*
X257364403Y-158745443D01*
X257353949Y-158765000D01*
X255846051Y-158765000D01*
X255835597Y-158745443D01*
X255819803Y-158726197D01*
X255800557Y-158710403D01*
X255778601Y-158698667D01*
X255754776Y-158691440D01*
X255730000Y-158689000D01*
X255075460Y-158689000D01*
X255075460Y-157529385D01*
X255080324Y-157480000D01*
X255066510Y-157339740D01*
X257391599Y-155014651D01*
X257414696Y-154995696D01*
X257490357Y-154903503D01*
X257546578Y-154798320D01*
X257581199Y-154684191D01*
X257589960Y-154595239D01*
X257589960Y-154595230D01*
X257592888Y-154565501D01*
X257589960Y-154535772D01*
X257589960Y-152302738D01*
X257592889Y-152273000D01*
X257581199Y-152154309D01*
X257570014Y-152117438D01*
X257546578Y-152040180D01*
X257490357Y-151934997D01*
X257414696Y-151842804D01*
X257391597Y-151823847D01*
X256319002Y-150751253D01*
X256319002Y-150636252D01*
X256477750Y-150795000D01*
X256942000Y-150798072D01*
X257066482Y-150785812D01*
X257186180Y-150749502D01*
X257296494Y-150690537D01*
X257393185Y-150611185D01*
X257472537Y-150514494D01*
X257531502Y-150404180D01*
X257567812Y-150284482D01*
X257580072Y-150160000D01*
X257577000Y-150145750D01*
X257418250Y-149987000D01*
X256319000Y-149987000D01*
X256319000Y-150007000D01*
X256065000Y-150007000D01*
X256065000Y-149987000D01*
X256045000Y-149987000D01*
X256045000Y-149830460D01*
X257208762Y-149830460D01*
X257238500Y-149833389D01*
X257268238Y-149830460D01*
X257268239Y-149830460D01*
X257357191Y-149821699D01*
X257471320Y-149787078D01*
X257576503Y-149730857D01*
X257668696Y-149655196D01*
X257687657Y-149632092D01*
X257899593Y-149420156D01*
X257922696Y-149401196D01*
X257998357Y-149309003D01*
X258054578Y-149203820D01*
X258089199Y-149089691D01*
X258097960Y-149000739D01*
X258097960Y-149000729D01*
X258100888Y-148971001D01*
X258097960Y-148941272D01*
X258097960Y-148238728D01*
X258100888Y-148208999D01*
X258097960Y-148179271D01*
X258097960Y-148179261D01*
X258089199Y-148090309D01*
X258054578Y-147976180D01*
X257998357Y-147870997D01*
X257922696Y-147778804D01*
X257899592Y-147759843D01*
X257687657Y-147547908D01*
X257682556Y-147541693D01*
X257772593Y-147451656D01*
X257795696Y-147432696D01*
X257871357Y-147340503D01*
X257927578Y-147235320D01*
X257962199Y-147121191D01*
X257970960Y-147032239D01*
X257970960Y-147032238D01*
X257973889Y-147002500D01*
X257970960Y-146972762D01*
X257970960Y-145000238D01*
X257973889Y-144970500D01*
X257962199Y-144851809D01*
X257953898Y-144824444D01*
X257927578Y-144737680D01*
X257871357Y-144632497D01*
X257795696Y-144540304D01*
X257772587Y-144521339D01*
X257624158Y-144372909D01*
X257605196Y-144349804D01*
X257513003Y-144274143D01*
X257407820Y-144217922D01*
X257368710Y-144206058D01*
X257364308Y-144197823D01*
X257320957Y-144145000D01*
X257364308Y-144092177D01*
X257411243Y-144004367D01*
X257440146Y-143909087D01*
X257449905Y-143810000D01*
X257449905Y-143210000D01*
X257440146Y-143110913D01*
X257411243Y-143015633D01*
X257364308Y-142927823D01*
X257320957Y-142875000D01*
X257364308Y-142822177D01*
X257411243Y-142734367D01*
X257440146Y-142639087D01*
X257449905Y-142540000D01*
X257449905Y-141940000D01*
X257440146Y-141840913D01*
X257411243Y-141745633D01*
X257364308Y-141657823D01*
X257301143Y-141580857D01*
X257224177Y-141517692D01*
X257136367Y-141470757D01*
X257041087Y-141441854D01*
X256942000Y-141432095D01*
X256240345Y-141432095D01*
X255750296Y-140942046D01*
X255933292Y-140876603D01*
X256058514Y-140809671D01*
X256130097Y-140565702D01*
X255317000Y-139752605D01*
X255302858Y-139766748D01*
X255123253Y-139587143D01*
X255137395Y-139573000D01*
X255496605Y-139573000D01*
X256309702Y-140386097D01*
X256553671Y-140314514D01*
X256674571Y-140059004D01*
X256743300Y-139784816D01*
X256757217Y-139502488D01*
X256715787Y-139222870D01*
X256620603Y-138956708D01*
X256553671Y-138831486D01*
X256309702Y-138759903D01*
X255496605Y-139573000D01*
X255137395Y-139573000D01*
X254324298Y-138759903D01*
X254080329Y-138831486D01*
X253959429Y-139086996D01*
X253946565Y-139138315D01*
X253388548Y-138580298D01*
X254503903Y-138580298D01*
X255317000Y-139393395D01*
X256130097Y-138580298D01*
X256058514Y-138336329D01*
X255803004Y-138215429D01*
X255528816Y-138146700D01*
X255246488Y-138132783D01*
X254966870Y-138174213D01*
X254700708Y-138269397D01*
X254575486Y-138336329D01*
X254503903Y-138580298D01*
X253388548Y-138580298D01*
X244824720Y-130016471D01*
X244824719Y-129658999D01*
X244827648Y-129629259D01*
X244815959Y-129510569D01*
X244781337Y-129396439D01*
X244725117Y-129291257D01*
X244668413Y-129222163D01*
X244668407Y-129222157D01*
X244649455Y-129199064D01*
X244626362Y-129180112D01*
X243711709Y-128265460D01*
X244145415Y-128265460D01*
X244205711Y-128411028D01*
X244293859Y-128542951D01*
X244406049Y-128655141D01*
X244537972Y-128743289D01*
X244684556Y-128804006D01*
X244840169Y-128834960D01*
X244998831Y-128834960D01*
X245154444Y-128804006D01*
X245301028Y-128743289D01*
X245432951Y-128655141D01*
X245545141Y-128542951D01*
X245633289Y-128411028D01*
X245694006Y-128264444D01*
X245724960Y-128108831D01*
X245724960Y-127950169D01*
X245694006Y-127794556D01*
X245633289Y-127647972D01*
X245545141Y-127516049D01*
X245432951Y-127403859D01*
X245301028Y-127315711D01*
X245154444Y-127254994D01*
X244998831Y-127224040D01*
X244933173Y-127224040D01*
X244848003Y-127154143D01*
X244742820Y-127097922D01*
X244628691Y-127063301D01*
X244539739Y-127054540D01*
X244539738Y-127054540D01*
X244510000Y-127051611D01*
X244480262Y-127054540D01*
X237533632Y-127054540D01*
X237513451Y-127034359D01*
X237381528Y-126946211D01*
X237234944Y-126885494D01*
X237079331Y-126854540D01*
X236920669Y-126854540D01*
X236765056Y-126885494D01*
X236618472Y-126946211D01*
X236486549Y-127034359D01*
X236374359Y-127146549D01*
X236286211Y-127278472D01*
X236225494Y-127425056D01*
X236194540Y-127580669D01*
X236194540Y-127739331D01*
X236225494Y-127894944D01*
X236286211Y-128041528D01*
X236374359Y-128173451D01*
X236486549Y-128285641D01*
X236618472Y-128373789D01*
X236765056Y-128434506D01*
X236920669Y-128465460D01*
X237079331Y-128465460D01*
X237234944Y-128434506D01*
X237381528Y-128373789D01*
X237513451Y-128285641D01*
X237533632Y-128265460D01*
X239955522Y-128265460D01*
X239944540Y-128320669D01*
X239944540Y-128479331D01*
X239947565Y-128494540D01*
X236220790Y-128494540D01*
X233684157Y-125957908D01*
X233665196Y-125934804D01*
X233573003Y-125859143D01*
X233467820Y-125802922D01*
X233353691Y-125768301D01*
X233264739Y-125759540D01*
X233264738Y-125759540D01*
X233235000Y-125756611D01*
X233205262Y-125759540D01*
X232880132Y-125759540D01*
X232859951Y-125739359D01*
X232728028Y-125651211D01*
X232581444Y-125590494D01*
X232425831Y-125559540D01*
X232267169Y-125559540D01*
X232111556Y-125590494D01*
X231964972Y-125651211D01*
X231833049Y-125739359D01*
X231720859Y-125851549D01*
X231632711Y-125983472D01*
X231571994Y-126130056D01*
X231541040Y-126285669D01*
X231541040Y-126444331D01*
X231571994Y-126599944D01*
X231632711Y-126746528D01*
X231720859Y-126878451D01*
X231833049Y-126990641D01*
X231964972Y-127078789D01*
X232111556Y-127139506D01*
X232267169Y-127170460D01*
X232425831Y-127170460D01*
X232581444Y-127139506D01*
X232728028Y-127078789D01*
X232859951Y-126990641D01*
X232880132Y-126970460D01*
X232984211Y-126970460D01*
X235520846Y-129507096D01*
X235539804Y-129530196D01*
X235631997Y-129605857D01*
X235737180Y-129662078D01*
X235840895Y-129693540D01*
X235467282Y-129693540D01*
X235416017Y-129616817D01*
X235234183Y-129434983D01*
X235020367Y-129292116D01*
X234782789Y-129193708D01*
X234530577Y-129143540D01*
X234273423Y-129143540D01*
X234021211Y-129193708D01*
X233783633Y-129292116D01*
X233569817Y-129434983D01*
X233387983Y-129616817D01*
X233336718Y-129693540D01*
X232927282Y-129693540D01*
X232876017Y-129616817D01*
X232694183Y-129434983D01*
X232480367Y-129292116D01*
X232242789Y-129193708D01*
X231990577Y-129143540D01*
X231733423Y-129143540D01*
X231481211Y-129193708D01*
X231243633Y-129292116D01*
X231029817Y-129434983D01*
X230847983Y-129616817D01*
X230796718Y-129693540D01*
X230629905Y-129693540D01*
X230629905Y-129649000D01*
X230620146Y-129549913D01*
X230591243Y-129454633D01*
X230544308Y-129366823D01*
X230481143Y-129289857D01*
X230404177Y-129226692D01*
X230316367Y-129179757D01*
X230221087Y-129150854D01*
X230122000Y-129141095D01*
X228522000Y-129141095D01*
X228422913Y-129150854D01*
X228327633Y-129179757D01*
X228239823Y-129226692D01*
X228162857Y-129289857D01*
X228099692Y-129366823D01*
X228052757Y-129454633D01*
X228023854Y-129549913D01*
X228014095Y-129649000D01*
X228014095Y-131249000D01*
X228023854Y-131348087D01*
X228052757Y-131443367D01*
X228099692Y-131531177D01*
X228162857Y-131608143D01*
X228239823Y-131671308D01*
X228316541Y-131712314D01*
X228316541Y-131924540D01*
X226750028Y-131924540D01*
X226226407Y-131400919D01*
X226084017Y-131187817D01*
X225902183Y-131005983D01*
X225688367Y-130863116D01*
X225450789Y-130764708D01*
X225198577Y-130714540D01*
X224941423Y-130714540D01*
X224689211Y-130764708D01*
X224451633Y-130863116D01*
X224237817Y-131005983D01*
X224055983Y-131187817D01*
X223913116Y-131401633D01*
X223814708Y-131639211D01*
X223764540Y-131891423D01*
X223764540Y-132148577D01*
X223814708Y-132400789D01*
X223913116Y-132638367D01*
X224055983Y-132852183D01*
X224237817Y-133034017D01*
X224450919Y-133176407D01*
X225298647Y-134024135D01*
X225337961Y-134072039D01*
X225529129Y-134228927D01*
X225747232Y-134345505D01*
X225771619Y-134352903D01*
X225687823Y-134397692D01*
X225610857Y-134460857D01*
X225547692Y-134537823D01*
X225500757Y-134625633D01*
X225471854Y-134720913D01*
X225462095Y-134820000D01*
X225462095Y-136266656D01*
X224890908Y-136837843D01*
X224867804Y-136856804D01*
X224792143Y-136948998D01*
X224735922Y-137054181D01*
X224716599Y-137117880D01*
X224701301Y-137168310D01*
X224689611Y-137287000D01*
X224692540Y-137316738D01*
X224692540Y-137672988D01*
X224355750Y-137675000D01*
X224197000Y-137833750D01*
X224197000Y-138983000D01*
X224217000Y-138983000D01*
X224217000Y-139237000D01*
X224197000Y-139237000D01*
X224197000Y-140386250D01*
X224262000Y-140451250D01*
X223874908Y-140838343D01*
X223851804Y-140857304D01*
X223776143Y-140949498D01*
X223719922Y-141054681D01*
X223694041Y-141139998D01*
X223685301Y-141168810D01*
X223673611Y-141287500D01*
X223676540Y-141317239D01*
X223676541Y-148306251D01*
X223673611Y-148336000D01*
X223685301Y-148454690D01*
X223719923Y-148568820D01*
X223776143Y-148674002D01*
X223824654Y-148733112D01*
X223851805Y-148766196D01*
X223874903Y-148785152D01*
X224244095Y-149154344D01*
X224244095Y-150406000D01*
X224253854Y-150505087D01*
X224282757Y-150600367D01*
X224329692Y-150688177D01*
X224392857Y-150765143D01*
X224469823Y-150828308D01*
X224557633Y-150875243D01*
X224652913Y-150904146D01*
X224752000Y-150913905D01*
X226352000Y-150913905D01*
X226451087Y-150904146D01*
X226546367Y-150875243D01*
X226634177Y-150828308D01*
X226711143Y-150765143D01*
X226774308Y-150688177D01*
X226821243Y-150600367D01*
X226850146Y-150505087D01*
X226859905Y-150406000D01*
X226859905Y-150042792D01*
X226935116Y-150224367D01*
X227077983Y-150438183D01*
X227259817Y-150620017D01*
X227473633Y-150762884D01*
X227711211Y-150861292D01*
X227963423Y-150911460D01*
X228220577Y-150911460D01*
X228472789Y-150861292D01*
X228710367Y-150762884D01*
X228924183Y-150620017D01*
X229106017Y-150438183D01*
X229248884Y-150224367D01*
X229347292Y-149986789D01*
X229362000Y-149912847D01*
X229376708Y-149986789D01*
X229475116Y-150224367D01*
X229617983Y-150438183D01*
X229799817Y-150620017D01*
X230013633Y-150762884D01*
X230251211Y-150861292D01*
X230503423Y-150911460D01*
X230760577Y-150911460D01*
X231012789Y-150861292D01*
X231250367Y-150762884D01*
X231464183Y-150620017D01*
X231646017Y-150438183D01*
X231788884Y-150224367D01*
X231887292Y-149986789D01*
X231902000Y-149912847D01*
X231916708Y-149986789D01*
X232015116Y-150224367D01*
X232157983Y-150438183D01*
X232339817Y-150620017D01*
X232553633Y-150762884D01*
X232791211Y-150861292D01*
X233043423Y-150911460D01*
X233300577Y-150911460D01*
X233552789Y-150861292D01*
X233790367Y-150762884D01*
X234004183Y-150620017D01*
X234186017Y-150438183D01*
X234328884Y-150224367D01*
X234427292Y-149986789D01*
X234442000Y-149912847D01*
X234456708Y-149986789D01*
X234555116Y-150224367D01*
X234697983Y-150438183D01*
X234879817Y-150620017D01*
X235093633Y-150762884D01*
X235331211Y-150861292D01*
X235583423Y-150911460D01*
X235840577Y-150911460D01*
X236092789Y-150861292D01*
X236330367Y-150762884D01*
X236544183Y-150620017D01*
X236726017Y-150438183D01*
X236868884Y-150224367D01*
X236967292Y-149986789D01*
X236982000Y-149912847D01*
X236996708Y-149986789D01*
X237095116Y-150224367D01*
X237237983Y-150438183D01*
X237419817Y-150620017D01*
X237633633Y-150762884D01*
X237871211Y-150861292D01*
X238123423Y-150911460D01*
X238380577Y-150911460D01*
X238632789Y-150861292D01*
X238870367Y-150762884D01*
X239084183Y-150620017D01*
X239266017Y-150438183D01*
X239408884Y-150224367D01*
X239507292Y-149986789D01*
X239557460Y-149734577D01*
X239557460Y-149477423D01*
X239516139Y-149269688D01*
X241656547Y-151410097D01*
X241675504Y-151433196D01*
X241698602Y-151452152D01*
X241698603Y-151452153D01*
X241718741Y-151468680D01*
X241767697Y-151508857D01*
X241872880Y-151565078D01*
X241987009Y-151599699D01*
X242075961Y-151608460D01*
X242075968Y-151608460D01*
X242105699Y-151611388D01*
X242135430Y-151608460D01*
X252001762Y-151608460D01*
X252031500Y-151611389D01*
X252061238Y-151608460D01*
X252061239Y-151608460D01*
X252150191Y-151599699D01*
X252236550Y-151573502D01*
X252236502Y-151573991D01*
X252236502Y-151598550D01*
X252234094Y-151623000D01*
X252234094Y-152123000D01*
X252238481Y-152167540D01*
X247566099Y-152167540D01*
X247528999Y-152163886D01*
X247491899Y-152167540D01*
X247491890Y-152167540D01*
X247380904Y-152178471D01*
X247238499Y-152221669D01*
X247107258Y-152291819D01*
X247107256Y-152291820D01*
X247107257Y-152291820D01*
X247021049Y-152362569D01*
X247021046Y-152362572D01*
X246992225Y-152386225D01*
X246968572Y-152415046D01*
X240862052Y-158521567D01*
X240833225Y-158545225D01*
X240738819Y-158660259D01*
X240682834Y-158765000D01*
X240606051Y-158765000D01*
X240595597Y-158745443D01*
X240579803Y-158726197D01*
X240560557Y-158710403D01*
X240538601Y-158698667D01*
X240514776Y-158691440D01*
X240490000Y-158689000D01*
X239690000Y-158689000D01*
X239665224Y-158691440D01*
X239641399Y-158698667D01*
X239619443Y-158710403D01*
X239600197Y-158726197D01*
X239584403Y-158745443D01*
X239573949Y-158765000D01*
X238066051Y-158765000D01*
X238055597Y-158745443D01*
X238039803Y-158726197D01*
X238020557Y-158710403D01*
X237998601Y-158698667D01*
X237974776Y-158691440D01*
X237950000Y-158689000D01*
X237150000Y-158689000D01*
X237125224Y-158691440D01*
X237101399Y-158698667D01*
X237079443Y-158710403D01*
X237060197Y-158726197D01*
X237044403Y-158745443D01*
X237033949Y-158765000D01*
X235526051Y-158765000D01*
X235515597Y-158745443D01*
X235499803Y-158726197D01*
X235480557Y-158710403D01*
X235458601Y-158698667D01*
X235434776Y-158691440D01*
X235410000Y-158689000D01*
X234610000Y-158689000D01*
X234585224Y-158691440D01*
X234561399Y-158698667D01*
X234539443Y-158710403D01*
X234520197Y-158726197D01*
X234504403Y-158745443D01*
X234493949Y-158765000D01*
X234355460Y-158765000D01*
X234355460Y-157978289D01*
X234683290Y-157650460D01*
X234711831Y-157650460D01*
X234867444Y-157619506D01*
X235014028Y-157558789D01*
X235145951Y-157470641D01*
X235258141Y-157358451D01*
X235346289Y-157226528D01*
X235407006Y-157079944D01*
X235437960Y-156924331D01*
X235437960Y-156765669D01*
X235407006Y-156610056D01*
X235346289Y-156463472D01*
X235258141Y-156331549D01*
X235145951Y-156219359D01*
X235014028Y-156131211D01*
X234867444Y-156070494D01*
X234711831Y-156039540D01*
X234553169Y-156039540D01*
X234397556Y-156070494D01*
X234250972Y-156131211D01*
X234119049Y-156219359D01*
X234006859Y-156331549D01*
X233918711Y-156463472D01*
X233857994Y-156610056D01*
X233827040Y-156765669D01*
X233827040Y-156794210D01*
X233342903Y-157278348D01*
X233319805Y-157297304D01*
X233300849Y-157320402D01*
X233300847Y-157320404D01*
X233244143Y-157389498D01*
X233187923Y-157494680D01*
X233153301Y-157608810D01*
X233141611Y-157727500D01*
X233144541Y-157757249D01*
X233144541Y-158765000D01*
X232986051Y-158765000D01*
X232975597Y-158745443D01*
X232959803Y-158726197D01*
X232940557Y-158710403D01*
X232918601Y-158698667D01*
X232894776Y-158691440D01*
X232870000Y-158689000D01*
X232070000Y-158689000D01*
X232045224Y-158691440D01*
X232021399Y-158698667D01*
X231999443Y-158710403D01*
X231980197Y-158726197D01*
X231964403Y-158745443D01*
X231953949Y-158765000D01*
X231815460Y-158765000D01*
X231815460Y-153879620D01*
X231829141Y-153865939D01*
X231917289Y-153734016D01*
X231978006Y-153587432D01*
X232008960Y-153431819D01*
X232008960Y-153273157D01*
X231978006Y-153117544D01*
X231917289Y-152970960D01*
X231829141Y-152839037D01*
X231716951Y-152726847D01*
X231585028Y-152638699D01*
X231438444Y-152577982D01*
X231282831Y-152547028D01*
X231124169Y-152547028D01*
X230968556Y-152577982D01*
X230821972Y-152638699D01*
X230690049Y-152726847D01*
X230577859Y-152839037D01*
X230489711Y-152970960D01*
X230428994Y-153117544D01*
X230398040Y-153273157D01*
X230398040Y-153431819D01*
X230428994Y-153587432D01*
X230489711Y-153734016D01*
X230577859Y-153865939D01*
X230604541Y-153892621D01*
X230604540Y-158765000D01*
X230446051Y-158765000D01*
X230435597Y-158745443D01*
X230419803Y-158726197D01*
X230400557Y-158710403D01*
X230378601Y-158698667D01*
X230354776Y-158691440D01*
X230330000Y-158689000D01*
X229530000Y-158689000D01*
X229505224Y-158691440D01*
X229481399Y-158698667D01*
X229459443Y-158710403D01*
X229440197Y-158726197D01*
X229424403Y-158745443D01*
X229413949Y-158765000D01*
X227906051Y-158765000D01*
X227895597Y-158745443D01*
X227879803Y-158726197D01*
X227860557Y-158710403D01*
X227838601Y-158698667D01*
X227814776Y-158691440D01*
X227790000Y-158689000D01*
X226990000Y-158689000D01*
X226965224Y-158691440D01*
X226941399Y-158698667D01*
X226919443Y-158710403D01*
X226900197Y-158726197D01*
X226884403Y-158745443D01*
X226873949Y-158765000D01*
X225366051Y-158765000D01*
X225355597Y-158745443D01*
X225339803Y-158726197D01*
X225320557Y-158710403D01*
X225298601Y-158698667D01*
X225274776Y-158691440D01*
X225250000Y-158689000D01*
X224450000Y-158689000D01*
X224425224Y-158691440D01*
X224401399Y-158698667D01*
X224379443Y-158710403D01*
X224360197Y-158726197D01*
X224344403Y-158745443D01*
X224333949Y-158765000D01*
X222826051Y-158765000D01*
X222815597Y-158745443D01*
X222799803Y-158726197D01*
X222780557Y-158710403D01*
X222758601Y-158698667D01*
X222734776Y-158691440D01*
X222710000Y-158689000D01*
X221910000Y-158689000D01*
X221885224Y-158691440D01*
X221861399Y-158698667D01*
X221839443Y-158710403D01*
X221820197Y-158726197D01*
X221804403Y-158745443D01*
X221793949Y-158765000D01*
X220286051Y-158765000D01*
X220275597Y-158745443D01*
X220259803Y-158726197D01*
X220240557Y-158710403D01*
X220218601Y-158698667D01*
X220194776Y-158691440D01*
X220170000Y-158689000D01*
X219370000Y-158689000D01*
X219345224Y-158691440D01*
X219321399Y-158698667D01*
X219299443Y-158710403D01*
X219280197Y-158726197D01*
X219264403Y-158745443D01*
X219253949Y-158765000D01*
X217746051Y-158765000D01*
X217735597Y-158745443D01*
X217719803Y-158726197D01*
X217700557Y-158710403D01*
X217678601Y-158698667D01*
X217654776Y-158691440D01*
X217630000Y-158689000D01*
X216830000Y-158689000D01*
X216805224Y-158691440D01*
X216781399Y-158698667D01*
X216759443Y-158710403D01*
X216740197Y-158726197D01*
X216724403Y-158745443D01*
X216713949Y-158765000D01*
X215206051Y-158765000D01*
X215195597Y-158745443D01*
X215179803Y-158726197D01*
X215160557Y-158710403D01*
X215138601Y-158698667D01*
X215114776Y-158691440D01*
X215090000Y-158689000D01*
X214290000Y-158689000D01*
X214265224Y-158691440D01*
X214241399Y-158698667D01*
X214219443Y-158710403D01*
X214200197Y-158726197D01*
X214184403Y-158745443D01*
X214173949Y-158765000D01*
X212666051Y-158765000D01*
X212655597Y-158745443D01*
X212639803Y-158726197D01*
X212620557Y-158710403D01*
X212598601Y-158698667D01*
X212574776Y-158691440D01*
X212550000Y-158689000D01*
X211750000Y-158689000D01*
X211725224Y-158691440D01*
X211701399Y-158698667D01*
X211679443Y-158710403D01*
X211660197Y-158726197D01*
X211644403Y-158745443D01*
X211633949Y-158765000D01*
X210126051Y-158765000D01*
X210115597Y-158745443D01*
X210099803Y-158726197D01*
X210080557Y-158710403D01*
X210058601Y-158698667D01*
X210034776Y-158691440D01*
X210010000Y-158689000D01*
X209210000Y-158689000D01*
X209185224Y-158691440D01*
X209161399Y-158698667D01*
X209139443Y-158710403D01*
X209120197Y-158726197D01*
X209104403Y-158745443D01*
X209093949Y-158765000D01*
X207586051Y-158765000D01*
X207575597Y-158745443D01*
X207559803Y-158726197D01*
X207540557Y-158710403D01*
X207518601Y-158698667D01*
X207494776Y-158691440D01*
X207470000Y-158689000D01*
X206670000Y-158689000D01*
X206645224Y-158691440D01*
X206621399Y-158698667D01*
X206599443Y-158710403D01*
X206580197Y-158726197D01*
X206564403Y-158745443D01*
X206553949Y-158765000D01*
X205046051Y-158765000D01*
X205035597Y-158745443D01*
X205019803Y-158726197D01*
X205000557Y-158710403D01*
X204978601Y-158698667D01*
X204954776Y-158691440D01*
X204930000Y-158689000D01*
X204130000Y-158689000D01*
X204105224Y-158691440D01*
X204081399Y-158698667D01*
X204059443Y-158710403D01*
X204040197Y-158726197D01*
X204024403Y-158745443D01*
X204013949Y-158765000D01*
X202506051Y-158765000D01*
X202495597Y-158745443D01*
X202479803Y-158726197D01*
X202460557Y-158710403D01*
X202438601Y-158698667D01*
X202414776Y-158691440D01*
X202390000Y-158689000D01*
X201590000Y-158689000D01*
X201565224Y-158691440D01*
X201541399Y-158698667D01*
X201519443Y-158710403D01*
X201500197Y-158726197D01*
X201484403Y-158745443D01*
X201473949Y-158765000D01*
X199966051Y-158765000D01*
X199955597Y-158745443D01*
X199939803Y-158726197D01*
X199920557Y-158710403D01*
X199898601Y-158698667D01*
X199874776Y-158691440D01*
X199850000Y-158689000D01*
X199050000Y-158689000D01*
X199025224Y-158691440D01*
X199001399Y-158698667D01*
X198979443Y-158710403D01*
X198960197Y-158726197D01*
X198944403Y-158745443D01*
X198933949Y-158765000D01*
X197426051Y-158765000D01*
X197415597Y-158745443D01*
X197399803Y-158726197D01*
X197380557Y-158710403D01*
X197358601Y-158698667D01*
X197334776Y-158691440D01*
X197310000Y-158689000D01*
X196510000Y-158689000D01*
X196485224Y-158691440D01*
X196461399Y-158698667D01*
X196439443Y-158710403D01*
X196420197Y-158726197D01*
X196404403Y-158745443D01*
X196393949Y-158765000D01*
X194886051Y-158765000D01*
X194875597Y-158745443D01*
X194859803Y-158726197D01*
X194840557Y-158710403D01*
X194818601Y-158698667D01*
X194794776Y-158691440D01*
X194770000Y-158689000D01*
X193970000Y-158689000D01*
X193945224Y-158691440D01*
X193921399Y-158698667D01*
X193899443Y-158710403D01*
X193880197Y-158726197D01*
X193864403Y-158745443D01*
X193853949Y-158765000D01*
X192346051Y-158765000D01*
X192335597Y-158745443D01*
X192319803Y-158726197D01*
X192300557Y-158710403D01*
X192278601Y-158698667D01*
X192254776Y-158691440D01*
X192230000Y-158689000D01*
X191430000Y-158689000D01*
X191405224Y-158691440D01*
X191381399Y-158698667D01*
X191359443Y-158710403D01*
X191340197Y-158726197D01*
X191324403Y-158745443D01*
X191313949Y-158765000D01*
X189806051Y-158765000D01*
X189795597Y-158745443D01*
X189779803Y-158726197D01*
X189760557Y-158710403D01*
X189738601Y-158698667D01*
X189714776Y-158691440D01*
X189690000Y-158689000D01*
X189035460Y-158689000D01*
X189035460Y-158608460D01*
X213298337Y-158608460D01*
X213360000Y-158614533D01*
X213421663Y-158608460D01*
X213421670Y-158608460D01*
X213606113Y-158590294D01*
X213842768Y-158518505D01*
X214060871Y-158401927D01*
X214252039Y-158245039D01*
X214291353Y-158197135D01*
X217789081Y-154699407D01*
X218002183Y-154557017D01*
X218010740Y-154548460D01*
X218996260Y-154548460D01*
X219004817Y-154557017D01*
X219218633Y-154699884D01*
X219456211Y-154798292D01*
X219708423Y-154848460D01*
X219965577Y-154848460D01*
X220217789Y-154798292D01*
X220455367Y-154699884D01*
X220669183Y-154557017D01*
X220851017Y-154375183D01*
X220993884Y-154161367D01*
X221092292Y-153923789D01*
X221142460Y-153671577D01*
X221142460Y-153414423D01*
X221092292Y-153162211D01*
X220993884Y-152924633D01*
X220851017Y-152710817D01*
X220842460Y-152702260D01*
X220842460Y-151306385D01*
X220847324Y-151257000D01*
X220827911Y-151059895D01*
X220799306Y-150965597D01*
X220770418Y-150870366D01*
X220677054Y-150695694D01*
X220551407Y-150542593D01*
X220513045Y-150511110D01*
X219975133Y-149973198D01*
X220187130Y-149941787D01*
X220453292Y-149846603D01*
X220578514Y-149779671D01*
X220650097Y-149535702D01*
X219837000Y-148722605D01*
X219822858Y-148736748D01*
X219643253Y-148557143D01*
X219657395Y-148543000D01*
X220016605Y-148543000D01*
X220829702Y-149356097D01*
X221073671Y-149284514D01*
X221194571Y-149029004D01*
X221263300Y-148754816D01*
X221277217Y-148472488D01*
X221235787Y-148192870D01*
X221140603Y-147926708D01*
X221073671Y-147801486D01*
X220829702Y-147729903D01*
X220016605Y-148543000D01*
X219657395Y-148543000D01*
X219643253Y-148528858D01*
X219822858Y-148349253D01*
X219837000Y-148363395D01*
X220650097Y-147550298D01*
X220578514Y-147306329D01*
X220323004Y-147185429D01*
X220048816Y-147116700D01*
X219943430Y-147111505D01*
X220640051Y-146414885D01*
X220678407Y-146383407D01*
X220709885Y-146345051D01*
X220709888Y-146345048D01*
X220791214Y-146245951D01*
X220804054Y-146230306D01*
X220897418Y-146055634D01*
X220941111Y-145911597D01*
X220954911Y-145866105D01*
X220974324Y-145669000D01*
X220969460Y-145619615D01*
X220969460Y-139910000D01*
X222631928Y-139910000D01*
X222644188Y-140034482D01*
X222680498Y-140154180D01*
X222739463Y-140264494D01*
X222818815Y-140361185D01*
X222915506Y-140440537D01*
X223025820Y-140499502D01*
X223145518Y-140535812D01*
X223270000Y-140548072D01*
X223784250Y-140545000D01*
X223943000Y-140386250D01*
X223943000Y-139237000D01*
X222793750Y-139237000D01*
X222635000Y-139395750D01*
X222631928Y-139910000D01*
X220969460Y-139910000D01*
X220969460Y-138310000D01*
X222631928Y-138310000D01*
X222635000Y-138824250D01*
X222793750Y-138983000D01*
X223943000Y-138983000D01*
X223943000Y-137833750D01*
X223784250Y-137675000D01*
X223270000Y-137671928D01*
X223145518Y-137684188D01*
X223025820Y-137720498D01*
X222915506Y-137779463D01*
X222818815Y-137858815D01*
X222739463Y-137955506D01*
X222680498Y-138065820D01*
X222644188Y-138185518D01*
X222631928Y-138310000D01*
X220969460Y-138310000D01*
X220969460Y-137482475D01*
X222926045Y-135525890D01*
X222964407Y-135494407D01*
X223040171Y-135402088D01*
X223082183Y-135374017D01*
X223264017Y-135192183D01*
X223406884Y-134978367D01*
X223505292Y-134740789D01*
X223555460Y-134488577D01*
X223555460Y-134231423D01*
X223505292Y-133979211D01*
X223406884Y-133741633D01*
X223264017Y-133527817D01*
X223082183Y-133345983D01*
X222869084Y-133203595D01*
X220912155Y-131246666D01*
X220991528Y-131213789D01*
X221123451Y-131125641D01*
X221145000Y-131104092D01*
X221256549Y-131215641D01*
X221388472Y-131303789D01*
X221535056Y-131364506D01*
X221690669Y-131395460D01*
X221849331Y-131395460D01*
X222004944Y-131364506D01*
X222151528Y-131303789D01*
X222283451Y-131215641D01*
X222395641Y-131103451D01*
X222483789Y-130971528D01*
X222544506Y-130824944D01*
X222575460Y-130669331D01*
X222575460Y-130510669D01*
X222544506Y-130355056D01*
X222483789Y-130208472D01*
X222395641Y-130076549D01*
X222375460Y-130056368D01*
X222375460Y-128012702D01*
X224256903Y-128012702D01*
X224328486Y-128256671D01*
X224583996Y-128377571D01*
X224858184Y-128446300D01*
X225140512Y-128460217D01*
X225420130Y-128418787D01*
X225686292Y-128323603D01*
X225811514Y-128256671D01*
X225883097Y-128012702D01*
X225070000Y-127199605D01*
X224256903Y-128012702D01*
X222375460Y-128012702D01*
X222375460Y-127090512D01*
X223629783Y-127090512D01*
X223671213Y-127370130D01*
X223766397Y-127636292D01*
X223833329Y-127761514D01*
X224077298Y-127833097D01*
X224890395Y-127020000D01*
X225249605Y-127020000D01*
X226062702Y-127833097D01*
X226306671Y-127761514D01*
X226427571Y-127506004D01*
X226496300Y-127231816D01*
X226510217Y-126949488D01*
X226468787Y-126669870D01*
X226373603Y-126403708D01*
X226306671Y-126278486D01*
X226062702Y-126206903D01*
X225249605Y-127020000D01*
X224890395Y-127020000D01*
X224077298Y-126206903D01*
X223833329Y-126278486D01*
X223712429Y-126533996D01*
X223643700Y-126808184D01*
X223629783Y-127090512D01*
X222375460Y-127090512D01*
X222375460Y-126027298D01*
X224256903Y-126027298D01*
X225070000Y-126840395D01*
X225883097Y-126027298D01*
X225811514Y-125783329D01*
X225556004Y-125662429D01*
X225281816Y-125593700D01*
X224999488Y-125579783D01*
X224719870Y-125621213D01*
X224453708Y-125716397D01*
X224328486Y-125783329D01*
X224256903Y-126027298D01*
X222375460Y-126027298D01*
X222375460Y-123479739D01*
X222378389Y-123450000D01*
X222372424Y-123389431D01*
X222366699Y-123331309D01*
X222332078Y-123217180D01*
X222275857Y-123111997D01*
X222200196Y-123019804D01*
X222177087Y-123000839D01*
X222029158Y-122852910D01*
X222029153Y-122852903D01*
X221876673Y-122700423D01*
X228016540Y-122700423D01*
X228016540Y-122957577D01*
X228066708Y-123209789D01*
X228165116Y-123447367D01*
X228307983Y-123661183D01*
X228489817Y-123843017D01*
X228703633Y-123985884D01*
X228941211Y-124084292D01*
X229193423Y-124134460D01*
X229450577Y-124134460D01*
X229702789Y-124084292D01*
X229940367Y-123985884D01*
X230154183Y-123843017D01*
X230336017Y-123661183D01*
X230478884Y-123447367D01*
X230577292Y-123209789D01*
X230592000Y-123135847D01*
X230606708Y-123209789D01*
X230705116Y-123447367D01*
X230847983Y-123661183D01*
X231029817Y-123843017D01*
X231243633Y-123985884D01*
X231481211Y-124084292D01*
X231733423Y-124134460D01*
X231990577Y-124134460D01*
X232242789Y-124084292D01*
X232480367Y-123985884D01*
X232694183Y-123843017D01*
X232876017Y-123661183D01*
X233018884Y-123447367D01*
X233117292Y-123209789D01*
X233132000Y-123135847D01*
X233146708Y-123209789D01*
X233245116Y-123447367D01*
X233387983Y-123661183D01*
X233569817Y-123843017D01*
X233783633Y-123985884D01*
X234021211Y-124084292D01*
X234273423Y-124134460D01*
X234530577Y-124134460D01*
X234782789Y-124084292D01*
X235020367Y-123985884D01*
X235234183Y-123843017D01*
X235416017Y-123661183D01*
X235558884Y-123447367D01*
X235657292Y-123209789D01*
X235672000Y-123135847D01*
X235686708Y-123209789D01*
X235785116Y-123447367D01*
X235927983Y-123661183D01*
X236109817Y-123843017D01*
X236323633Y-123985884D01*
X236561211Y-124084292D01*
X236813423Y-124134460D01*
X237070577Y-124134460D01*
X237322789Y-124084292D01*
X237560367Y-123985884D01*
X237774183Y-123843017D01*
X237956017Y-123661183D01*
X238098884Y-123447367D01*
X238197292Y-123209789D01*
X238212000Y-123135847D01*
X238226708Y-123209789D01*
X238325116Y-123447367D01*
X238467983Y-123661183D01*
X238649817Y-123843017D01*
X238863633Y-123985884D01*
X239101211Y-124084292D01*
X239353423Y-124134460D01*
X239610577Y-124134460D01*
X239862789Y-124084292D01*
X240100367Y-123985884D01*
X240314183Y-123843017D01*
X240496017Y-123661183D01*
X240638884Y-123447367D01*
X240737292Y-123209789D01*
X240752000Y-123135847D01*
X240766708Y-123209789D01*
X240865116Y-123447367D01*
X241007983Y-123661183D01*
X241189817Y-123843017D01*
X241403633Y-123985884D01*
X241641211Y-124084292D01*
X241893423Y-124134460D01*
X242150577Y-124134460D01*
X242402789Y-124084292D01*
X242640367Y-123985884D01*
X242854183Y-123843017D01*
X243036017Y-123661183D01*
X243178884Y-123447367D01*
X243277292Y-123209789D01*
X243327460Y-122957577D01*
X243327460Y-122700423D01*
X243277292Y-122448211D01*
X243178884Y-122210633D01*
X243036017Y-121996817D01*
X242854183Y-121814983D01*
X242640367Y-121672116D01*
X242402789Y-121573708D01*
X242150577Y-121523540D01*
X241893423Y-121523540D01*
X241641211Y-121573708D01*
X241403633Y-121672116D01*
X241189817Y-121814983D01*
X241007983Y-121996817D01*
X240865116Y-122210633D01*
X240766708Y-122448211D01*
X240752000Y-122522153D01*
X240737292Y-122448211D01*
X240638884Y-122210633D01*
X240496017Y-121996817D01*
X240314183Y-121814983D01*
X240100367Y-121672116D01*
X239862789Y-121573708D01*
X239610577Y-121523540D01*
X239353423Y-121523540D01*
X239203819Y-121553298D01*
X239244529Y-121419096D01*
X239255460Y-121308110D01*
X239255460Y-121308103D01*
X239259114Y-121271000D01*
X239255460Y-121233898D01*
X239255460Y-120765282D01*
X239332183Y-120714017D01*
X239514017Y-120532183D01*
X239656884Y-120318367D01*
X239755292Y-120080789D01*
X239770000Y-120006847D01*
X239784708Y-120080789D01*
X239883116Y-120318367D01*
X240025983Y-120532183D01*
X240207817Y-120714017D01*
X240421633Y-120856884D01*
X240659211Y-120955292D01*
X240911423Y-121005460D01*
X241168577Y-121005460D01*
X241420789Y-120955292D01*
X241658367Y-120856884D01*
X241872183Y-120714017D01*
X242054017Y-120532183D01*
X242196884Y-120318367D01*
X242295292Y-120080789D01*
X242310000Y-120006847D01*
X242324708Y-120080789D01*
X242423116Y-120318367D01*
X242565983Y-120532183D01*
X242747817Y-120714017D01*
X242961633Y-120856884D01*
X243199211Y-120955292D01*
X243451423Y-121005460D01*
X243708577Y-121005460D01*
X243960789Y-120955292D01*
X244198367Y-120856884D01*
X244412183Y-120714017D01*
X244594017Y-120532183D01*
X244736884Y-120318367D01*
X244835292Y-120080789D01*
X244885460Y-119828577D01*
X244885460Y-119571423D01*
X244835292Y-119319211D01*
X244736884Y-119081633D01*
X244594017Y-118867817D01*
X244412183Y-118685983D01*
X244198367Y-118543116D01*
X243960789Y-118444708D01*
X243708577Y-118394540D01*
X243451423Y-118394540D01*
X243199211Y-118444708D01*
X242961633Y-118543116D01*
X242747817Y-118685983D01*
X242565983Y-118867817D01*
X242423116Y-119081633D01*
X242324708Y-119319211D01*
X242310000Y-119393153D01*
X242295292Y-119319211D01*
X242196884Y-119081633D01*
X242054017Y-118867817D01*
X241872183Y-118685983D01*
X241658367Y-118543116D01*
X241420789Y-118444708D01*
X241168577Y-118394540D01*
X240911423Y-118394540D01*
X240659211Y-118444708D01*
X240421633Y-118543116D01*
X240207817Y-118685983D01*
X240025983Y-118867817D01*
X239883116Y-119081633D01*
X239784708Y-119319211D01*
X239770000Y-119393153D01*
X239755292Y-119319211D01*
X239656884Y-119081633D01*
X239514017Y-118867817D01*
X239332183Y-118685983D01*
X239118367Y-118543116D01*
X238880789Y-118444708D01*
X238628577Y-118394540D01*
X238371423Y-118394540D01*
X238119211Y-118444708D01*
X237881633Y-118543116D01*
X237667817Y-118685983D01*
X237485983Y-118867817D01*
X237343116Y-119081633D01*
X237244708Y-119319211D01*
X237230000Y-119393153D01*
X237215292Y-119319211D01*
X237116884Y-119081633D01*
X236974017Y-118867817D01*
X236792183Y-118685983D01*
X236578367Y-118543116D01*
X236340789Y-118444708D01*
X236088577Y-118394540D01*
X235831423Y-118394540D01*
X235579211Y-118444708D01*
X235341633Y-118543116D01*
X235127817Y-118685983D01*
X234945983Y-118867817D01*
X234803116Y-119081633D01*
X234704708Y-119319211D01*
X234690000Y-119393153D01*
X234675292Y-119319211D01*
X234576884Y-119081633D01*
X234434017Y-118867817D01*
X234252183Y-118685983D01*
X234038367Y-118543116D01*
X233800789Y-118444708D01*
X233548577Y-118394540D01*
X233291423Y-118394540D01*
X233039211Y-118444708D01*
X232801633Y-118543116D01*
X232587817Y-118685983D01*
X232405983Y-118867817D01*
X232263116Y-119081633D01*
X232164708Y-119319211D01*
X232150000Y-119393153D01*
X232135292Y-119319211D01*
X232036884Y-119081633D01*
X231894017Y-118867817D01*
X231712183Y-118685983D01*
X231498367Y-118543116D01*
X231260789Y-118444708D01*
X231008577Y-118394540D01*
X230751423Y-118394540D01*
X230499211Y-118444708D01*
X230261633Y-118543116D01*
X230047817Y-118685983D01*
X229865983Y-118867817D01*
X229777473Y-119000282D01*
X229778072Y-118900000D01*
X229765812Y-118775518D01*
X229729502Y-118655820D01*
X229670537Y-118545506D01*
X229591185Y-118448815D01*
X229494494Y-118369463D01*
X229384180Y-118310498D01*
X229264482Y-118274188D01*
X229140000Y-118261928D01*
X228625750Y-118265000D01*
X228467000Y-118423750D01*
X228467000Y-119573000D01*
X228487000Y-119573000D01*
X228487000Y-119827000D01*
X228467000Y-119827000D01*
X228467000Y-120976250D01*
X228625750Y-121135000D01*
X229140000Y-121138072D01*
X229264482Y-121125812D01*
X229384180Y-121089502D01*
X229494494Y-121030537D01*
X229591185Y-120951185D01*
X229670537Y-120854494D01*
X229729502Y-120744180D01*
X229765812Y-120624482D01*
X229778072Y-120500000D01*
X229777473Y-120399718D01*
X229865983Y-120532183D01*
X230047817Y-120714017D01*
X230124541Y-120765282D01*
X230124541Y-120958078D01*
X229541077Y-121541542D01*
X229450577Y-121523540D01*
X229193423Y-121523540D01*
X228941211Y-121573708D01*
X228703633Y-121672116D01*
X228489817Y-121814983D01*
X228307983Y-121996817D01*
X228165116Y-122210633D01*
X228066708Y-122448211D01*
X228016540Y-122700423D01*
X221876673Y-122700423D01*
X220065460Y-120889211D01*
X220065460Y-120860669D01*
X220034506Y-120705056D01*
X219973789Y-120558472D01*
X219934720Y-120500000D01*
X226901928Y-120500000D01*
X226914188Y-120624482D01*
X226950498Y-120744180D01*
X227009463Y-120854494D01*
X227088815Y-120951185D01*
X227185506Y-121030537D01*
X227295820Y-121089502D01*
X227415518Y-121125812D01*
X227540000Y-121138072D01*
X228054250Y-121135000D01*
X228213000Y-120976250D01*
X228213000Y-119827000D01*
X227063750Y-119827000D01*
X226905000Y-119985750D01*
X226901928Y-120500000D01*
X219934720Y-120500000D01*
X219885641Y-120426549D01*
X219876924Y-120417832D01*
X220090789Y-120375292D01*
X220328367Y-120276884D01*
X220542183Y-120134017D01*
X220724017Y-119952183D01*
X220866884Y-119738367D01*
X220942095Y-119556792D01*
X220942095Y-119920000D01*
X220951854Y-120019087D01*
X220980757Y-120114367D01*
X221027692Y-120202177D01*
X221090857Y-120279143D01*
X221167823Y-120342308D01*
X221255633Y-120389243D01*
X221350913Y-120418146D01*
X221450000Y-120427905D01*
X223050000Y-120427905D01*
X223149087Y-120418146D01*
X223244367Y-120389243D01*
X223332177Y-120342308D01*
X223409143Y-120279143D01*
X223472308Y-120202177D01*
X223519243Y-120114367D01*
X223548146Y-120019087D01*
X223557905Y-119920000D01*
X223557905Y-118900000D01*
X226901928Y-118900000D01*
X226905000Y-119414250D01*
X227063750Y-119573000D01*
X228213000Y-119573000D01*
X228213000Y-118423750D01*
X228054250Y-118265000D01*
X227540000Y-118261928D01*
X227415518Y-118274188D01*
X227295820Y-118310498D01*
X227185506Y-118369463D01*
X227088815Y-118448815D01*
X227009463Y-118545506D01*
X226950498Y-118655820D01*
X226914188Y-118775518D01*
X226901928Y-118900000D01*
X223557905Y-118900000D01*
X223557905Y-118320000D01*
X223548146Y-118220913D01*
X223519243Y-118125633D01*
X223472308Y-118037823D01*
X223409143Y-117960857D01*
X223332177Y-117897692D01*
X223244367Y-117850757D01*
X223149087Y-117821854D01*
X223050000Y-117812095D01*
X221450000Y-117812095D01*
X221350913Y-117821854D01*
X221255633Y-117850757D01*
X221167823Y-117897692D01*
X221090857Y-117960857D01*
X221027692Y-118037823D01*
X220980757Y-118125633D01*
X220951854Y-118220913D01*
X220942095Y-118320000D01*
X220942095Y-118683208D01*
X220866884Y-118501633D01*
X220724017Y-118287817D01*
X220542183Y-118105983D01*
X220328367Y-117963116D01*
X220090789Y-117864708D01*
X219838577Y-117814540D01*
X219581423Y-117814540D01*
X219329211Y-117864708D01*
X219091633Y-117963116D01*
X218877817Y-118105983D01*
X218695983Y-118287817D01*
X218553116Y-118501633D01*
X218454708Y-118739211D01*
X218440000Y-118813153D01*
X218425292Y-118739211D01*
X218326884Y-118501633D01*
X218184017Y-118287817D01*
X218002183Y-118105983D01*
X217788367Y-117963116D01*
X217550789Y-117864708D01*
X217298577Y-117814540D01*
X217041423Y-117814540D01*
X216789211Y-117864708D01*
X216551633Y-117963116D01*
X216337817Y-118105983D01*
X216155983Y-118287817D01*
X216013116Y-118501633D01*
X215914708Y-118739211D01*
X215900000Y-118813153D01*
X215885292Y-118739211D01*
X215786884Y-118501633D01*
X215644017Y-118287817D01*
X215462183Y-118105983D01*
X215248367Y-117963116D01*
X215010789Y-117864708D01*
X214758577Y-117814540D01*
X214501423Y-117814540D01*
X214249211Y-117864708D01*
X214011633Y-117963116D01*
X213797817Y-118105983D01*
X213615983Y-118287817D01*
X213473116Y-118501633D01*
X213374708Y-118739211D01*
X213360000Y-118813153D01*
X213345292Y-118739211D01*
X213246884Y-118501633D01*
X213104017Y-118287817D01*
X212922183Y-118105983D01*
X212708367Y-117963116D01*
X212470789Y-117864708D01*
X212218577Y-117814540D01*
X211961423Y-117814540D01*
X211709211Y-117864708D01*
X211471633Y-117963116D01*
X211257817Y-118105983D01*
X211075983Y-118287817D01*
X210933116Y-118501633D01*
X210834708Y-118739211D01*
X210820000Y-118813153D01*
X210805292Y-118739211D01*
X210706884Y-118501633D01*
X210564017Y-118287817D01*
X210382183Y-118105983D01*
X210168367Y-117963116D01*
X209930789Y-117864708D01*
X209678577Y-117814540D01*
X209421423Y-117814540D01*
X209169211Y-117864708D01*
X208931633Y-117963116D01*
X208717817Y-118105983D01*
X208535983Y-118287817D01*
X208393116Y-118501633D01*
X208294708Y-118739211D01*
X208280000Y-118813153D01*
X208265292Y-118739211D01*
X208166884Y-118501633D01*
X208024017Y-118287817D01*
X207842183Y-118105983D01*
X207628367Y-117963116D01*
X207390789Y-117864708D01*
X207138577Y-117814540D01*
X206881423Y-117814540D01*
X206629211Y-117864708D01*
X206391633Y-117963116D01*
X206177817Y-118105983D01*
X205995983Y-118287817D01*
X205853116Y-118501633D01*
X205754708Y-118739211D01*
X205740000Y-118813153D01*
X205725292Y-118739211D01*
X205626884Y-118501633D01*
X205484017Y-118287817D01*
X205302183Y-118105983D01*
X205088367Y-117963116D01*
X204850789Y-117864708D01*
X204598577Y-117814540D01*
X204341423Y-117814540D01*
X204089211Y-117864708D01*
X203851633Y-117963116D01*
X203637817Y-118105983D01*
X203455983Y-118287817D01*
X203313116Y-118501633D01*
X203214708Y-118739211D01*
X203200000Y-118813153D01*
X203185292Y-118739211D01*
X203086884Y-118501633D01*
X202944017Y-118287817D01*
X202762183Y-118105983D01*
X202548367Y-117963116D01*
X202310789Y-117864708D01*
X202058577Y-117814540D01*
X201801423Y-117814540D01*
X201549211Y-117864708D01*
X201311633Y-117963116D01*
X201097817Y-118105983D01*
X200915983Y-118287817D01*
X200773116Y-118501633D01*
X200674708Y-118739211D01*
X200660000Y-118813153D01*
X200645292Y-118739211D01*
X200546884Y-118501633D01*
X200404017Y-118287817D01*
X200222183Y-118105983D01*
X200008367Y-117963116D01*
X199770789Y-117864708D01*
X199518577Y-117814540D01*
X199261423Y-117814540D01*
X199009211Y-117864708D01*
X198771633Y-117963116D01*
X198557817Y-118105983D01*
X198375983Y-118287817D01*
X198233116Y-118501633D01*
X198134708Y-118739211D01*
X198120000Y-118813153D01*
X198105292Y-118739211D01*
X198006884Y-118501633D01*
X197864017Y-118287817D01*
X197682183Y-118105983D01*
X197468367Y-117963116D01*
X197230789Y-117864708D01*
X196978577Y-117814540D01*
X196721423Y-117814540D01*
X196469211Y-117864708D01*
X196231633Y-117963116D01*
X196017817Y-118105983D01*
X195835983Y-118287817D01*
X195693116Y-118501633D01*
X195594708Y-118739211D01*
X195580000Y-118813153D01*
X195565292Y-118739211D01*
X195466884Y-118501633D01*
X195324017Y-118287817D01*
X195142183Y-118105983D01*
X194928367Y-117963116D01*
X194690789Y-117864708D01*
X194438577Y-117814540D01*
X194181423Y-117814540D01*
X193929211Y-117864708D01*
X193691633Y-117963116D01*
X193477817Y-118105983D01*
X193295983Y-118287817D01*
X193153116Y-118501633D01*
X193054708Y-118739211D01*
X193040000Y-118813153D01*
X193025292Y-118739211D01*
X192926884Y-118501633D01*
X192784017Y-118287817D01*
X192602183Y-118105983D01*
X192388367Y-117963116D01*
X192150789Y-117864708D01*
X191898577Y-117814540D01*
X191641423Y-117814540D01*
X191389211Y-117864708D01*
X191151633Y-117963116D01*
X190937817Y-118105983D01*
X190755983Y-118287817D01*
X190613116Y-118501633D01*
X190514708Y-118739211D01*
X190500000Y-118813153D01*
X190485292Y-118739211D01*
X190386884Y-118501633D01*
X190244017Y-118287817D01*
X190062183Y-118105983D01*
X189848367Y-117963116D01*
X189610789Y-117864708D01*
X189358577Y-117814540D01*
X189101423Y-117814540D01*
X188849211Y-117864708D01*
X188611633Y-117963116D01*
X188397817Y-118105983D01*
X188215983Y-118287817D01*
X188073116Y-118501633D01*
X187974708Y-118739211D01*
X187960000Y-118813153D01*
X187945292Y-118739211D01*
X187846884Y-118501633D01*
X187704017Y-118287817D01*
X187522183Y-118105983D01*
X187308367Y-117963116D01*
X187070789Y-117864708D01*
X186818577Y-117814540D01*
X186561423Y-117814540D01*
X186309211Y-117864708D01*
X186071633Y-117963116D01*
X185857817Y-118105983D01*
X185675983Y-118287817D01*
X185533116Y-118501633D01*
X185486105Y-118615127D01*
X185447070Y-118506119D01*
X185302385Y-118264869D01*
X185113414Y-118056481D01*
X184887420Y-117888963D01*
X184633087Y-117768754D01*
X184499039Y-117728096D01*
X184277000Y-117850085D01*
X184277000Y-118993000D01*
X184297000Y-118993000D01*
X184297000Y-119247000D01*
X184277000Y-119247000D01*
X184277000Y-120389915D01*
X184499039Y-120511904D01*
X184633087Y-120471246D01*
X184887420Y-120351037D01*
X185113414Y-120183519D01*
X185302385Y-119975131D01*
X185447070Y-119733881D01*
X185486105Y-119624873D01*
X185533116Y-119738367D01*
X185675983Y-119952183D01*
X185857817Y-120134017D01*
X186071633Y-120276884D01*
X186309211Y-120375292D01*
X186561423Y-120425460D01*
X186818577Y-120425460D01*
X187070789Y-120375292D01*
X187079453Y-120371703D01*
X187154940Y-120447190D01*
X187154941Y-133139565D01*
X187070789Y-133104708D01*
X186818577Y-133054540D01*
X186561423Y-133054540D01*
X186309211Y-133104708D01*
X186071633Y-133203116D01*
X185857817Y-133345983D01*
X185675983Y-133527817D01*
X185533116Y-133741633D01*
X185434708Y-133979211D01*
X185420000Y-134053153D01*
X185405292Y-133979211D01*
X185306884Y-133741633D01*
X185164017Y-133527817D01*
X184982183Y-133345983D01*
X184768367Y-133203116D01*
X184530789Y-133104708D01*
X184278577Y-133054540D01*
X184021423Y-133054540D01*
X183769211Y-133104708D01*
X183531633Y-133203116D01*
X183317817Y-133345983D01*
X183135983Y-133527817D01*
X182993116Y-133741633D01*
X182894708Y-133979211D01*
X182844540Y-134231423D01*
X182844540Y-134488577D01*
X182894708Y-134740789D01*
X182993116Y-134978367D01*
X183135983Y-135192183D01*
X183317817Y-135374017D01*
X183531633Y-135516884D01*
X183769211Y-135615292D01*
X184021423Y-135665460D01*
X184278577Y-135665460D01*
X184530789Y-135615292D01*
X184539453Y-135611703D01*
X184614940Y-135687190D01*
X184614940Y-136946250D01*
X184499039Y-136911096D01*
X184277000Y-137033085D01*
X184277000Y-138176000D01*
X184297000Y-138176000D01*
X184297000Y-138430000D01*
X184277000Y-138430000D01*
X184277000Y-139572915D01*
X184499039Y-139694904D01*
X184614940Y-139659750D01*
X184614941Y-152221809D01*
X184543696Y-152293054D01*
X184530789Y-152287708D01*
X184278577Y-152237540D01*
X184021423Y-152237540D01*
X183769211Y-152287708D01*
X183531633Y-152386116D01*
X183317817Y-152528983D01*
X183135983Y-152710817D01*
X182993116Y-152924633D01*
X182894708Y-153162211D01*
X182844540Y-153414423D01*
X182844540Y-153671577D01*
X182894708Y-153923789D01*
X182993116Y-154161367D01*
X183135983Y-154375183D01*
X183317817Y-154557017D01*
X183531633Y-154699884D01*
X183769211Y-154798292D01*
X184021423Y-154848460D01*
X184278577Y-154848460D01*
X184530789Y-154798292D01*
X184768367Y-154699884D01*
X184982183Y-154557017D01*
X185164017Y-154375183D01*
X185306884Y-154161367D01*
X185405292Y-153923789D01*
X185420000Y-153849847D01*
X185434708Y-153923789D01*
X185533116Y-154161367D01*
X185675983Y-154375183D01*
X185857817Y-154557017D01*
X186071633Y-154699884D01*
X186309211Y-154798292D01*
X186561423Y-154848460D01*
X186818577Y-154848460D01*
X187070789Y-154798292D01*
X187308367Y-154699884D01*
X187522183Y-154557017D01*
X187704017Y-154375183D01*
X187846884Y-154161367D01*
X187945292Y-153923789D01*
X187960000Y-153849847D01*
X187974708Y-153923789D01*
X188073116Y-154161367D01*
X188215983Y-154375183D01*
X188397817Y-154557017D01*
X188611633Y-154699884D01*
X188849211Y-154798292D01*
X189101423Y-154848460D01*
X189358577Y-154848460D01*
X189610789Y-154798292D01*
X189848367Y-154699884D01*
X190062183Y-154557017D01*
X190244017Y-154375183D01*
X190386884Y-154161367D01*
X190485292Y-153923789D01*
X190500000Y-153849847D01*
X190514708Y-153923789D01*
X190613116Y-154161367D01*
X190755983Y-154375183D01*
X190937817Y-154557017D01*
X191151633Y-154699884D01*
X191389211Y-154798292D01*
X191641423Y-154848460D01*
X191898577Y-154848460D01*
X192150789Y-154798292D01*
X192388367Y-154699884D01*
X192576056Y-154574474D01*
X192609804Y-154615596D01*
X192632908Y-154634557D01*
X193029440Y-155031090D01*
X193029440Y-155059631D01*
X193049413Y-155160040D01*
X189890632Y-155160040D01*
X189870451Y-155139859D01*
X189738528Y-155051711D01*
X189591944Y-154990994D01*
X189436331Y-154960040D01*
X189277669Y-154960040D01*
X189122056Y-154990994D01*
X188975472Y-155051711D01*
X188843549Y-155139859D01*
X188731359Y-155252049D01*
X188643211Y-155383972D01*
X188582494Y-155530556D01*
X188551540Y-155686169D01*
X188551540Y-155844831D01*
X188582494Y-156000444D01*
X188600989Y-156045095D01*
X187160000Y-156045095D01*
X187060913Y-156054854D01*
X186965633Y-156083757D01*
X186877823Y-156130692D01*
X186800857Y-156193857D01*
X186737692Y-156270823D01*
X186690757Y-156358633D01*
X186661854Y-156453913D01*
X186652095Y-156553000D01*
X186652095Y-158153000D01*
X186661854Y-158252087D01*
X186690757Y-158347367D01*
X186737692Y-158435177D01*
X186800857Y-158512143D01*
X186877823Y-158575308D01*
X186965633Y-158622243D01*
X187024541Y-158640113D01*
X187024541Y-158689000D01*
X186350000Y-158689000D01*
X186325224Y-158691440D01*
X186301399Y-158698667D01*
X186279443Y-158710403D01*
X186260197Y-158726197D01*
X186244403Y-158745443D01*
X186233949Y-158765000D01*
X184726051Y-158765000D01*
X184715597Y-158745443D01*
X184699803Y-158726197D01*
X184680557Y-158710403D01*
X184658601Y-158698667D01*
X184634776Y-158691440D01*
X184610000Y-158689000D01*
X183810000Y-158689000D01*
X183785224Y-158691440D01*
X183761399Y-158698667D01*
X183739443Y-158710403D01*
X183720197Y-158726197D01*
X183704403Y-158745443D01*
X183693949Y-158765000D01*
X183220953Y-158765000D01*
X183310130Y-158751787D01*
X183576292Y-158656603D01*
X183701514Y-158589671D01*
X183773097Y-158345702D01*
X182960000Y-157532605D01*
X182146903Y-158345702D01*
X182218486Y-158589671D01*
X182473996Y-158710571D01*
X182691135Y-158765000D01*
X182126051Y-158765000D01*
X182115597Y-158745443D01*
X182099803Y-158726197D01*
X182080557Y-158710403D01*
X182058601Y-158698667D01*
X182034776Y-158691440D01*
X182010000Y-158689000D01*
X181086760Y-158689000D01*
X181086760Y-157423512D01*
X181519783Y-157423512D01*
X181561213Y-157703130D01*
X181656397Y-157969292D01*
X181723329Y-158094514D01*
X181967298Y-158166097D01*
X182780395Y-157353000D01*
X183139605Y-157353000D01*
X183952702Y-158166097D01*
X184196671Y-158094514D01*
X184317571Y-157839004D01*
X184386300Y-157564816D01*
X184400217Y-157282488D01*
X184358787Y-157002870D01*
X184263603Y-156736708D01*
X184196671Y-156611486D01*
X183952702Y-156539903D01*
X183139605Y-157353000D01*
X182780395Y-157353000D01*
X181967298Y-156539903D01*
X181723329Y-156611486D01*
X181602429Y-156866996D01*
X181533700Y-157141184D01*
X181519783Y-157423512D01*
X181086760Y-157423512D01*
X181086760Y-156360298D01*
X182146903Y-156360298D01*
X182960000Y-157173395D01*
X183773097Y-156360298D01*
X183701514Y-156116329D01*
X183446004Y-155995429D01*
X183171816Y-155926700D01*
X182889488Y-155912783D01*
X182609870Y-155954213D01*
X182343708Y-156049397D01*
X182218486Y-156116329D01*
X182146903Y-156360298D01*
X181086760Y-156360298D01*
X181086760Y-138652040D01*
X182758091Y-138652040D01*
X182852930Y-138916881D01*
X182997615Y-139158131D01*
X183186586Y-139366519D01*
X183412580Y-139534037D01*
X183666913Y-139654246D01*
X183800961Y-139694904D01*
X184023000Y-139572915D01*
X184023000Y-138430000D01*
X182879376Y-138430000D01*
X182758091Y-138652040D01*
X181086760Y-138652040D01*
X181086760Y-137953960D01*
X182758091Y-137953960D01*
X182879376Y-138176000D01*
X184023000Y-138176000D01*
X184023000Y-137033085D01*
X183800961Y-136911096D01*
X183666913Y-136951754D01*
X183412580Y-137071963D01*
X183186586Y-137239481D01*
X182997615Y-137447869D01*
X182852930Y-137689119D01*
X182758091Y-137953960D01*
X181086760Y-137953960D01*
X181086760Y-119469040D01*
X182758091Y-119469040D01*
X182852930Y-119733881D01*
X182997615Y-119975131D01*
X183186586Y-120183519D01*
X183412580Y-120351037D01*
X183666913Y-120471246D01*
X183800961Y-120511904D01*
X184023000Y-120389915D01*
X184023000Y-119247000D01*
X182879376Y-119247000D01*
X182758091Y-119469040D01*
X181086760Y-119469040D01*
X181086760Y-118770960D01*
X182758091Y-118770960D01*
X182879376Y-118993000D01*
X184023000Y-118993000D01*
X184023000Y-117850085D01*
X183800961Y-117728096D01*
X183666913Y-117768754D01*
X183412580Y-117888963D01*
X183186586Y-118056481D01*
X182997615Y-118264869D01*
X182852930Y-118506119D01*
X182758091Y-118770960D01*
X181086760Y-118770960D01*
X181086760Y-118034442D01*
X181144502Y-117445532D01*
X181305646Y-116911797D01*
X181567390Y-116419528D01*
X181919766Y-115987470D01*
X182349350Y-115632088D01*
X182839783Y-115366911D01*
X183372376Y-115202046D01*
X183959281Y-115140360D01*
X258080758Y-115140360D01*
X258669668Y-115198102D01*
G37*
X258669668Y-115198102D02*
X259203403Y-115359246D01*
X259695672Y-115620990D01*
X260127730Y-115973366D01*
X260483112Y-116402950D01*
X260748289Y-116893383D01*
X260913154Y-117425976D01*
X260974841Y-118012890D01*
X260974840Y-158689000D01*
X260010000Y-158689000D01*
X259985224Y-158691440D01*
X259961399Y-158698667D01*
X259939443Y-158710403D01*
X259920197Y-158726197D01*
X259904403Y-158745443D01*
X259893949Y-158765000D01*
X258386051Y-158765000D01*
X258375597Y-158745443D01*
X258359803Y-158726197D01*
X258340557Y-158710403D01*
X258318601Y-158698667D01*
X258294776Y-158691440D01*
X258270000Y-158689000D01*
X257470000Y-158689000D01*
X257445224Y-158691440D01*
X257421399Y-158698667D01*
X257399443Y-158710403D01*
X257380197Y-158726197D01*
X257364403Y-158745443D01*
X257353949Y-158765000D01*
X255846051Y-158765000D01*
X255835597Y-158745443D01*
X255819803Y-158726197D01*
X255800557Y-158710403D01*
X255778601Y-158698667D01*
X255754776Y-158691440D01*
X255730000Y-158689000D01*
X255075460Y-158689000D01*
X255075460Y-157529385D01*
X255080324Y-157480000D01*
X255066510Y-157339740D01*
X257391599Y-155014651D01*
X257414696Y-154995696D01*
X257490357Y-154903503D01*
X257546578Y-154798320D01*
X257581199Y-154684191D01*
X257589960Y-154595239D01*
X257589960Y-154595230D01*
X257592888Y-154565501D01*
X257589960Y-154535772D01*
X257589960Y-152302738D01*
X257592889Y-152273000D01*
X257581199Y-152154309D01*
X257570014Y-152117438D01*
X257546578Y-152040180D01*
X257490357Y-151934997D01*
X257414696Y-151842804D01*
X257391597Y-151823847D01*
X256319002Y-150751253D01*
X256319002Y-150636252D01*
X256477750Y-150795000D01*
X256942000Y-150798072D01*
X257066482Y-150785812D01*
X257186180Y-150749502D01*
X257296494Y-150690537D01*
X257393185Y-150611185D01*
X257472537Y-150514494D01*
X257531502Y-150404180D01*
X257567812Y-150284482D01*
X257580072Y-150160000D01*
X257577000Y-150145750D01*
X257418250Y-149987000D01*
X256319000Y-149987000D01*
X256319000Y-150007000D01*
X256065000Y-150007000D01*
X256065000Y-149987000D01*
X256045000Y-149987000D01*
X256045000Y-149830460D01*
X257208762Y-149830460D01*
X257238500Y-149833389D01*
X257268238Y-149830460D01*
X257268239Y-149830460D01*
X257357191Y-149821699D01*
X257471320Y-149787078D01*
X257576503Y-149730857D01*
X257668696Y-149655196D01*
X257687657Y-149632092D01*
X257899593Y-149420156D01*
X257922696Y-149401196D01*
X257998357Y-149309003D01*
X258054578Y-149203820D01*
X258089199Y-149089691D01*
X258097960Y-149000739D01*
X258097960Y-149000729D01*
X258100888Y-148971001D01*
X258097960Y-148941272D01*
X258097960Y-148238728D01*
X258100888Y-148208999D01*
X258097960Y-148179271D01*
X258097960Y-148179261D01*
X258089199Y-148090309D01*
X258054578Y-147976180D01*
X257998357Y-147870997D01*
X257922696Y-147778804D01*
X257899592Y-147759843D01*
X257687657Y-147547908D01*
X257682556Y-147541693D01*
X257772593Y-147451656D01*
X257795696Y-147432696D01*
X257871357Y-147340503D01*
X257927578Y-147235320D01*
X257962199Y-147121191D01*
X257970960Y-147032239D01*
X257970960Y-147032238D01*
X257973889Y-147002500D01*
X257970960Y-146972762D01*
X257970960Y-145000238D01*
X257973889Y-144970500D01*
X257962199Y-144851809D01*
X257953898Y-144824444D01*
X257927578Y-144737680D01*
X257871357Y-144632497D01*
X257795696Y-144540304D01*
X257772587Y-144521339D01*
X257624158Y-144372909D01*
X257605196Y-144349804D01*
X257513003Y-144274143D01*
X257407820Y-144217922D01*
X257368710Y-144206058D01*
X257364308Y-144197823D01*
X257320957Y-144145000D01*
X257364308Y-144092177D01*
X257411243Y-144004367D01*
X257440146Y-143909087D01*
X257449905Y-143810000D01*
X257449905Y-143210000D01*
X257440146Y-143110913D01*
X257411243Y-143015633D01*
X257364308Y-142927823D01*
X257320957Y-142875000D01*
X257364308Y-142822177D01*
X257411243Y-142734367D01*
X257440146Y-142639087D01*
X257449905Y-142540000D01*
X257449905Y-141940000D01*
X257440146Y-141840913D01*
X257411243Y-141745633D01*
X257364308Y-141657823D01*
X257301143Y-141580857D01*
X257224177Y-141517692D01*
X257136367Y-141470757D01*
X257041087Y-141441854D01*
X256942000Y-141432095D01*
X256240345Y-141432095D01*
X255750296Y-140942046D01*
X255933292Y-140876603D01*
X256058514Y-140809671D01*
X256130097Y-140565702D01*
X255317000Y-139752605D01*
X255302858Y-139766748D01*
X255123253Y-139587143D01*
X255137395Y-139573000D01*
X255496605Y-139573000D01*
X256309702Y-140386097D01*
X256553671Y-140314514D01*
X256674571Y-140059004D01*
X256743300Y-139784816D01*
X256757217Y-139502488D01*
X256715787Y-139222870D01*
X256620603Y-138956708D01*
X256553671Y-138831486D01*
X256309702Y-138759903D01*
X255496605Y-139573000D01*
X255137395Y-139573000D01*
X254324298Y-138759903D01*
X254080329Y-138831486D01*
X253959429Y-139086996D01*
X253946565Y-139138315D01*
X253388548Y-138580298D01*
X254503903Y-138580298D01*
X255317000Y-139393395D01*
X256130097Y-138580298D01*
X256058514Y-138336329D01*
X255803004Y-138215429D01*
X255528816Y-138146700D01*
X255246488Y-138132783D01*
X254966870Y-138174213D01*
X254700708Y-138269397D01*
X254575486Y-138336329D01*
X254503903Y-138580298D01*
X253388548Y-138580298D01*
X244824720Y-130016471D01*
X244824719Y-129658999D01*
X244827648Y-129629259D01*
X244815959Y-129510569D01*
X244781337Y-129396439D01*
X244725117Y-129291257D01*
X244668413Y-129222163D01*
X244668407Y-129222157D01*
X244649455Y-129199064D01*
X244626362Y-129180112D01*
X243711709Y-128265460D01*
X244145415Y-128265460D01*
X244205711Y-128411028D01*
X244293859Y-128542951D01*
X244406049Y-128655141D01*
X244537972Y-128743289D01*
X244684556Y-128804006D01*
X244840169Y-128834960D01*
X244998831Y-128834960D01*
X245154444Y-128804006D01*
X245301028Y-128743289D01*
X245432951Y-128655141D01*
X245545141Y-128542951D01*
X245633289Y-128411028D01*
X245694006Y-128264444D01*
X245724960Y-128108831D01*
X245724960Y-127950169D01*
X245694006Y-127794556D01*
X245633289Y-127647972D01*
X245545141Y-127516049D01*
X245432951Y-127403859D01*
X245301028Y-127315711D01*
X245154444Y-127254994D01*
X244998831Y-127224040D01*
X244933173Y-127224040D01*
X244848003Y-127154143D01*
X244742820Y-127097922D01*
X244628691Y-127063301D01*
X244539739Y-127054540D01*
X244539738Y-127054540D01*
X244510000Y-127051611D01*
X244480262Y-127054540D01*
X237533632Y-127054540D01*
X237513451Y-127034359D01*
X237381528Y-126946211D01*
X237234944Y-126885494D01*
X237079331Y-126854540D01*
X236920669Y-126854540D01*
X236765056Y-126885494D01*
X236618472Y-126946211D01*
X236486549Y-127034359D01*
X236374359Y-127146549D01*
X236286211Y-127278472D01*
X236225494Y-127425056D01*
X236194540Y-127580669D01*
X236194540Y-127739331D01*
X236225494Y-127894944D01*
X236286211Y-128041528D01*
X236374359Y-128173451D01*
X236486549Y-128285641D01*
X236618472Y-128373789D01*
X236765056Y-128434506D01*
X236920669Y-128465460D01*
X237079331Y-128465460D01*
X237234944Y-128434506D01*
X237381528Y-128373789D01*
X237513451Y-128285641D01*
X237533632Y-128265460D01*
X239955522Y-128265460D01*
X239944540Y-128320669D01*
X239944540Y-128479331D01*
X239947565Y-128494540D01*
X236220790Y-128494540D01*
X233684157Y-125957908D01*
X233665196Y-125934804D01*
X233573003Y-125859143D01*
X233467820Y-125802922D01*
X233353691Y-125768301D01*
X233264739Y-125759540D01*
X233264738Y-125759540D01*
X233235000Y-125756611D01*
X233205262Y-125759540D01*
X232880132Y-125759540D01*
X232859951Y-125739359D01*
X232728028Y-125651211D01*
X232581444Y-125590494D01*
X232425831Y-125559540D01*
X232267169Y-125559540D01*
X232111556Y-125590494D01*
X231964972Y-125651211D01*
X231833049Y-125739359D01*
X231720859Y-125851549D01*
X231632711Y-125983472D01*
X231571994Y-126130056D01*
X231541040Y-126285669D01*
X231541040Y-126444331D01*
X231571994Y-126599944D01*
X231632711Y-126746528D01*
X231720859Y-126878451D01*
X231833049Y-126990641D01*
X231964972Y-127078789D01*
X232111556Y-127139506D01*
X232267169Y-127170460D01*
X232425831Y-127170460D01*
X232581444Y-127139506D01*
X232728028Y-127078789D01*
X232859951Y-126990641D01*
X232880132Y-126970460D01*
X232984211Y-126970460D01*
X235520846Y-129507096D01*
X235539804Y-129530196D01*
X235631997Y-129605857D01*
X235737180Y-129662078D01*
X235840895Y-129693540D01*
X235467282Y-129693540D01*
X235416017Y-129616817D01*
X235234183Y-129434983D01*
X235020367Y-129292116D01*
X234782789Y-129193708D01*
X234530577Y-129143540D01*
X234273423Y-129143540D01*
X234021211Y-129193708D01*
X233783633Y-129292116D01*
X233569817Y-129434983D01*
X233387983Y-129616817D01*
X233336718Y-129693540D01*
X232927282Y-129693540D01*
X232876017Y-129616817D01*
X232694183Y-129434983D01*
X232480367Y-129292116D01*
X232242789Y-129193708D01*
X231990577Y-129143540D01*
X231733423Y-129143540D01*
X231481211Y-129193708D01*
X231243633Y-129292116D01*
X231029817Y-129434983D01*
X230847983Y-129616817D01*
X230796718Y-129693540D01*
X230629905Y-129693540D01*
X230629905Y-129649000D01*
X230620146Y-129549913D01*
X230591243Y-129454633D01*
X230544308Y-129366823D01*
X230481143Y-129289857D01*
X230404177Y-129226692D01*
X230316367Y-129179757D01*
X230221087Y-129150854D01*
X230122000Y-129141095D01*
X228522000Y-129141095D01*
X228422913Y-129150854D01*
X228327633Y-129179757D01*
X228239823Y-129226692D01*
X228162857Y-129289857D01*
X228099692Y-129366823D01*
X228052757Y-129454633D01*
X228023854Y-129549913D01*
X228014095Y-129649000D01*
X228014095Y-131249000D01*
X228023854Y-131348087D01*
X228052757Y-131443367D01*
X228099692Y-131531177D01*
X228162857Y-131608143D01*
X228239823Y-131671308D01*
X228316541Y-131712314D01*
X228316541Y-131924540D01*
X226750028Y-131924540D01*
X226226407Y-131400919D01*
X226084017Y-131187817D01*
X225902183Y-131005983D01*
X225688367Y-130863116D01*
X225450789Y-130764708D01*
X225198577Y-130714540D01*
X224941423Y-130714540D01*
X224689211Y-130764708D01*
X224451633Y-130863116D01*
X224237817Y-131005983D01*
X224055983Y-131187817D01*
X223913116Y-131401633D01*
X223814708Y-131639211D01*
X223764540Y-131891423D01*
X223764540Y-132148577D01*
X223814708Y-132400789D01*
X223913116Y-132638367D01*
X224055983Y-132852183D01*
X224237817Y-133034017D01*
X224450919Y-133176407D01*
X225298647Y-134024135D01*
X225337961Y-134072039D01*
X225529129Y-134228927D01*
X225747232Y-134345505D01*
X225771619Y-134352903D01*
X225687823Y-134397692D01*
X225610857Y-134460857D01*
X225547692Y-134537823D01*
X225500757Y-134625633D01*
X225471854Y-134720913D01*
X225462095Y-134820000D01*
X225462095Y-136266656D01*
X224890908Y-136837843D01*
X224867804Y-136856804D01*
X224792143Y-136948998D01*
X224735922Y-137054181D01*
X224716599Y-137117880D01*
X224701301Y-137168310D01*
X224689611Y-137287000D01*
X224692540Y-137316738D01*
X224692540Y-137672988D01*
X224355750Y-137675000D01*
X224197000Y-137833750D01*
X224197000Y-138983000D01*
X224217000Y-138983000D01*
X224217000Y-139237000D01*
X224197000Y-139237000D01*
X224197000Y-140386250D01*
X224262000Y-140451250D01*
X223874908Y-140838343D01*
X223851804Y-140857304D01*
X223776143Y-140949498D01*
X223719922Y-141054681D01*
X223694041Y-141139998D01*
X223685301Y-141168810D01*
X223673611Y-141287500D01*
X223676540Y-141317239D01*
X223676541Y-148306251D01*
X223673611Y-148336000D01*
X223685301Y-148454690D01*
X223719923Y-148568820D01*
X223776143Y-148674002D01*
X223824654Y-148733112D01*
X223851805Y-148766196D01*
X223874903Y-148785152D01*
X224244095Y-149154344D01*
X224244095Y-150406000D01*
X224253854Y-150505087D01*
X224282757Y-150600367D01*
X224329692Y-150688177D01*
X224392857Y-150765143D01*
X224469823Y-150828308D01*
X224557633Y-150875243D01*
X224652913Y-150904146D01*
X224752000Y-150913905D01*
X226352000Y-150913905D01*
X226451087Y-150904146D01*
X226546367Y-150875243D01*
X226634177Y-150828308D01*
X226711143Y-150765143D01*
X226774308Y-150688177D01*
X226821243Y-150600367D01*
X226850146Y-150505087D01*
X226859905Y-150406000D01*
X226859905Y-150042792D01*
X226935116Y-150224367D01*
X227077983Y-150438183D01*
X227259817Y-150620017D01*
X227473633Y-150762884D01*
X227711211Y-150861292D01*
X227963423Y-150911460D01*
X228220577Y-150911460D01*
X228472789Y-150861292D01*
X228710367Y-150762884D01*
X228924183Y-150620017D01*
X229106017Y-150438183D01*
X229248884Y-150224367D01*
X229347292Y-149986789D01*
X229362000Y-149912847D01*
X229376708Y-149986789D01*
X229475116Y-150224367D01*
X229617983Y-150438183D01*
X229799817Y-150620017D01*
X230013633Y-150762884D01*
X230251211Y-150861292D01*
X230503423Y-150911460D01*
X230760577Y-150911460D01*
X231012789Y-150861292D01*
X231250367Y-150762884D01*
X231464183Y-150620017D01*
X231646017Y-150438183D01*
X231788884Y-150224367D01*
X231887292Y-149986789D01*
X231902000Y-149912847D01*
X231916708Y-149986789D01*
X232015116Y-150224367D01*
X232157983Y-150438183D01*
X232339817Y-150620017D01*
X232553633Y-150762884D01*
X232791211Y-150861292D01*
X233043423Y-150911460D01*
X233300577Y-150911460D01*
X233552789Y-150861292D01*
X233790367Y-150762884D01*
X234004183Y-150620017D01*
X234186017Y-150438183D01*
X234328884Y-150224367D01*
X234427292Y-149986789D01*
X234442000Y-149912847D01*
X234456708Y-149986789D01*
X234555116Y-150224367D01*
X234697983Y-150438183D01*
X234879817Y-150620017D01*
X235093633Y-150762884D01*
X235331211Y-150861292D01*
X235583423Y-150911460D01*
X235840577Y-150911460D01*
X236092789Y-150861292D01*
X236330367Y-150762884D01*
X236544183Y-150620017D01*
X236726017Y-150438183D01*
X236868884Y-150224367D01*
X236967292Y-149986789D01*
X236982000Y-149912847D01*
X236996708Y-149986789D01*
X237095116Y-150224367D01*
X237237983Y-150438183D01*
X237419817Y-150620017D01*
X237633633Y-150762884D01*
X237871211Y-150861292D01*
X238123423Y-150911460D01*
X238380577Y-150911460D01*
X238632789Y-150861292D01*
X238870367Y-150762884D01*
X239084183Y-150620017D01*
X239266017Y-150438183D01*
X239408884Y-150224367D01*
X239507292Y-149986789D01*
X239557460Y-149734577D01*
X239557460Y-149477423D01*
X239516139Y-149269688D01*
X241656547Y-151410097D01*
X241675504Y-151433196D01*
X241698602Y-151452152D01*
X241698603Y-151452153D01*
X241718741Y-151468680D01*
X241767697Y-151508857D01*
X241872880Y-151565078D01*
X241987009Y-151599699D01*
X242075961Y-151608460D01*
X242075968Y-151608460D01*
X242105699Y-151611388D01*
X242135430Y-151608460D01*
X252001762Y-151608460D01*
X252031500Y-151611389D01*
X252061238Y-151608460D01*
X252061239Y-151608460D01*
X252150191Y-151599699D01*
X252236550Y-151573502D01*
X252236502Y-151573991D01*
X252236502Y-151598550D01*
X252234094Y-151623000D01*
X252234094Y-152123000D01*
X252238481Y-152167540D01*
X247566099Y-152167540D01*
X247528999Y-152163886D01*
X247491899Y-152167540D01*
X247491890Y-152167540D01*
X247380904Y-152178471D01*
X247238499Y-152221669D01*
X247107258Y-152291819D01*
X247107256Y-152291820D01*
X247107257Y-152291820D01*
X247021049Y-152362569D01*
X247021046Y-152362572D01*
X246992225Y-152386225D01*
X246968572Y-152415046D01*
X240862052Y-158521567D01*
X240833225Y-158545225D01*
X240738819Y-158660259D01*
X240682834Y-158765000D01*
X240606051Y-158765000D01*
X240595597Y-158745443D01*
X240579803Y-158726197D01*
X240560557Y-158710403D01*
X240538601Y-158698667D01*
X240514776Y-158691440D01*
X240490000Y-158689000D01*
X239690000Y-158689000D01*
X239665224Y-158691440D01*
X239641399Y-158698667D01*
X239619443Y-158710403D01*
X239600197Y-158726197D01*
X239584403Y-158745443D01*
X239573949Y-158765000D01*
X238066051Y-158765000D01*
X238055597Y-158745443D01*
X238039803Y-158726197D01*
X238020557Y-158710403D01*
X237998601Y-158698667D01*
X237974776Y-158691440D01*
X237950000Y-158689000D01*
X237150000Y-158689000D01*
X237125224Y-158691440D01*
X237101399Y-158698667D01*
X237079443Y-158710403D01*
X237060197Y-158726197D01*
X237044403Y-158745443D01*
X237033949Y-158765000D01*
X235526051Y-158765000D01*
X235515597Y-158745443D01*
X235499803Y-158726197D01*
X235480557Y-158710403D01*
X235458601Y-158698667D01*
X235434776Y-158691440D01*
X235410000Y-158689000D01*
X234610000Y-158689000D01*
X234585224Y-158691440D01*
X234561399Y-158698667D01*
X234539443Y-158710403D01*
X234520197Y-158726197D01*
X234504403Y-158745443D01*
X234493949Y-158765000D01*
X234355460Y-158765000D01*
X234355460Y-157978289D01*
X234683290Y-157650460D01*
X234711831Y-157650460D01*
X234867444Y-157619506D01*
X235014028Y-157558789D01*
X235145951Y-157470641D01*
X235258141Y-157358451D01*
X235346289Y-157226528D01*
X235407006Y-157079944D01*
X235437960Y-156924331D01*
X235437960Y-156765669D01*
X235407006Y-156610056D01*
X235346289Y-156463472D01*
X235258141Y-156331549D01*
X235145951Y-156219359D01*
X235014028Y-156131211D01*
X234867444Y-156070494D01*
X234711831Y-156039540D01*
X234553169Y-156039540D01*
X234397556Y-156070494D01*
X234250972Y-156131211D01*
X234119049Y-156219359D01*
X234006859Y-156331549D01*
X233918711Y-156463472D01*
X233857994Y-156610056D01*
X233827040Y-156765669D01*
X233827040Y-156794210D01*
X233342903Y-157278348D01*
X233319805Y-157297304D01*
X233300849Y-157320402D01*
X233300847Y-157320404D01*
X233244143Y-157389498D01*
X233187923Y-157494680D01*
X233153301Y-157608810D01*
X233141611Y-157727500D01*
X233144541Y-157757249D01*
X233144541Y-158765000D01*
X232986051Y-158765000D01*
X232975597Y-158745443D01*
X232959803Y-158726197D01*
X232940557Y-158710403D01*
X232918601Y-158698667D01*
X232894776Y-158691440D01*
X232870000Y-158689000D01*
X232070000Y-158689000D01*
X232045224Y-158691440D01*
X232021399Y-158698667D01*
X231999443Y-158710403D01*
X231980197Y-158726197D01*
X231964403Y-158745443D01*
X231953949Y-158765000D01*
X231815460Y-158765000D01*
X231815460Y-153879620D01*
X231829141Y-153865939D01*
X231917289Y-153734016D01*
X231978006Y-153587432D01*
X232008960Y-153431819D01*
X232008960Y-153273157D01*
X231978006Y-153117544D01*
X231917289Y-152970960D01*
X231829141Y-152839037D01*
X231716951Y-152726847D01*
X231585028Y-152638699D01*
X231438444Y-152577982D01*
X231282831Y-152547028D01*
X231124169Y-152547028D01*
X230968556Y-152577982D01*
X230821972Y-152638699D01*
X230690049Y-152726847D01*
X230577859Y-152839037D01*
X230489711Y-152970960D01*
X230428994Y-153117544D01*
X230398040Y-153273157D01*
X230398040Y-153431819D01*
X230428994Y-153587432D01*
X230489711Y-153734016D01*
X230577859Y-153865939D01*
X230604541Y-153892621D01*
X230604540Y-158765000D01*
X230446051Y-158765000D01*
X230435597Y-158745443D01*
X230419803Y-158726197D01*
X230400557Y-158710403D01*
X230378601Y-158698667D01*
X230354776Y-158691440D01*
X230330000Y-158689000D01*
X229530000Y-158689000D01*
X229505224Y-158691440D01*
X229481399Y-158698667D01*
X229459443Y-158710403D01*
X229440197Y-158726197D01*
X229424403Y-158745443D01*
X229413949Y-158765000D01*
X227906051Y-158765000D01*
X227895597Y-158745443D01*
X227879803Y-158726197D01*
X227860557Y-158710403D01*
X227838601Y-158698667D01*
X227814776Y-158691440D01*
X227790000Y-158689000D01*
X226990000Y-158689000D01*
X226965224Y-158691440D01*
X226941399Y-158698667D01*
X226919443Y-158710403D01*
X226900197Y-158726197D01*
X226884403Y-158745443D01*
X226873949Y-158765000D01*
X225366051Y-158765000D01*
X225355597Y-158745443D01*
X225339803Y-158726197D01*
X225320557Y-158710403D01*
X225298601Y-158698667D01*
X225274776Y-158691440D01*
X225250000Y-158689000D01*
X224450000Y-158689000D01*
X224425224Y-158691440D01*
X224401399Y-158698667D01*
X224379443Y-158710403D01*
X224360197Y-158726197D01*
X224344403Y-158745443D01*
X224333949Y-158765000D01*
X222826051Y-158765000D01*
X222815597Y-158745443D01*
X222799803Y-158726197D01*
X222780557Y-158710403D01*
X222758601Y-158698667D01*
X222734776Y-158691440D01*
X222710000Y-158689000D01*
X221910000Y-158689000D01*
X221885224Y-158691440D01*
X221861399Y-158698667D01*
X221839443Y-158710403D01*
X221820197Y-158726197D01*
X221804403Y-158745443D01*
X221793949Y-158765000D01*
X220286051Y-158765000D01*
X220275597Y-158745443D01*
X220259803Y-158726197D01*
X220240557Y-158710403D01*
X220218601Y-158698667D01*
X220194776Y-158691440D01*
X220170000Y-158689000D01*
X219370000Y-158689000D01*
X219345224Y-158691440D01*
X219321399Y-158698667D01*
X219299443Y-158710403D01*
X219280197Y-158726197D01*
X219264403Y-158745443D01*
X219253949Y-158765000D01*
X217746051Y-158765000D01*
X217735597Y-158745443D01*
X217719803Y-158726197D01*
X217700557Y-158710403D01*
X217678601Y-158698667D01*
X217654776Y-158691440D01*
X217630000Y-158689000D01*
X216830000Y-158689000D01*
X216805224Y-158691440D01*
X216781399Y-158698667D01*
X216759443Y-158710403D01*
X216740197Y-158726197D01*
X216724403Y-158745443D01*
X216713949Y-158765000D01*
X215206051Y-158765000D01*
X215195597Y-158745443D01*
X215179803Y-158726197D01*
X215160557Y-158710403D01*
X215138601Y-158698667D01*
X215114776Y-158691440D01*
X215090000Y-158689000D01*
X214290000Y-158689000D01*
X214265224Y-158691440D01*
X214241399Y-158698667D01*
X214219443Y-158710403D01*
X214200197Y-158726197D01*
X214184403Y-158745443D01*
X214173949Y-158765000D01*
X212666051Y-158765000D01*
X212655597Y-158745443D01*
X212639803Y-158726197D01*
X212620557Y-158710403D01*
X212598601Y-158698667D01*
X212574776Y-158691440D01*
X212550000Y-158689000D01*
X211750000Y-158689000D01*
X211725224Y-158691440D01*
X211701399Y-158698667D01*
X211679443Y-158710403D01*
X211660197Y-158726197D01*
X211644403Y-158745443D01*
X211633949Y-158765000D01*
X210126051Y-158765000D01*
X210115597Y-158745443D01*
X210099803Y-158726197D01*
X210080557Y-158710403D01*
X210058601Y-158698667D01*
X210034776Y-158691440D01*
X210010000Y-158689000D01*
X209210000Y-158689000D01*
X209185224Y-158691440D01*
X209161399Y-158698667D01*
X209139443Y-158710403D01*
X209120197Y-158726197D01*
X209104403Y-158745443D01*
X209093949Y-158765000D01*
X207586051Y-158765000D01*
X207575597Y-158745443D01*
X207559803Y-158726197D01*
X207540557Y-158710403D01*
X207518601Y-158698667D01*
X207494776Y-158691440D01*
X207470000Y-158689000D01*
X206670000Y-158689000D01*
X206645224Y-158691440D01*
X206621399Y-158698667D01*
X206599443Y-158710403D01*
X206580197Y-158726197D01*
X206564403Y-158745443D01*
X206553949Y-158765000D01*
X205046051Y-158765000D01*
X205035597Y-158745443D01*
X205019803Y-158726197D01*
X205000557Y-158710403D01*
X204978601Y-158698667D01*
X204954776Y-158691440D01*
X204930000Y-158689000D01*
X204130000Y-158689000D01*
X204105224Y-158691440D01*
X204081399Y-158698667D01*
X204059443Y-158710403D01*
X204040197Y-158726197D01*
X204024403Y-158745443D01*
X204013949Y-158765000D01*
X202506051Y-158765000D01*
X202495597Y-158745443D01*
X202479803Y-158726197D01*
X202460557Y-158710403D01*
X202438601Y-158698667D01*
X202414776Y-158691440D01*
X202390000Y-158689000D01*
X201590000Y-158689000D01*
X201565224Y-158691440D01*
X201541399Y-158698667D01*
X201519443Y-158710403D01*
X201500197Y-158726197D01*
X201484403Y-158745443D01*
X201473949Y-158765000D01*
X199966051Y-158765000D01*
X199955597Y-158745443D01*
X199939803Y-158726197D01*
X199920557Y-158710403D01*
X199898601Y-158698667D01*
X199874776Y-158691440D01*
X199850000Y-158689000D01*
X199050000Y-158689000D01*
X199025224Y-158691440D01*
X199001399Y-158698667D01*
X198979443Y-158710403D01*
X198960197Y-158726197D01*
X198944403Y-158745443D01*
X198933949Y-158765000D01*
X197426051Y-158765000D01*
X197415597Y-158745443D01*
X197399803Y-158726197D01*
X197380557Y-158710403D01*
X197358601Y-158698667D01*
X197334776Y-158691440D01*
X197310000Y-158689000D01*
X196510000Y-158689000D01*
X196485224Y-158691440D01*
X196461399Y-158698667D01*
X196439443Y-158710403D01*
X196420197Y-158726197D01*
X196404403Y-158745443D01*
X196393949Y-158765000D01*
X194886051Y-158765000D01*
X194875597Y-158745443D01*
X194859803Y-158726197D01*
X194840557Y-158710403D01*
X194818601Y-158698667D01*
X194794776Y-158691440D01*
X194770000Y-158689000D01*
X193970000Y-158689000D01*
X193945224Y-158691440D01*
X193921399Y-158698667D01*
X193899443Y-158710403D01*
X193880197Y-158726197D01*
X193864403Y-158745443D01*
X193853949Y-158765000D01*
X192346051Y-158765000D01*
X192335597Y-158745443D01*
X192319803Y-158726197D01*
X192300557Y-158710403D01*
X192278601Y-158698667D01*
X192254776Y-158691440D01*
X192230000Y-158689000D01*
X191430000Y-158689000D01*
X191405224Y-158691440D01*
X191381399Y-158698667D01*
X191359443Y-158710403D01*
X191340197Y-158726197D01*
X191324403Y-158745443D01*
X191313949Y-158765000D01*
X189806051Y-158765000D01*
X189795597Y-158745443D01*
X189779803Y-158726197D01*
X189760557Y-158710403D01*
X189738601Y-158698667D01*
X189714776Y-158691440D01*
X189690000Y-158689000D01*
X189035460Y-158689000D01*
X189035460Y-158608460D01*
X213298337Y-158608460D01*
X213360000Y-158614533D01*
X213421663Y-158608460D01*
X213421670Y-158608460D01*
X213606113Y-158590294D01*
X213842768Y-158518505D01*
X214060871Y-158401927D01*
X214252039Y-158245039D01*
X214291353Y-158197135D01*
X217789081Y-154699407D01*
X218002183Y-154557017D01*
X218010740Y-154548460D01*
X218996260Y-154548460D01*
X219004817Y-154557017D01*
X219218633Y-154699884D01*
X219456211Y-154798292D01*
X219708423Y-154848460D01*
X219965577Y-154848460D01*
X220217789Y-154798292D01*
X220455367Y-154699884D01*
X220669183Y-154557017D01*
X220851017Y-154375183D01*
X220993884Y-154161367D01*
X221092292Y-153923789D01*
X221142460Y-153671577D01*
X221142460Y-153414423D01*
X221092292Y-153162211D01*
X220993884Y-152924633D01*
X220851017Y-152710817D01*
X220842460Y-152702260D01*
X220842460Y-151306385D01*
X220847324Y-151257000D01*
X220827911Y-151059895D01*
X220799306Y-150965597D01*
X220770418Y-150870366D01*
X220677054Y-150695694D01*
X220551407Y-150542593D01*
X220513045Y-150511110D01*
X219975133Y-149973198D01*
X220187130Y-149941787D01*
X220453292Y-149846603D01*
X220578514Y-149779671D01*
X220650097Y-149535702D01*
X219837000Y-148722605D01*
X219822858Y-148736748D01*
X219643253Y-148557143D01*
X219657395Y-148543000D01*
X220016605Y-148543000D01*
X220829702Y-149356097D01*
X221073671Y-149284514D01*
X221194571Y-149029004D01*
X221263300Y-148754816D01*
X221277217Y-148472488D01*
X221235787Y-148192870D01*
X221140603Y-147926708D01*
X221073671Y-147801486D01*
X220829702Y-147729903D01*
X220016605Y-148543000D01*
X219657395Y-148543000D01*
X219643253Y-148528858D01*
X219822858Y-148349253D01*
X219837000Y-148363395D01*
X220650097Y-147550298D01*
X220578514Y-147306329D01*
X220323004Y-147185429D01*
X220048816Y-147116700D01*
X219943430Y-147111505D01*
X220640051Y-146414885D01*
X220678407Y-146383407D01*
X220709885Y-146345051D01*
X220709888Y-146345048D01*
X220791214Y-146245951D01*
X220804054Y-146230306D01*
X220897418Y-146055634D01*
X220941111Y-145911597D01*
X220954911Y-145866105D01*
X220974324Y-145669000D01*
X220969460Y-145619615D01*
X220969460Y-139910000D01*
X222631928Y-139910000D01*
X222644188Y-140034482D01*
X222680498Y-140154180D01*
X222739463Y-140264494D01*
X222818815Y-140361185D01*
X222915506Y-140440537D01*
X223025820Y-140499502D01*
X223145518Y-140535812D01*
X223270000Y-140548072D01*
X223784250Y-140545000D01*
X223943000Y-140386250D01*
X223943000Y-139237000D01*
X222793750Y-139237000D01*
X222635000Y-139395750D01*
X222631928Y-139910000D01*
X220969460Y-139910000D01*
X220969460Y-138310000D01*
X222631928Y-138310000D01*
X222635000Y-138824250D01*
X222793750Y-138983000D01*
X223943000Y-138983000D01*
X223943000Y-137833750D01*
X223784250Y-137675000D01*
X223270000Y-137671928D01*
X223145518Y-137684188D01*
X223025820Y-137720498D01*
X222915506Y-137779463D01*
X222818815Y-137858815D01*
X222739463Y-137955506D01*
X222680498Y-138065820D01*
X222644188Y-138185518D01*
X222631928Y-138310000D01*
X220969460Y-138310000D01*
X220969460Y-137482475D01*
X222926045Y-135525890D01*
X222964407Y-135494407D01*
X223040171Y-135402088D01*
X223082183Y-135374017D01*
X223264017Y-135192183D01*
X223406884Y-134978367D01*
X223505292Y-134740789D01*
X223555460Y-134488577D01*
X223555460Y-134231423D01*
X223505292Y-133979211D01*
X223406884Y-133741633D01*
X223264017Y-133527817D01*
X223082183Y-133345983D01*
X222869084Y-133203595D01*
X220912155Y-131246666D01*
X220991528Y-131213789D01*
X221123451Y-131125641D01*
X221145000Y-131104092D01*
X221256549Y-131215641D01*
X221388472Y-131303789D01*
X221535056Y-131364506D01*
X221690669Y-131395460D01*
X221849331Y-131395460D01*
X222004944Y-131364506D01*
X222151528Y-131303789D01*
X222283451Y-131215641D01*
X222395641Y-131103451D01*
X222483789Y-130971528D01*
X222544506Y-130824944D01*
X222575460Y-130669331D01*
X222575460Y-130510669D01*
X222544506Y-130355056D01*
X222483789Y-130208472D01*
X222395641Y-130076549D01*
X222375460Y-130056368D01*
X222375460Y-128012702D01*
X224256903Y-128012702D01*
X224328486Y-128256671D01*
X224583996Y-128377571D01*
X224858184Y-128446300D01*
X225140512Y-128460217D01*
X225420130Y-128418787D01*
X225686292Y-128323603D01*
X225811514Y-128256671D01*
X225883097Y-128012702D01*
X225070000Y-127199605D01*
X224256903Y-128012702D01*
X222375460Y-128012702D01*
X222375460Y-127090512D01*
X223629783Y-127090512D01*
X223671213Y-127370130D01*
X223766397Y-127636292D01*
X223833329Y-127761514D01*
X224077298Y-127833097D01*
X224890395Y-127020000D01*
X225249605Y-127020000D01*
X226062702Y-127833097D01*
X226306671Y-127761514D01*
X226427571Y-127506004D01*
X226496300Y-127231816D01*
X226510217Y-126949488D01*
X226468787Y-126669870D01*
X226373603Y-126403708D01*
X226306671Y-126278486D01*
X226062702Y-126206903D01*
X225249605Y-127020000D01*
X224890395Y-127020000D01*
X224077298Y-126206903D01*
X223833329Y-126278486D01*
X223712429Y-126533996D01*
X223643700Y-126808184D01*
X223629783Y-127090512D01*
X222375460Y-127090512D01*
X222375460Y-126027298D01*
X224256903Y-126027298D01*
X225070000Y-126840395D01*
X225883097Y-126027298D01*
X225811514Y-125783329D01*
X225556004Y-125662429D01*
X225281816Y-125593700D01*
X224999488Y-125579783D01*
X224719870Y-125621213D01*
X224453708Y-125716397D01*
X224328486Y-125783329D01*
X224256903Y-126027298D01*
X222375460Y-126027298D01*
X222375460Y-123479739D01*
X222378389Y-123450000D01*
X222372424Y-123389431D01*
X222366699Y-123331309D01*
X222332078Y-123217180D01*
X222275857Y-123111997D01*
X222200196Y-123019804D01*
X222177087Y-123000839D01*
X222029158Y-122852910D01*
X222029153Y-122852903D01*
X221876673Y-122700423D01*
X228016540Y-122700423D01*
X228016540Y-122957577D01*
X228066708Y-123209789D01*
X228165116Y-123447367D01*
X228307983Y-123661183D01*
X228489817Y-123843017D01*
X228703633Y-123985884D01*
X228941211Y-124084292D01*
X229193423Y-124134460D01*
X229450577Y-124134460D01*
X229702789Y-124084292D01*
X229940367Y-123985884D01*
X230154183Y-123843017D01*
X230336017Y-123661183D01*
X230478884Y-123447367D01*
X230577292Y-123209789D01*
X230592000Y-123135847D01*
X230606708Y-123209789D01*
X230705116Y-123447367D01*
X230847983Y-123661183D01*
X231029817Y-123843017D01*
X231243633Y-123985884D01*
X231481211Y-124084292D01*
X231733423Y-124134460D01*
X231990577Y-124134460D01*
X232242789Y-124084292D01*
X232480367Y-123985884D01*
X232694183Y-123843017D01*
X232876017Y-123661183D01*
X233018884Y-123447367D01*
X233117292Y-123209789D01*
X233132000Y-123135847D01*
X233146708Y-123209789D01*
X233245116Y-123447367D01*
X233387983Y-123661183D01*
X233569817Y-123843017D01*
X233783633Y-123985884D01*
X234021211Y-124084292D01*
X234273423Y-124134460D01*
X234530577Y-124134460D01*
X234782789Y-124084292D01*
X235020367Y-123985884D01*
X235234183Y-123843017D01*
X235416017Y-123661183D01*
X235558884Y-123447367D01*
X235657292Y-123209789D01*
X235672000Y-123135847D01*
X235686708Y-123209789D01*
X235785116Y-123447367D01*
X235927983Y-123661183D01*
X236109817Y-123843017D01*
X236323633Y-123985884D01*
X236561211Y-124084292D01*
X236813423Y-124134460D01*
X237070577Y-124134460D01*
X237322789Y-124084292D01*
X237560367Y-123985884D01*
X237774183Y-123843017D01*
X237956017Y-123661183D01*
X238098884Y-123447367D01*
X238197292Y-123209789D01*
X238212000Y-123135847D01*
X238226708Y-123209789D01*
X238325116Y-123447367D01*
X238467983Y-123661183D01*
X238649817Y-123843017D01*
X238863633Y-123985884D01*
X239101211Y-124084292D01*
X239353423Y-124134460D01*
X239610577Y-124134460D01*
X239862789Y-124084292D01*
X240100367Y-123985884D01*
X240314183Y-123843017D01*
X240496017Y-123661183D01*
X240638884Y-123447367D01*
X240737292Y-123209789D01*
X240752000Y-123135847D01*
X240766708Y-123209789D01*
X240865116Y-123447367D01*
X241007983Y-123661183D01*
X241189817Y-123843017D01*
X241403633Y-123985884D01*
X241641211Y-124084292D01*
X241893423Y-124134460D01*
X242150577Y-124134460D01*
X242402789Y-124084292D01*
X242640367Y-123985884D01*
X242854183Y-123843017D01*
X243036017Y-123661183D01*
X243178884Y-123447367D01*
X243277292Y-123209789D01*
X243327460Y-122957577D01*
X243327460Y-122700423D01*
X243277292Y-122448211D01*
X243178884Y-122210633D01*
X243036017Y-121996817D01*
X242854183Y-121814983D01*
X242640367Y-121672116D01*
X242402789Y-121573708D01*
X242150577Y-121523540D01*
X241893423Y-121523540D01*
X241641211Y-121573708D01*
X241403633Y-121672116D01*
X241189817Y-121814983D01*
X241007983Y-121996817D01*
X240865116Y-122210633D01*
X240766708Y-122448211D01*
X240752000Y-122522153D01*
X240737292Y-122448211D01*
X240638884Y-122210633D01*
X240496017Y-121996817D01*
X240314183Y-121814983D01*
X240100367Y-121672116D01*
X239862789Y-121573708D01*
X239610577Y-121523540D01*
X239353423Y-121523540D01*
X239203819Y-121553298D01*
X239244529Y-121419096D01*
X239255460Y-121308110D01*
X239255460Y-121308103D01*
X239259114Y-121271000D01*
X239255460Y-121233898D01*
X239255460Y-120765282D01*
X239332183Y-120714017D01*
X239514017Y-120532183D01*
X239656884Y-120318367D01*
X239755292Y-120080789D01*
X239770000Y-120006847D01*
X239784708Y-120080789D01*
X239883116Y-120318367D01*
X240025983Y-120532183D01*
X240207817Y-120714017D01*
X240421633Y-120856884D01*
X240659211Y-120955292D01*
X240911423Y-121005460D01*
X241168577Y-121005460D01*
X241420789Y-120955292D01*
X241658367Y-120856884D01*
X241872183Y-120714017D01*
X242054017Y-120532183D01*
X242196884Y-120318367D01*
X242295292Y-120080789D01*
X242310000Y-120006847D01*
X242324708Y-120080789D01*
X242423116Y-120318367D01*
X242565983Y-120532183D01*
X242747817Y-120714017D01*
X242961633Y-120856884D01*
X243199211Y-120955292D01*
X243451423Y-121005460D01*
X243708577Y-121005460D01*
X243960789Y-120955292D01*
X244198367Y-120856884D01*
X244412183Y-120714017D01*
X244594017Y-120532183D01*
X244736884Y-120318367D01*
X244835292Y-120080789D01*
X244885460Y-119828577D01*
X244885460Y-119571423D01*
X244835292Y-119319211D01*
X244736884Y-119081633D01*
X244594017Y-118867817D01*
X244412183Y-118685983D01*
X244198367Y-118543116D01*
X243960789Y-118444708D01*
X243708577Y-118394540D01*
X243451423Y-118394540D01*
X243199211Y-118444708D01*
X242961633Y-118543116D01*
X242747817Y-118685983D01*
X242565983Y-118867817D01*
X242423116Y-119081633D01*
X242324708Y-119319211D01*
X242310000Y-119393153D01*
X242295292Y-119319211D01*
X242196884Y-119081633D01*
X242054017Y-118867817D01*
X241872183Y-118685983D01*
X241658367Y-118543116D01*
X241420789Y-118444708D01*
X241168577Y-118394540D01*
X240911423Y-118394540D01*
X240659211Y-118444708D01*
X240421633Y-118543116D01*
X240207817Y-118685983D01*
X240025983Y-118867817D01*
X239883116Y-119081633D01*
X239784708Y-119319211D01*
X239770000Y-119393153D01*
X239755292Y-119319211D01*
X239656884Y-119081633D01*
X239514017Y-118867817D01*
X239332183Y-118685983D01*
X239118367Y-118543116D01*
X238880789Y-118444708D01*
X238628577Y-118394540D01*
X238371423Y-118394540D01*
X238119211Y-118444708D01*
X237881633Y-118543116D01*
X237667817Y-118685983D01*
X237485983Y-118867817D01*
X237343116Y-119081633D01*
X237244708Y-119319211D01*
X237230000Y-119393153D01*
X237215292Y-119319211D01*
X237116884Y-119081633D01*
X236974017Y-118867817D01*
X236792183Y-118685983D01*
X236578367Y-118543116D01*
X236340789Y-118444708D01*
X236088577Y-118394540D01*
X235831423Y-118394540D01*
X235579211Y-118444708D01*
X235341633Y-118543116D01*
X235127817Y-118685983D01*
X234945983Y-118867817D01*
X234803116Y-119081633D01*
X234704708Y-119319211D01*
X234690000Y-119393153D01*
X234675292Y-119319211D01*
X234576884Y-119081633D01*
X234434017Y-118867817D01*
X234252183Y-118685983D01*
X234038367Y-118543116D01*
X233800789Y-118444708D01*
X233548577Y-118394540D01*
X233291423Y-118394540D01*
X233039211Y-118444708D01*
X232801633Y-118543116D01*
X232587817Y-118685983D01*
X232405983Y-118867817D01*
X232263116Y-119081633D01*
X232164708Y-119319211D01*
X232150000Y-119393153D01*
X232135292Y-119319211D01*
X232036884Y-119081633D01*
X231894017Y-118867817D01*
X231712183Y-118685983D01*
X231498367Y-118543116D01*
X231260789Y-118444708D01*
X231008577Y-118394540D01*
X230751423Y-118394540D01*
X230499211Y-118444708D01*
X230261633Y-118543116D01*
X230047817Y-118685983D01*
X229865983Y-118867817D01*
X229777473Y-119000282D01*
X229778072Y-118900000D01*
X229765812Y-118775518D01*
X229729502Y-118655820D01*
X229670537Y-118545506D01*
X229591185Y-118448815D01*
X229494494Y-118369463D01*
X229384180Y-118310498D01*
X229264482Y-118274188D01*
X229140000Y-118261928D01*
X228625750Y-118265000D01*
X228467000Y-118423750D01*
X228467000Y-119573000D01*
X228487000Y-119573000D01*
X228487000Y-119827000D01*
X228467000Y-119827000D01*
X228467000Y-120976250D01*
X228625750Y-121135000D01*
X229140000Y-121138072D01*
X229264482Y-121125812D01*
X229384180Y-121089502D01*
X229494494Y-121030537D01*
X229591185Y-120951185D01*
X229670537Y-120854494D01*
X229729502Y-120744180D01*
X229765812Y-120624482D01*
X229778072Y-120500000D01*
X229777473Y-120399718D01*
X229865983Y-120532183D01*
X230047817Y-120714017D01*
X230124541Y-120765282D01*
X230124541Y-120958078D01*
X229541077Y-121541542D01*
X229450577Y-121523540D01*
X229193423Y-121523540D01*
X228941211Y-121573708D01*
X228703633Y-121672116D01*
X228489817Y-121814983D01*
X228307983Y-121996817D01*
X228165116Y-122210633D01*
X228066708Y-122448211D01*
X228016540Y-122700423D01*
X221876673Y-122700423D01*
X220065460Y-120889211D01*
X220065460Y-120860669D01*
X220034506Y-120705056D01*
X219973789Y-120558472D01*
X219934720Y-120500000D01*
X226901928Y-120500000D01*
X226914188Y-120624482D01*
X226950498Y-120744180D01*
X227009463Y-120854494D01*
X227088815Y-120951185D01*
X227185506Y-121030537D01*
X227295820Y-121089502D01*
X227415518Y-121125812D01*
X227540000Y-121138072D01*
X228054250Y-121135000D01*
X228213000Y-120976250D01*
X228213000Y-119827000D01*
X227063750Y-119827000D01*
X226905000Y-119985750D01*
X226901928Y-120500000D01*
X219934720Y-120500000D01*
X219885641Y-120426549D01*
X219876924Y-120417832D01*
X220090789Y-120375292D01*
X220328367Y-120276884D01*
X220542183Y-120134017D01*
X220724017Y-119952183D01*
X220866884Y-119738367D01*
X220942095Y-119556792D01*
X220942095Y-119920000D01*
X220951854Y-120019087D01*
X220980757Y-120114367D01*
X221027692Y-120202177D01*
X221090857Y-120279143D01*
X221167823Y-120342308D01*
X221255633Y-120389243D01*
X221350913Y-120418146D01*
X221450000Y-120427905D01*
X223050000Y-120427905D01*
X223149087Y-120418146D01*
X223244367Y-120389243D01*
X223332177Y-120342308D01*
X223409143Y-120279143D01*
X223472308Y-120202177D01*
X223519243Y-120114367D01*
X223548146Y-120019087D01*
X223557905Y-119920000D01*
X223557905Y-118900000D01*
X226901928Y-118900000D01*
X226905000Y-119414250D01*
X227063750Y-119573000D01*
X228213000Y-119573000D01*
X228213000Y-118423750D01*
X228054250Y-118265000D01*
X227540000Y-118261928D01*
X227415518Y-118274188D01*
X227295820Y-118310498D01*
X227185506Y-118369463D01*
X227088815Y-118448815D01*
X227009463Y-118545506D01*
X226950498Y-118655820D01*
X226914188Y-118775518D01*
X226901928Y-118900000D01*
X223557905Y-118900000D01*
X223557905Y-118320000D01*
X223548146Y-118220913D01*
X223519243Y-118125633D01*
X223472308Y-118037823D01*
X223409143Y-117960857D01*
X223332177Y-117897692D01*
X223244367Y-117850757D01*
X223149087Y-117821854D01*
X223050000Y-117812095D01*
X221450000Y-117812095D01*
X221350913Y-117821854D01*
X221255633Y-117850757D01*
X221167823Y-117897692D01*
X221090857Y-117960857D01*
X221027692Y-118037823D01*
X220980757Y-118125633D01*
X220951854Y-118220913D01*
X220942095Y-118320000D01*
X220942095Y-118683208D01*
X220866884Y-118501633D01*
X220724017Y-118287817D01*
X220542183Y-118105983D01*
X220328367Y-117963116D01*
X220090789Y-117864708D01*
X219838577Y-117814540D01*
X219581423Y-117814540D01*
X219329211Y-117864708D01*
X219091633Y-117963116D01*
X218877817Y-118105983D01*
X218695983Y-118287817D01*
X218553116Y-118501633D01*
X218454708Y-118739211D01*
X218440000Y-118813153D01*
X218425292Y-118739211D01*
X218326884Y-118501633D01*
X218184017Y-118287817D01*
X218002183Y-118105983D01*
X217788367Y-117963116D01*
X217550789Y-117864708D01*
X217298577Y-117814540D01*
X217041423Y-117814540D01*
X216789211Y-117864708D01*
X216551633Y-117963116D01*
X216337817Y-118105983D01*
X216155983Y-118287817D01*
X216013116Y-118501633D01*
X215914708Y-118739211D01*
X215900000Y-118813153D01*
X215885292Y-118739211D01*
X215786884Y-118501633D01*
X215644017Y-118287817D01*
X215462183Y-118105983D01*
X215248367Y-117963116D01*
X215010789Y-117864708D01*
X214758577Y-117814540D01*
X214501423Y-117814540D01*
X214249211Y-117864708D01*
X214011633Y-117963116D01*
X213797817Y-118105983D01*
X213615983Y-118287817D01*
X213473116Y-118501633D01*
X213374708Y-118739211D01*
X213360000Y-118813153D01*
X213345292Y-118739211D01*
X213246884Y-118501633D01*
X213104017Y-118287817D01*
X212922183Y-118105983D01*
X212708367Y-117963116D01*
X212470789Y-117864708D01*
X212218577Y-117814540D01*
X211961423Y-117814540D01*
X211709211Y-117864708D01*
X211471633Y-117963116D01*
X211257817Y-118105983D01*
X211075983Y-118287817D01*
X210933116Y-118501633D01*
X210834708Y-118739211D01*
X210820000Y-118813153D01*
X210805292Y-118739211D01*
X210706884Y-118501633D01*
X210564017Y-118287817D01*
X210382183Y-118105983D01*
X210168367Y-117963116D01*
X209930789Y-117864708D01*
X209678577Y-117814540D01*
X209421423Y-117814540D01*
X209169211Y-117864708D01*
X208931633Y-117963116D01*
X208717817Y-118105983D01*
X208535983Y-118287817D01*
X208393116Y-118501633D01*
X208294708Y-118739211D01*
X208280000Y-118813153D01*
X208265292Y-118739211D01*
X208166884Y-118501633D01*
X208024017Y-118287817D01*
X207842183Y-118105983D01*
X207628367Y-117963116D01*
X207390789Y-117864708D01*
X207138577Y-117814540D01*
X206881423Y-117814540D01*
X206629211Y-117864708D01*
X206391633Y-117963116D01*
X206177817Y-118105983D01*
X205995983Y-118287817D01*
X205853116Y-118501633D01*
X205754708Y-118739211D01*
X205740000Y-118813153D01*
X205725292Y-118739211D01*
X205626884Y-118501633D01*
X205484017Y-118287817D01*
X205302183Y-118105983D01*
X205088367Y-117963116D01*
X204850789Y-117864708D01*
X204598577Y-117814540D01*
X204341423Y-117814540D01*
X204089211Y-117864708D01*
X203851633Y-117963116D01*
X203637817Y-118105983D01*
X203455983Y-118287817D01*
X203313116Y-118501633D01*
X203214708Y-118739211D01*
X203200000Y-118813153D01*
X203185292Y-118739211D01*
X203086884Y-118501633D01*
X202944017Y-118287817D01*
X202762183Y-118105983D01*
X202548367Y-117963116D01*
X202310789Y-117864708D01*
X202058577Y-117814540D01*
X201801423Y-117814540D01*
X201549211Y-117864708D01*
X201311633Y-117963116D01*
X201097817Y-118105983D01*
X200915983Y-118287817D01*
X200773116Y-118501633D01*
X200674708Y-118739211D01*
X200660000Y-118813153D01*
X200645292Y-118739211D01*
X200546884Y-118501633D01*
X200404017Y-118287817D01*
X200222183Y-118105983D01*
X200008367Y-117963116D01*
X199770789Y-117864708D01*
X199518577Y-117814540D01*
X199261423Y-117814540D01*
X199009211Y-117864708D01*
X198771633Y-117963116D01*
X198557817Y-118105983D01*
X198375983Y-118287817D01*
X198233116Y-118501633D01*
X198134708Y-118739211D01*
X198120000Y-118813153D01*
X198105292Y-118739211D01*
X198006884Y-118501633D01*
X197864017Y-118287817D01*
X197682183Y-118105983D01*
X197468367Y-117963116D01*
X197230789Y-117864708D01*
X196978577Y-117814540D01*
X196721423Y-117814540D01*
X196469211Y-117864708D01*
X196231633Y-117963116D01*
X196017817Y-118105983D01*
X195835983Y-118287817D01*
X195693116Y-118501633D01*
X195594708Y-118739211D01*
X195580000Y-118813153D01*
X195565292Y-118739211D01*
X195466884Y-118501633D01*
X195324017Y-118287817D01*
X195142183Y-118105983D01*
X194928367Y-117963116D01*
X194690789Y-117864708D01*
X194438577Y-117814540D01*
X194181423Y-117814540D01*
X193929211Y-117864708D01*
X193691633Y-117963116D01*
X193477817Y-118105983D01*
X193295983Y-118287817D01*
X193153116Y-118501633D01*
X193054708Y-118739211D01*
X193040000Y-118813153D01*
X193025292Y-118739211D01*
X192926884Y-118501633D01*
X192784017Y-118287817D01*
X192602183Y-118105983D01*
X192388367Y-117963116D01*
X192150789Y-117864708D01*
X191898577Y-117814540D01*
X191641423Y-117814540D01*
X191389211Y-117864708D01*
X191151633Y-117963116D01*
X190937817Y-118105983D01*
X190755983Y-118287817D01*
X190613116Y-118501633D01*
X190514708Y-118739211D01*
X190500000Y-118813153D01*
X190485292Y-118739211D01*
X190386884Y-118501633D01*
X190244017Y-118287817D01*
X190062183Y-118105983D01*
X189848367Y-117963116D01*
X189610789Y-117864708D01*
X189358577Y-117814540D01*
X189101423Y-117814540D01*
X188849211Y-117864708D01*
X188611633Y-117963116D01*
X188397817Y-118105983D01*
X188215983Y-118287817D01*
X188073116Y-118501633D01*
X187974708Y-118739211D01*
X187960000Y-118813153D01*
X187945292Y-118739211D01*
X187846884Y-118501633D01*
X187704017Y-118287817D01*
X187522183Y-118105983D01*
X187308367Y-117963116D01*
X187070789Y-117864708D01*
X186818577Y-117814540D01*
X186561423Y-117814540D01*
X186309211Y-117864708D01*
X186071633Y-117963116D01*
X185857817Y-118105983D01*
X185675983Y-118287817D01*
X185533116Y-118501633D01*
X185486105Y-118615127D01*
X185447070Y-118506119D01*
X185302385Y-118264869D01*
X185113414Y-118056481D01*
X184887420Y-117888963D01*
X184633087Y-117768754D01*
X184499039Y-117728096D01*
X184277000Y-117850085D01*
X184277000Y-118993000D01*
X184297000Y-118993000D01*
X184297000Y-119247000D01*
X184277000Y-119247000D01*
X184277000Y-120389915D01*
X184499039Y-120511904D01*
X184633087Y-120471246D01*
X184887420Y-120351037D01*
X185113414Y-120183519D01*
X185302385Y-119975131D01*
X185447070Y-119733881D01*
X185486105Y-119624873D01*
X185533116Y-119738367D01*
X185675983Y-119952183D01*
X185857817Y-120134017D01*
X186071633Y-120276884D01*
X186309211Y-120375292D01*
X186561423Y-120425460D01*
X186818577Y-120425460D01*
X187070789Y-120375292D01*
X187079453Y-120371703D01*
X187154940Y-120447190D01*
X187154941Y-133139565D01*
X187070789Y-133104708D01*
X186818577Y-133054540D01*
X186561423Y-133054540D01*
X186309211Y-133104708D01*
X186071633Y-133203116D01*
X185857817Y-133345983D01*
X185675983Y-133527817D01*
X185533116Y-133741633D01*
X185434708Y-133979211D01*
X185420000Y-134053153D01*
X185405292Y-133979211D01*
X185306884Y-133741633D01*
X185164017Y-133527817D01*
X184982183Y-133345983D01*
X184768367Y-133203116D01*
X184530789Y-133104708D01*
X184278577Y-133054540D01*
X184021423Y-133054540D01*
X183769211Y-133104708D01*
X183531633Y-133203116D01*
X183317817Y-133345983D01*
X183135983Y-133527817D01*
X182993116Y-133741633D01*
X182894708Y-133979211D01*
X182844540Y-134231423D01*
X182844540Y-134488577D01*
X182894708Y-134740789D01*
X182993116Y-134978367D01*
X183135983Y-135192183D01*
X183317817Y-135374017D01*
X183531633Y-135516884D01*
X183769211Y-135615292D01*
X184021423Y-135665460D01*
X184278577Y-135665460D01*
X184530789Y-135615292D01*
X184539453Y-135611703D01*
X184614940Y-135687190D01*
X184614940Y-136946250D01*
X184499039Y-136911096D01*
X184277000Y-137033085D01*
X184277000Y-138176000D01*
X184297000Y-138176000D01*
X184297000Y-138430000D01*
X184277000Y-138430000D01*
X184277000Y-139572915D01*
X184499039Y-139694904D01*
X184614940Y-139659750D01*
X184614941Y-152221809D01*
X184543696Y-152293054D01*
X184530789Y-152287708D01*
X184278577Y-152237540D01*
X184021423Y-152237540D01*
X183769211Y-152287708D01*
X183531633Y-152386116D01*
X183317817Y-152528983D01*
X183135983Y-152710817D01*
X182993116Y-152924633D01*
X182894708Y-153162211D01*
X182844540Y-153414423D01*
X182844540Y-153671577D01*
X182894708Y-153923789D01*
X182993116Y-154161367D01*
X183135983Y-154375183D01*
X183317817Y-154557017D01*
X183531633Y-154699884D01*
X183769211Y-154798292D01*
X184021423Y-154848460D01*
X184278577Y-154848460D01*
X184530789Y-154798292D01*
X184768367Y-154699884D01*
X184982183Y-154557017D01*
X185164017Y-154375183D01*
X185306884Y-154161367D01*
X185405292Y-153923789D01*
X185420000Y-153849847D01*
X185434708Y-153923789D01*
X185533116Y-154161367D01*
X185675983Y-154375183D01*
X185857817Y-154557017D01*
X186071633Y-154699884D01*
X186309211Y-154798292D01*
X186561423Y-154848460D01*
X186818577Y-154848460D01*
X187070789Y-154798292D01*
X187308367Y-154699884D01*
X187522183Y-154557017D01*
X187704017Y-154375183D01*
X187846884Y-154161367D01*
X187945292Y-153923789D01*
X187960000Y-153849847D01*
X187974708Y-153923789D01*
X188073116Y-154161367D01*
X188215983Y-154375183D01*
X188397817Y-154557017D01*
X188611633Y-154699884D01*
X188849211Y-154798292D01*
X189101423Y-154848460D01*
X189358577Y-154848460D01*
X189610789Y-154798292D01*
X189848367Y-154699884D01*
X190062183Y-154557017D01*
X190244017Y-154375183D01*
X190386884Y-154161367D01*
X190485292Y-153923789D01*
X190500000Y-153849847D01*
X190514708Y-153923789D01*
X190613116Y-154161367D01*
X190755983Y-154375183D01*
X190937817Y-154557017D01*
X191151633Y-154699884D01*
X191389211Y-154798292D01*
X191641423Y-154848460D01*
X191898577Y-154848460D01*
X192150789Y-154798292D01*
X192388367Y-154699884D01*
X192576056Y-154574474D01*
X192609804Y-154615596D01*
X192632908Y-154634557D01*
X193029440Y-155031090D01*
X193029440Y-155059631D01*
X193049413Y-155160040D01*
X189890632Y-155160040D01*
X189870451Y-155139859D01*
X189738528Y-155051711D01*
X189591944Y-154990994D01*
X189436331Y-154960040D01*
X189277669Y-154960040D01*
X189122056Y-154990994D01*
X188975472Y-155051711D01*
X188843549Y-155139859D01*
X188731359Y-155252049D01*
X188643211Y-155383972D01*
X188582494Y-155530556D01*
X188551540Y-155686169D01*
X188551540Y-155844831D01*
X188582494Y-156000444D01*
X188600989Y-156045095D01*
X187160000Y-156045095D01*
X187060913Y-156054854D01*
X186965633Y-156083757D01*
X186877823Y-156130692D01*
X186800857Y-156193857D01*
X186737692Y-156270823D01*
X186690757Y-156358633D01*
X186661854Y-156453913D01*
X186652095Y-156553000D01*
X186652095Y-158153000D01*
X186661854Y-158252087D01*
X186690757Y-158347367D01*
X186737692Y-158435177D01*
X186800857Y-158512143D01*
X186877823Y-158575308D01*
X186965633Y-158622243D01*
X187024541Y-158640113D01*
X187024541Y-158689000D01*
X186350000Y-158689000D01*
X186325224Y-158691440D01*
X186301399Y-158698667D01*
X186279443Y-158710403D01*
X186260197Y-158726197D01*
X186244403Y-158745443D01*
X186233949Y-158765000D01*
X184726051Y-158765000D01*
X184715597Y-158745443D01*
X184699803Y-158726197D01*
X184680557Y-158710403D01*
X184658601Y-158698667D01*
X184634776Y-158691440D01*
X184610000Y-158689000D01*
X183810000Y-158689000D01*
X183785224Y-158691440D01*
X183761399Y-158698667D01*
X183739443Y-158710403D01*
X183720197Y-158726197D01*
X183704403Y-158745443D01*
X183693949Y-158765000D01*
X183220953Y-158765000D01*
X183310130Y-158751787D01*
X183576292Y-158656603D01*
X183701514Y-158589671D01*
X183773097Y-158345702D01*
X182960000Y-157532605D01*
X182146903Y-158345702D01*
X182218486Y-158589671D01*
X182473996Y-158710571D01*
X182691135Y-158765000D01*
X182126051Y-158765000D01*
X182115597Y-158745443D01*
X182099803Y-158726197D01*
X182080557Y-158710403D01*
X182058601Y-158698667D01*
X182034776Y-158691440D01*
X182010000Y-158689000D01*
X181086760Y-158689000D01*
X181086760Y-157423512D01*
X181519783Y-157423512D01*
X181561213Y-157703130D01*
X181656397Y-157969292D01*
X181723329Y-158094514D01*
X181967298Y-158166097D01*
X182780395Y-157353000D01*
X183139605Y-157353000D01*
X183952702Y-158166097D01*
X184196671Y-158094514D01*
X184317571Y-157839004D01*
X184386300Y-157564816D01*
X184400217Y-157282488D01*
X184358787Y-157002870D01*
X184263603Y-156736708D01*
X184196671Y-156611486D01*
X183952702Y-156539903D01*
X183139605Y-157353000D01*
X182780395Y-157353000D01*
X181967298Y-156539903D01*
X181723329Y-156611486D01*
X181602429Y-156866996D01*
X181533700Y-157141184D01*
X181519783Y-157423512D01*
X181086760Y-157423512D01*
X181086760Y-156360298D01*
X182146903Y-156360298D01*
X182960000Y-157173395D01*
X183773097Y-156360298D01*
X183701514Y-156116329D01*
X183446004Y-155995429D01*
X183171816Y-155926700D01*
X182889488Y-155912783D01*
X182609870Y-155954213D01*
X182343708Y-156049397D01*
X182218486Y-156116329D01*
X182146903Y-156360298D01*
X181086760Y-156360298D01*
X181086760Y-138652040D01*
X182758091Y-138652040D01*
X182852930Y-138916881D01*
X182997615Y-139158131D01*
X183186586Y-139366519D01*
X183412580Y-139534037D01*
X183666913Y-139654246D01*
X183800961Y-139694904D01*
X184023000Y-139572915D01*
X184023000Y-138430000D01*
X182879376Y-138430000D01*
X182758091Y-138652040D01*
X181086760Y-138652040D01*
X181086760Y-137953960D01*
X182758091Y-137953960D01*
X182879376Y-138176000D01*
X184023000Y-138176000D01*
X184023000Y-137033085D01*
X183800961Y-136911096D01*
X183666913Y-136951754D01*
X183412580Y-137071963D01*
X183186586Y-137239481D01*
X182997615Y-137447869D01*
X182852930Y-137689119D01*
X182758091Y-137953960D01*
X181086760Y-137953960D01*
X181086760Y-119469040D01*
X182758091Y-119469040D01*
X182852930Y-119733881D01*
X182997615Y-119975131D01*
X183186586Y-120183519D01*
X183412580Y-120351037D01*
X183666913Y-120471246D01*
X183800961Y-120511904D01*
X184023000Y-120389915D01*
X184023000Y-119247000D01*
X182879376Y-119247000D01*
X182758091Y-119469040D01*
X181086760Y-119469040D01*
X181086760Y-118770960D01*
X182758091Y-118770960D01*
X182879376Y-118993000D01*
X184023000Y-118993000D01*
X184023000Y-117850085D01*
X183800961Y-117728096D01*
X183666913Y-117768754D01*
X183412580Y-117888963D01*
X183186586Y-118056481D01*
X182997615Y-118264869D01*
X182852930Y-118506119D01*
X182758091Y-118770960D01*
X181086760Y-118770960D01*
X181086760Y-118034442D01*
X181144502Y-117445532D01*
X181305646Y-116911797D01*
X181567390Y-116419528D01*
X181919766Y-115987470D01*
X182349350Y-115632088D01*
X182839783Y-115366911D01*
X183372376Y-115202046D01*
X183959281Y-115140360D01*
X258080758Y-115140360D01*
X258669668Y-115198102D01*
G36*
X187974708Y-138683789D02*
G01*
X188073116Y-138921367D01*
X188215983Y-139135183D01*
X188397817Y-139317017D01*
X188611633Y-139459884D01*
X188849211Y-139558292D01*
X189101423Y-139608460D01*
X189358577Y-139608460D01*
X189610789Y-139558292D01*
X189698640Y-139521903D01*
X189698640Y-140757372D01*
X189579039Y-140721096D01*
X189357000Y-140843085D01*
X189357000Y-141986000D01*
X189377000Y-141986000D01*
X189377000Y-142240000D01*
X189357000Y-142240000D01*
X189357000Y-143382915D01*
X189579039Y-143504904D01*
X189698640Y-143468628D01*
X189698641Y-148377372D01*
X189579039Y-148341096D01*
X189357000Y-148463085D01*
X189357000Y-149606000D01*
X189377000Y-149606000D01*
X189377000Y-149860000D01*
X189357000Y-149860000D01*
X189357000Y-151002915D01*
X189579039Y-151124904D01*
X189698641Y-151088628D01*
X189698641Y-152218109D01*
X189623696Y-152293054D01*
X189610789Y-152287708D01*
X189358577Y-152237540D01*
X189101423Y-152237540D01*
X188849211Y-152287708D01*
X188611633Y-152386116D01*
X188397817Y-152528983D01*
X188215983Y-152710817D01*
X188073116Y-152924633D01*
X187974708Y-153162211D01*
X187960000Y-153236153D01*
X187945292Y-153162211D01*
X187846884Y-152924633D01*
X187704017Y-152710817D01*
X187522183Y-152528983D01*
X187308367Y-152386116D01*
X187070789Y-152287708D01*
X186818577Y-152237540D01*
X186561423Y-152237540D01*
X186309211Y-152287708D01*
X186296304Y-152293054D01*
X186225060Y-152221811D01*
X186225060Y-150082040D01*
X187838091Y-150082040D01*
X187932930Y-150346881D01*
X188077615Y-150588131D01*
X188266586Y-150796519D01*
X188492580Y-150964037D01*
X188746913Y-151084246D01*
X188880961Y-151124904D01*
X189103000Y-151002915D01*
X189103000Y-149860000D01*
X187959376Y-149860000D01*
X187838091Y-150082040D01*
X186225060Y-150082040D01*
X186225060Y-149383960D01*
X187838091Y-149383960D01*
X187959376Y-149606000D01*
X189103000Y-149606000D01*
X189103000Y-148463085D01*
X188880961Y-148341096D01*
X188746913Y-148381754D01*
X188492580Y-148501963D01*
X188266586Y-148669481D01*
X188077615Y-148877869D01*
X187932930Y-149119119D01*
X187838091Y-149383960D01*
X186225060Y-149383960D01*
X186225060Y-142462040D01*
X187838091Y-142462040D01*
X187932930Y-142726881D01*
X188077615Y-142968131D01*
X188266586Y-143176519D01*
X188492580Y-143344037D01*
X188746913Y-143464246D01*
X188880961Y-143504904D01*
X189103000Y-143382915D01*
X189103000Y-142240000D01*
X187959376Y-142240000D01*
X187838091Y-142462040D01*
X186225060Y-142462040D01*
X186225060Y-141763960D01*
X187838091Y-141763960D01*
X187959376Y-141986000D01*
X189103000Y-141986000D01*
X189103000Y-140843085D01*
X188880961Y-140721096D01*
X188746913Y-140761754D01*
X188492580Y-140881963D01*
X188266586Y-141049481D01*
X188077615Y-141257869D01*
X187932930Y-141499119D01*
X187838091Y-141763960D01*
X186225060Y-141763960D01*
X186225060Y-139523436D01*
X186309211Y-139558292D01*
X186561423Y-139608460D01*
X186818577Y-139608460D01*
X187070789Y-139558292D01*
X187308367Y-139459884D01*
X187522183Y-139317017D01*
X187704017Y-139135183D01*
X187846884Y-138921367D01*
X187945292Y-138683789D01*
X187960000Y-138609847D01*
X187974708Y-138683789D01*
G37*
X187974708Y-138683789D02*
X188073116Y-138921367D01*
X188215983Y-139135183D01*
X188397817Y-139317017D01*
X188611633Y-139459884D01*
X188849211Y-139558292D01*
X189101423Y-139608460D01*
X189358577Y-139608460D01*
X189610789Y-139558292D01*
X189698640Y-139521903D01*
X189698640Y-140757372D01*
X189579039Y-140721096D01*
X189357000Y-140843085D01*
X189357000Y-141986000D01*
X189377000Y-141986000D01*
X189377000Y-142240000D01*
X189357000Y-142240000D01*
X189357000Y-143382915D01*
X189579039Y-143504904D01*
X189698640Y-143468628D01*
X189698641Y-148377372D01*
X189579039Y-148341096D01*
X189357000Y-148463085D01*
X189357000Y-149606000D01*
X189377000Y-149606000D01*
X189377000Y-149860000D01*
X189357000Y-149860000D01*
X189357000Y-151002915D01*
X189579039Y-151124904D01*
X189698641Y-151088628D01*
X189698641Y-152218109D01*
X189623696Y-152293054D01*
X189610789Y-152287708D01*
X189358577Y-152237540D01*
X189101423Y-152237540D01*
X188849211Y-152287708D01*
X188611633Y-152386116D01*
X188397817Y-152528983D01*
X188215983Y-152710817D01*
X188073116Y-152924633D01*
X187974708Y-153162211D01*
X187960000Y-153236153D01*
X187945292Y-153162211D01*
X187846884Y-152924633D01*
X187704017Y-152710817D01*
X187522183Y-152528983D01*
X187308367Y-152386116D01*
X187070789Y-152287708D01*
X186818577Y-152237540D01*
X186561423Y-152237540D01*
X186309211Y-152287708D01*
X186296304Y-152293054D01*
X186225060Y-152221811D01*
X186225060Y-150082040D01*
X187838091Y-150082040D01*
X187932930Y-150346881D01*
X188077615Y-150588131D01*
X188266586Y-150796519D01*
X188492580Y-150964037D01*
X188746913Y-151084246D01*
X188880961Y-151124904D01*
X189103000Y-151002915D01*
X189103000Y-149860000D01*
X187959376Y-149860000D01*
X187838091Y-150082040D01*
X186225060Y-150082040D01*
X186225060Y-149383960D01*
X187838091Y-149383960D01*
X187959376Y-149606000D01*
X189103000Y-149606000D01*
X189103000Y-148463085D01*
X188880961Y-148341096D01*
X188746913Y-148381754D01*
X188492580Y-148501963D01*
X188266586Y-148669481D01*
X188077615Y-148877869D01*
X187932930Y-149119119D01*
X187838091Y-149383960D01*
X186225060Y-149383960D01*
X186225060Y-142462040D01*
X187838091Y-142462040D01*
X187932930Y-142726881D01*
X188077615Y-142968131D01*
X188266586Y-143176519D01*
X188492580Y-143344037D01*
X188746913Y-143464246D01*
X188880961Y-143504904D01*
X189103000Y-143382915D01*
X189103000Y-142240000D01*
X187959376Y-142240000D01*
X187838091Y-142462040D01*
X186225060Y-142462040D01*
X186225060Y-141763960D01*
X187838091Y-141763960D01*
X187959376Y-141986000D01*
X189103000Y-141986000D01*
X189103000Y-140843085D01*
X188880961Y-140721096D01*
X188746913Y-140761754D01*
X188492580Y-140881963D01*
X188266586Y-141049481D01*
X188077615Y-141257869D01*
X187932930Y-141499119D01*
X187838091Y-141763960D01*
X186225060Y-141763960D01*
X186225060Y-139523436D01*
X186309211Y-139558292D01*
X186561423Y-139608460D01*
X186818577Y-139608460D01*
X187070789Y-139558292D01*
X187308367Y-139459884D01*
X187522183Y-139317017D01*
X187704017Y-139135183D01*
X187846884Y-138921367D01*
X187945292Y-138683789D01*
X187960000Y-138609847D01*
X187974708Y-138683789D01*
G36*
X193054708Y-142493789D02*
G01*
X193153116Y-142731367D01*
X193295983Y-142945183D01*
X193477817Y-143127017D01*
X193691633Y-143269884D01*
X193929211Y-143368292D01*
X194181423Y-143418460D01*
X194438577Y-143418460D01*
X194690789Y-143368292D01*
X194789541Y-143327388D01*
X194789540Y-148380678D01*
X194659039Y-148341096D01*
X194437000Y-148463085D01*
X194437000Y-149606000D01*
X194457000Y-149606000D01*
X194457000Y-149860000D01*
X194437000Y-149860000D01*
X194437000Y-149880000D01*
X194183000Y-149880000D01*
X194183000Y-149860000D01*
X191897000Y-149860000D01*
X191897000Y-151002915D01*
X192119039Y-151124904D01*
X192253087Y-151084246D01*
X192507420Y-150964037D01*
X192733414Y-150796519D01*
X192922385Y-150588131D01*
X193040000Y-150392018D01*
X193157615Y-150588131D01*
X193346586Y-150796519D01*
X193572580Y-150964037D01*
X193826913Y-151084246D01*
X193873403Y-151098347D01*
X192632903Y-152338848D01*
X192609805Y-152357804D01*
X192590849Y-152380902D01*
X192590847Y-152380904D01*
X192534143Y-152449998D01*
X192520940Y-152474699D01*
X192388367Y-152386116D01*
X192150789Y-152287708D01*
X191898577Y-152237540D01*
X191641423Y-152237540D01*
X191389211Y-152287708D01*
X191376304Y-152293054D01*
X191279960Y-152196711D01*
X191279960Y-151080960D01*
X191286913Y-151084246D01*
X191420961Y-151124904D01*
X191643000Y-151002915D01*
X191643000Y-149860000D01*
X191623000Y-149860000D01*
X191623000Y-149606000D01*
X191643000Y-149606000D01*
X191643000Y-148463085D01*
X191897000Y-148463085D01*
X191897000Y-149606000D01*
X194183000Y-149606000D01*
X194183000Y-148463085D01*
X193960961Y-148341096D01*
X193826913Y-148381754D01*
X193572580Y-148501963D01*
X193346586Y-148669481D01*
X193157615Y-148877869D01*
X193040000Y-149073982D01*
X192922385Y-148877869D01*
X192733414Y-148669481D01*
X192507420Y-148501963D01*
X192253087Y-148381754D01*
X192119039Y-148341096D01*
X191897000Y-148463085D01*
X191643000Y-148463085D01*
X191420961Y-148341096D01*
X191286913Y-148381754D01*
X191279960Y-148385040D01*
X191279960Y-143323039D01*
X191389211Y-143368292D01*
X191641423Y-143418460D01*
X191898577Y-143418460D01*
X192150789Y-143368292D01*
X192388367Y-143269884D01*
X192602183Y-143127017D01*
X192784017Y-142945183D01*
X192926884Y-142731367D01*
X193025292Y-142493789D01*
X193040000Y-142419847D01*
X193054708Y-142493789D01*
G37*
X193054708Y-142493789D02*
X193153116Y-142731367D01*
X193295983Y-142945183D01*
X193477817Y-143127017D01*
X193691633Y-143269884D01*
X193929211Y-143368292D01*
X194181423Y-143418460D01*
X194438577Y-143418460D01*
X194690789Y-143368292D01*
X194789541Y-143327388D01*
X194789540Y-148380678D01*
X194659039Y-148341096D01*
X194437000Y-148463085D01*
X194437000Y-149606000D01*
X194457000Y-149606000D01*
X194457000Y-149860000D01*
X194437000Y-149860000D01*
X194437000Y-149880000D01*
X194183000Y-149880000D01*
X194183000Y-149860000D01*
X191897000Y-149860000D01*
X191897000Y-151002915D01*
X192119039Y-151124904D01*
X192253087Y-151084246D01*
X192507420Y-150964037D01*
X192733414Y-150796519D01*
X192922385Y-150588131D01*
X193040000Y-150392018D01*
X193157615Y-150588131D01*
X193346586Y-150796519D01*
X193572580Y-150964037D01*
X193826913Y-151084246D01*
X193873403Y-151098347D01*
X192632903Y-152338848D01*
X192609805Y-152357804D01*
X192590849Y-152380902D01*
X192590847Y-152380904D01*
X192534143Y-152449998D01*
X192520940Y-152474699D01*
X192388367Y-152386116D01*
X192150789Y-152287708D01*
X191898577Y-152237540D01*
X191641423Y-152237540D01*
X191389211Y-152287708D01*
X191376304Y-152293054D01*
X191279960Y-152196711D01*
X191279960Y-151080960D01*
X191286913Y-151084246D01*
X191420961Y-151124904D01*
X191643000Y-151002915D01*
X191643000Y-149860000D01*
X191623000Y-149860000D01*
X191623000Y-149606000D01*
X191643000Y-149606000D01*
X191643000Y-148463085D01*
X191897000Y-148463085D01*
X191897000Y-149606000D01*
X194183000Y-149606000D01*
X194183000Y-148463085D01*
X193960961Y-148341096D01*
X193826913Y-148381754D01*
X193572580Y-148501963D01*
X193346586Y-148669481D01*
X193157615Y-148877869D01*
X193040000Y-149073982D01*
X192922385Y-148877869D01*
X192733414Y-148669481D01*
X192507420Y-148501963D01*
X192253087Y-148381754D01*
X192119039Y-148341096D01*
X191897000Y-148463085D01*
X191643000Y-148463085D01*
X191420961Y-148341096D01*
X191286913Y-148381754D01*
X191279960Y-148385040D01*
X191279960Y-143323039D01*
X191389211Y-143368292D01*
X191641423Y-143418460D01*
X191898577Y-143418460D01*
X192150789Y-143368292D01*
X192388367Y-143269884D01*
X192602183Y-143127017D01*
X192784017Y-142945183D01*
X192926884Y-142731367D01*
X193025292Y-142493789D01*
X193040000Y-142419847D01*
X193054708Y-142493789D01*
G36*
X190514708Y-119500789D02*
G01*
X190613116Y-119738367D01*
X190755983Y-119952183D01*
X190937817Y-120134017D01*
X191151633Y-120276884D01*
X191389211Y-120375292D01*
X191641423Y-120425460D01*
X191898577Y-120425460D01*
X192150789Y-120375292D01*
X192159453Y-120371703D01*
X192234940Y-120447190D01*
X192234940Y-121715565D01*
X192150789Y-121680708D01*
X191898577Y-121630540D01*
X191641423Y-121630540D01*
X191389211Y-121680708D01*
X191151633Y-121779116D01*
X190937817Y-121921983D01*
X190755983Y-122103817D01*
X190613116Y-122317633D01*
X190566105Y-122431127D01*
X190527070Y-122322119D01*
X190382385Y-122080869D01*
X190193414Y-121872481D01*
X189967420Y-121704963D01*
X189713087Y-121584754D01*
X189579039Y-121544096D01*
X189357000Y-121666085D01*
X189357000Y-122809000D01*
X189377000Y-122809000D01*
X189377000Y-123063000D01*
X189357000Y-123063000D01*
X189357000Y-124205915D01*
X189579039Y-124327904D01*
X189713087Y-124287246D01*
X189967420Y-124167037D01*
X190193414Y-123999519D01*
X190382385Y-123791131D01*
X190527070Y-123549881D01*
X190566105Y-123440873D01*
X190613116Y-123554367D01*
X190755983Y-123768183D01*
X190937817Y-123950017D01*
X191151633Y-124092884D01*
X191389211Y-124191292D01*
X191641423Y-124241460D01*
X191898577Y-124241460D01*
X192150789Y-124191292D01*
X192234940Y-124156435D01*
X192234941Y-129199250D01*
X192119039Y-129164096D01*
X191897000Y-129286085D01*
X191897000Y-130429000D01*
X191917000Y-130429000D01*
X191917000Y-130683000D01*
X191897000Y-130683000D01*
X191897000Y-131825915D01*
X192119039Y-131947904D01*
X192234941Y-131912750D01*
X192234941Y-133139565D01*
X192150789Y-133104708D01*
X191898577Y-133054540D01*
X191641423Y-133054540D01*
X191389211Y-133104708D01*
X191151633Y-133203116D01*
X190937817Y-133345983D01*
X190755983Y-133527817D01*
X190613116Y-133741633D01*
X190514708Y-133979211D01*
X190500000Y-134053153D01*
X190485292Y-133979211D01*
X190386884Y-133741633D01*
X190244017Y-133527817D01*
X190062183Y-133345983D01*
X189848367Y-133203116D01*
X189610789Y-133104708D01*
X189358577Y-133054540D01*
X189101423Y-133054540D01*
X188849211Y-133104708D01*
X188765060Y-133139564D01*
X188765060Y-131912750D01*
X188880961Y-131947904D01*
X189103000Y-131825915D01*
X189103000Y-130683000D01*
X189357000Y-130683000D01*
X189357000Y-131825915D01*
X189579039Y-131947904D01*
X189713087Y-131907246D01*
X189967420Y-131787037D01*
X190193414Y-131619519D01*
X190382385Y-131411131D01*
X190500000Y-131215018D01*
X190617615Y-131411131D01*
X190806586Y-131619519D01*
X191032580Y-131787037D01*
X191286913Y-131907246D01*
X191420961Y-131947904D01*
X191643000Y-131825915D01*
X191643000Y-130683000D01*
X189357000Y-130683000D01*
X189103000Y-130683000D01*
X189083000Y-130683000D01*
X189083000Y-130429000D01*
X189103000Y-130429000D01*
X189103000Y-129286085D01*
X189357000Y-129286085D01*
X189357000Y-130429000D01*
X191643000Y-130429000D01*
X191643000Y-129286085D01*
X191420961Y-129164096D01*
X191286913Y-129204754D01*
X191032580Y-129324963D01*
X190806586Y-129492481D01*
X190617615Y-129700869D01*
X190500000Y-129896982D01*
X190382385Y-129700869D01*
X190193414Y-129492481D01*
X189967420Y-129324963D01*
X189713087Y-129204754D01*
X189579039Y-129164096D01*
X189357000Y-129286085D01*
X189103000Y-129286085D01*
X188880961Y-129164096D01*
X188765060Y-129199250D01*
X188765060Y-124292750D01*
X188880961Y-124327904D01*
X189103000Y-124205915D01*
X189103000Y-123063000D01*
X189083000Y-123063000D01*
X189083000Y-122809000D01*
X189103000Y-122809000D01*
X189103000Y-121666085D01*
X188880961Y-121544096D01*
X188765060Y-121579250D01*
X188765060Y-120447189D01*
X188840546Y-120371703D01*
X188849211Y-120375292D01*
X189101423Y-120425460D01*
X189358577Y-120425460D01*
X189610789Y-120375292D01*
X189848367Y-120276884D01*
X190062183Y-120134017D01*
X190244017Y-119952183D01*
X190386884Y-119738367D01*
X190485292Y-119500789D01*
X190500000Y-119426847D01*
X190514708Y-119500789D01*
G37*
X190514708Y-119500789D02*
X190613116Y-119738367D01*
X190755983Y-119952183D01*
X190937817Y-120134017D01*
X191151633Y-120276884D01*
X191389211Y-120375292D01*
X191641423Y-120425460D01*
X191898577Y-120425460D01*
X192150789Y-120375292D01*
X192159453Y-120371703D01*
X192234940Y-120447190D01*
X192234940Y-121715565D01*
X192150789Y-121680708D01*
X191898577Y-121630540D01*
X191641423Y-121630540D01*
X191389211Y-121680708D01*
X191151633Y-121779116D01*
X190937817Y-121921983D01*
X190755983Y-122103817D01*
X190613116Y-122317633D01*
X190566105Y-122431127D01*
X190527070Y-122322119D01*
X190382385Y-122080869D01*
X190193414Y-121872481D01*
X189967420Y-121704963D01*
X189713087Y-121584754D01*
X189579039Y-121544096D01*
X189357000Y-121666085D01*
X189357000Y-122809000D01*
X189377000Y-122809000D01*
X189377000Y-123063000D01*
X189357000Y-123063000D01*
X189357000Y-124205915D01*
X189579039Y-124327904D01*
X189713087Y-124287246D01*
X189967420Y-124167037D01*
X190193414Y-123999519D01*
X190382385Y-123791131D01*
X190527070Y-123549881D01*
X190566105Y-123440873D01*
X190613116Y-123554367D01*
X190755983Y-123768183D01*
X190937817Y-123950017D01*
X191151633Y-124092884D01*
X191389211Y-124191292D01*
X191641423Y-124241460D01*
X191898577Y-124241460D01*
X192150789Y-124191292D01*
X192234940Y-124156435D01*
X192234941Y-129199250D01*
X192119039Y-129164096D01*
X191897000Y-129286085D01*
X191897000Y-130429000D01*
X191917000Y-130429000D01*
X191917000Y-130683000D01*
X191897000Y-130683000D01*
X191897000Y-131825915D01*
X192119039Y-131947904D01*
X192234941Y-131912750D01*
X192234941Y-133139565D01*
X192150789Y-133104708D01*
X191898577Y-133054540D01*
X191641423Y-133054540D01*
X191389211Y-133104708D01*
X191151633Y-133203116D01*
X190937817Y-133345983D01*
X190755983Y-133527817D01*
X190613116Y-133741633D01*
X190514708Y-133979211D01*
X190500000Y-134053153D01*
X190485292Y-133979211D01*
X190386884Y-133741633D01*
X190244017Y-133527817D01*
X190062183Y-133345983D01*
X189848367Y-133203116D01*
X189610789Y-133104708D01*
X189358577Y-133054540D01*
X189101423Y-133054540D01*
X188849211Y-133104708D01*
X188765060Y-133139564D01*
X188765060Y-131912750D01*
X188880961Y-131947904D01*
X189103000Y-131825915D01*
X189103000Y-130683000D01*
X189357000Y-130683000D01*
X189357000Y-131825915D01*
X189579039Y-131947904D01*
X189713087Y-131907246D01*
X189967420Y-131787037D01*
X190193414Y-131619519D01*
X190382385Y-131411131D01*
X190500000Y-131215018D01*
X190617615Y-131411131D01*
X190806586Y-131619519D01*
X191032580Y-131787037D01*
X191286913Y-131907246D01*
X191420961Y-131947904D01*
X191643000Y-131825915D01*
X191643000Y-130683000D01*
X189357000Y-130683000D01*
X189103000Y-130683000D01*
X189083000Y-130683000D01*
X189083000Y-130429000D01*
X189103000Y-130429000D01*
X189103000Y-129286085D01*
X189357000Y-129286085D01*
X189357000Y-130429000D01*
X191643000Y-130429000D01*
X191643000Y-129286085D01*
X191420961Y-129164096D01*
X191286913Y-129204754D01*
X191032580Y-129324963D01*
X190806586Y-129492481D01*
X190617615Y-129700869D01*
X190500000Y-129896982D01*
X190382385Y-129700869D01*
X190193414Y-129492481D01*
X189967420Y-129324963D01*
X189713087Y-129204754D01*
X189579039Y-129164096D01*
X189357000Y-129286085D01*
X189103000Y-129286085D01*
X188880961Y-129164096D01*
X188765060Y-129199250D01*
X188765060Y-124292750D01*
X188880961Y-124327904D01*
X189103000Y-124205915D01*
X189103000Y-123063000D01*
X189083000Y-123063000D01*
X189083000Y-122809000D01*
X189103000Y-122809000D01*
X189103000Y-121666085D01*
X188880961Y-121544096D01*
X188765060Y-121579250D01*
X188765060Y-120447189D01*
X188840546Y-120371703D01*
X188849211Y-120375292D01*
X189101423Y-120425460D01*
X189358577Y-120425460D01*
X189610789Y-120375292D01*
X189848367Y-120276884D01*
X190062183Y-120134017D01*
X190244017Y-119952183D01*
X190386884Y-119738367D01*
X190485292Y-119500789D01*
X190500000Y-119426847D01*
X190514708Y-119500789D01*
G36*
X194974540Y-129290517D02*
G01*
X194793087Y-129204754D01*
X194659039Y-129164096D01*
X194437000Y-129286085D01*
X194437000Y-130429000D01*
X194457000Y-130429000D01*
X194457000Y-130683000D01*
X194437000Y-130683000D01*
X194437000Y-131825915D01*
X194659039Y-131947904D01*
X194793087Y-131907246D01*
X194974540Y-131821483D01*
X194974540Y-133233968D01*
X194928367Y-133203116D01*
X194690789Y-133104708D01*
X194438577Y-133054540D01*
X194181423Y-133054540D01*
X193929211Y-133104708D01*
X193822060Y-133149091D01*
X193822060Y-131904952D01*
X193826913Y-131907246D01*
X193960961Y-131947904D01*
X194183000Y-131825915D01*
X194183000Y-130683000D01*
X194163000Y-130683000D01*
X194163000Y-130429000D01*
X194183000Y-130429000D01*
X194183000Y-129286085D01*
X193960961Y-129164096D01*
X193826913Y-129204754D01*
X193822060Y-129207048D01*
X193822060Y-124146909D01*
X193929211Y-124191292D01*
X194181423Y-124241460D01*
X194438577Y-124241460D01*
X194690789Y-124191292D01*
X194928367Y-124092884D01*
X194974541Y-124062032D01*
X194974540Y-129290517D01*
G37*
X194974540Y-129290517D02*
X194793087Y-129204754D01*
X194659039Y-129164096D01*
X194437000Y-129286085D01*
X194437000Y-130429000D01*
X194457000Y-130429000D01*
X194457000Y-130683000D01*
X194437000Y-130683000D01*
X194437000Y-131825915D01*
X194659039Y-131947904D01*
X194793087Y-131907246D01*
X194974540Y-131821483D01*
X194974540Y-133233968D01*
X194928367Y-133203116D01*
X194690789Y-133104708D01*
X194438577Y-133054540D01*
X194181423Y-133054540D01*
X193929211Y-133104708D01*
X193822060Y-133149091D01*
X193822060Y-131904952D01*
X193826913Y-131907246D01*
X193960961Y-131947904D01*
X194183000Y-131825915D01*
X194183000Y-130683000D01*
X194163000Y-130683000D01*
X194163000Y-130429000D01*
X194183000Y-130429000D01*
X194183000Y-129286085D01*
X193960961Y-129164096D01*
X193826913Y-129204754D01*
X193822060Y-129207048D01*
X193822060Y-124146909D01*
X193929211Y-124191292D01*
X194181423Y-124241460D01*
X194438577Y-124241460D01*
X194690789Y-124191292D01*
X194928367Y-124092884D01*
X194974541Y-124062032D01*
X194974540Y-129290517D01*
M02*
